<svg xmlns="http://www.w3.org/2000/svg" xmlns:xlink="http://www.w3.org/1999/xlink" viewBox="0 0 200 150" id="businessman-do-digital-marketing"><defs><linearGradient id="a" x1="5960.48" x2="5961.27" y1="106.92" y2="118.8" gradientTransform="matrix(-1 0 0 1 6069.51 0)" gradientUnits="userSpaceOnUse"><stop offset="0" stop-color="#ff767d"></stop><stop offset=".38" stop-color="#ff918b"></stop><stop offset=".75" stop-color="#ffa595"></stop><stop offset="1" stop-color="#ffac99"></stop></linearGradient><linearGradient id="b" x1="5953.94" x2="5957.31" y1="61.07" y2="66.77" xlink:href="#a"></linearGradient><linearGradient id="c" x1="5952.04" x2="5947.84" y1="53.12" y2="46.38" xlink:href="#a"></linearGradient><clipPath id="d"><path fill="none" d="M118.29,93.49,70,123.33a3.62,3.62,0,0,1-5.52-3.08V61.72A3.62,3.62,0,0,1,70,58.61L118.23,87.3A3.62,3.62,0,0,1,118.29,93.49Z"></path></clipPath></defs><g data-name="Layer 1"><rect width="184.65" height=".57" x="7.67" y="124.48"></rect><path fill="#00685a" d="M143.7,71.4l-.88,38.13a28.09,28.09,0,0,1,19.71-8C154.59,79.49,143.7,71.4,143.7,71.4Z"></path><path fill="#000100" d="M143,109.73l-.4-.4c7.55-7.6,17.37-8,19.51-8-7.81-21.47-18.49-29.58-18.6-29.66l.34-.46A38.45,38.45,0,0,1,150.36,78a84.85,84.85,0,0,1,12.44,23.45.29.29,0,0,1,0,.27.32.32,0,0,1-.24.11C162.41,101.86,151.32,101.38,143,109.73Z"></path><path fill="#00685a" d="M143.89,71.26c-9.21-8-39.49-5.36-45.83-3.73C84.33,71.05,89,90.16,87.62,104.27c-1.4,14.48-1.1,20.47-1.1,20.47h67.21C153.73,104.86,151,77.39,143.89,71.26Z"></path><path fill="#000100" d="M153.73,125H86.52a.27.27,0,0,1-.28-.27c0-.06-.29-6.17,1.09-20.51a107.19,107.19,0,0,0,.28-11C87.52,81.8,87.43,70,98,67.25c2.84-.73,11-1.76,20.2-1.76,8.89,0,20.59,1,25.89,5.56,4.09,3.54,6.42,13.78,7.66,21.75A218.68,218.68,0,0,1,154,124.74.28.28,0,0,1,153.73,125Zm-66.94-.56h66.65c0-21.54-3.07-47.21-9.73-53-4-3.49-13.09-5.41-25.52-5.41-9.16,0-17.24,1-20.06,1.74-4.6,1.18-7.39,4.14-8.79,9.32-1.25,4.62-1.21,10.47-1.16,16.12,0,3.72,0,7.57-.28,11.06A178.39,178.39,0,0,0,86.79,124.46Z"></path><path d="M144.25,124.74c-.93-6.65-41.67-8.86-41.67-26.79,0-4.48-15-6.39-15,6.32,0,14.17-1.1,20.47-1.1,20.47Z" style="mix-blend-mode:multiply" fill="#5b7895" opacity=".55"></path><path fill="url(#a)" d="M83.45,124.24a90.49,90.49,0,0,0,36.29-7.8c2.78,3,8.75-2.27,9.27-.71s.62,5.91,2.24,5.72c1-.11,1.67-3.12,1.67-3.12a11,11,0,0,0,2.91,3.66c1.72,1.22,1.93-.75,1.93-.75.55,1.19,3.35,1.57,3.26-.13a34.32,34.32,0,0,0-1.48-4.41s2.05,3,3.6,2.43-.46-3-2.47-6.95a51.51,51.51,0,0,0-3.47-5.86c-.85-1.37-2.33-1.39-5.42-.31s-9.08,1.52-11.43,1.52c-1.34,0-12.37-.53-22.59-.53l1.78-5.78L79.26,98.07S62.75,124.24,83.45,124.24Z"></path><path fill="#000100" d="M83.45,124.52c-4.84,0-8.09-1.43-9.65-4.26-4.09-7.42,4.84-21.74,5.22-22.34l.1-.16L99.91,101l-1.77,5.73c7.4,0,15.12.28,19.3.43,1.48,0,2.56.09,2.91.09,2.37,0,8.32-.45,11.34-1.5a11.17,11.17,0,0,1,3.46-.78,2.45,2.45,0,0,1,2.29,1.21c.35.57.65,1,.93,1.45a36.77,36.77,0,0,1,2.56,4.43c.55,1.1,1.11,2.06,1.6,2.91,1,1.78,1.71,3,1.43,3.76a1.15,1.15,0,0,1-.72.67,1.39,1.39,0,0,1-.53.1,3.66,3.66,0,0,1-2.29-1.29,17.1,17.1,0,0,1,.88,2.9,1.29,1.29,0,0,1-.33,1,1.66,1.66,0,0,1-1.24.46,2.93,2.93,0,0,1-1.85-.68,1.16,1.16,0,0,1-1.07.8,2.05,2.05,0,0,1-1.15-.45A10.13,10.13,0,0,1,133,119.1c-.29,1-.88,2.54-1.72,2.63h-.14c-1.32,0-1.7-2.2-2-4.15a13.64,13.64,0,0,0-.37-1.77s0-.1-.22-.1a7.53,7.53,0,0,0-2,.68,12.24,12.24,0,0,1-4.43,1.25,3.31,3.31,0,0,1-2.37-.87A92.06,92.06,0,0,1,83.45,124.52Zm-4-26.14c-1,1.59-8.81,14.88-5.1,21.61,1.45,2.63,4.53,4,9.15,4a90.92,90.92,0,0,0,36.16-7.77l.19-.09.14.15a2.71,2.71,0,0,0,2.11.84,11.84,11.84,0,0,0,4.21-1.2,7.21,7.21,0,0,1,2.26-.73.71.71,0,0,1,.76.49,14.43,14.43,0,0,1,.39,1.86c.27,1.55.64,3.68,1.48,3.68h.07c.53-.06,1.16-1.77,1.43-2.9l.18-.78.35.72a10.76,10.76,0,0,0,2.81,3.55,1.54,1.54,0,0,0,.82.35c.57,0,.67-.89.67-.9l.11-1,.43.94a2,2,0,0,0,1.71.86,1.14,1.14,0,0,0,.83-.28.71.71,0,0,0,.17-.57,31.34,31.34,0,0,0-1.45-4.33l-1-2.42,1.46,2.16c.44.67,1.84,2.39,2.93,2.39a.92.92,0,0,0,.33-.06.61.61,0,0,0,.39-.34c.19-.56-.51-1.76-1.39-3.29-.5-.85-1.06-1.82-1.62-2.93a35.69,35.69,0,0,0-2.52-4.38c-.29-.44-.59-.89-.94-1.47a1.92,1.92,0,0,0-1.81-.94,10.78,10.78,0,0,0-3.28.75c-3.11,1.09-9,1.54-11.52,1.54-.36,0-1.38,0-2.93-.09-4.25-.15-12.16-.43-19.66-.43h-.38l1.8-5.84Z"></path><path fill="#000100" d="M139.39 117.09c-1.43-3.44-3.39-7.6-3.41-7.64l.51-.25s2 4.22 3.43 7.67zM137.49 121.31a28.16 28.16 0 00-1.17-3.51c-.14-.3-.3-.75-.5-1.33-.61-1.74-1.53-4.38-3-5.52l.35-.45c1.61 1.24 2.57 4 3.2 5.79.18.53.34 1 .47 1.27a28.61 28.61 0 011.21 3.61zM132.71 118.57a26.77 26.77 0 00-.58-4 3.4 3.4 0 00-2-2l.12-.56a4 4 0 012.41 2.36 28.73 28.73 0 01.61 4.13z"></path><path d="M117.76,121.6c0-.14,1.93-5,2-5.16s-1.79.87-1.79-3.28c0-2.8,4.38-5.77,4.38-5.77l4.85-16.92a1.78,1.78,0,0,1,1.71-1.26h.72l27.38.08,8.38,34.2h-45.1l-1.33.6H82.36c-1,0-1.28-1.45-1.28-2.49Z" style="mix-blend-mode:multiply" fill="#5b7895" opacity=".55"></path><path fill="#00685a" d="M102.58,98,93.9,69.78C78.33,79.12,73.44,103.93,73.43,104c-.28,1.86,1.88,3.79,9.39,4.93s15.7-1.15,16-3v-.11C99.37,104.71,101.53,100.46,102.58,98Z"></path><path fill="#000100" d="M87 109.52a28.5 28.5 0 01-4.24-.3A22.89 22.89 0 0175.06 107c-1.44-.86-2.08-1.88-1.91-3a75.21 75.21 0 014.42-13.71c2.91-6.77 8.07-15.86 16.18-20.73l.3.49c-15.39 9.23-20.29 33.79-20.34 34-.13.89.42 1.71 1.64 2.44a22.26 22.26 0 007.51 2.16c7.42 1.12 15.42-1.19 15.66-2.77v-.08a.27.27 0 010-.12c.62-1.22 2.73-5.37 3.77-7.85l.52.21c-1 2.47-3.1 6.55-3.76 7.84V106C98.8 107.8 93.08 109.52 87 109.52zM113.78 28.75s.61-5.08 9.47-3c6.4 1.49 7.55 1 7.55 1a4.68 4.68 0 01-3.38 2.93s4.63-.57 4.36 4.14-3.16 5.37-3.2 7.55 3.91 4.53-.22 7.6S115 57.51 108.9 48.47C103 39.72 108.28 24.79 113.78 28.75z"></path><path fill="#000100" d="M117.35,53.7c-3.49,0-6.42-1.71-8.69-5.07-3.54-5.25-3.19-13.05-.8-17.55,1.12-2.11,2.57-3.27,4.08-3.27a3.3,3.3,0,0,1,1.67.48c.31-1,1.51-3.34,5.83-3.34a17.34,17.34,0,0,1,3.87.5A32,32,0,0,0,130,26.5a2.93,2.93,0,0,0,.75-.06l.57-.25-.2.6a4.86,4.86,0,0,1-2.24,2.61,3.94,3.94,0,0,1,2.26,1.12,4.24,4.24,0,0,1,1,3.26,8.61,8.61,0,0,1-2.14,5.41,3.71,3.71,0,0,0-1.06,2.14,4.38,4.38,0,0,0,.74,2c.87,1.6,2,3.59-1.07,5.83C124.45,52.17,120.69,53.7,117.35,53.7Zm-5.41-25.32c-1.29,0-2.56,1.05-3.58,3-2.31,4.36-2.66,11.9.77,17,2.16,3.2,4.93,4.82,8.22,4.82s6.92-1.53,10.84-4.44c2.63-1.95,1.8-3.48.91-5.11a4.72,4.72,0,0,1-.8-2.27,4.13,4.13,0,0,1,1.17-2.47,8.13,8.13,0,0,0,2-5.09,3.7,3.7,0,0,0-.82-2.84,3.9,3.9,0,0,0-2.79-1,4.07,4.07,0,0,0-.43,0l-.1-.56a4.46,4.46,0,0,0,3-2.3c-.83.05-2.78,0-7.16-1.06a16.81,16.81,0,0,0-3.74-.48c-4.9,0-5.36,3.13-5.37,3.26l-.06.47-.39-.27A2.88,2.88,0,0,0,111.94,28.38Z"></path><path fill="#000100" d="M90.7,122.85h45.42a.56.56,0,0,1,.56.56v1.33a0,0,0,0,1,0,0h-46a0,0,0,0,1,0,0v-1.89A0,0,0,0,1,90.7,122.85Z" transform="rotate(180 113.685 123.795)"></path><path fill="#000100" d="M137,125H91.26a.84.84,0,0,1-.85-.84v-1.61H137Zm-46-1.88v1a.28.28,0,0,0,.28.28h45.13v-1.32Z"></path><path fill="#000100" d="M138.51,90.46h45.82a1.78,1.78,0,0,1,1.7,2.31l-9.34,30.7a1.78,1.78,0,0,1-1.71,1.27H129.16a1.79,1.79,0,0,1-1.71-2.31l9.35-30.7A1.79,1.79,0,0,1,138.51,90.46Z"></path><path fill="#000100" d="M175,125H129.16a2.07,2.07,0,0,1-2-2.67l9.35-30.7a2,2,0,0,1,2-1.47h45.82a2.07,2.07,0,0,1,2,2.67L177,123.56A2.06,2.06,0,0,1,175,125ZM138.51,90.75a1.48,1.48,0,0,0-1.44,1.06l-9.35,30.71a1.5,1.5,0,0,0,1.44,1.94H175a1.5,1.5,0,0,0,1.44-1.07l9.34-30.7a1.5,1.5,0,0,0-.23-1.34,1.48,1.48,0,0,0-1.2-.6Z"></path><path fill="#d2d9d7" d="M139.23,90.46h45.82a1.79,1.79,0,0,1,1.71,2.31l-9.35,30.7a1.78,1.78,0,0,1-1.71,1.27H129.88a1.78,1.78,0,0,1-1.7-2.31l9.34-30.7A1.79,1.79,0,0,1,139.23,90.46Z"></path><path fill="#000100" d="M175.7,125H129.88a2.06,2.06,0,0,1-1.66-.83,2.09,2.09,0,0,1-.32-1.84l9.35-30.7a2.06,2.06,0,0,1,2-1.47h45.82a2.07,2.07,0,0,1,2,2.67l-9.35,30.71A2.05,2.05,0,0,1,175.7,125ZM139.23,90.75a1.49,1.49,0,0,0-1.44,1.06l-9.34,30.71a1.48,1.48,0,0,0,.23,1.33,1.46,1.46,0,0,0,1.2.61H175.7a1.49,1.49,0,0,0,1.44-1.07l9.35-30.7a1.53,1.53,0,0,0-.23-1.34,1.51,1.51,0,0,0-1.21-.6Z"></path><path fill="#fff" d="M158.55,113.69l-1.29.64a1.43,1.43,0,0,0-.16,2.48h0a3,3,0,0,0,3.34-.44,1.44,1.44,0,0,0-.12-2.38l-.39-.24A1.45,1.45,0,0,0,158.55,113.69Z"></path><path fill="#000100" d="M158.34,117.44h0a2.54,2.54,0,0,1-1.37-.38h0a1.65,1.65,0,0,1-.78-1.5,1.76,1.76,0,0,1,1-1.47l1.29-.64a1.76,1.76,0,0,1,1.68.08l.39.24a1.73,1.73,0,0,1,.83,1.41,1.71,1.71,0,0,1-.69,1.44A4,4,0,0,1,158.34,117.44Zm.85-3.61a1.17,1.17,0,0,0-.52.12l-1.29.64a1.15,1.15,0,0,0-.64,1,1.1,1.1,0,0,0,.51,1,2.05,2.05,0,0,0,1.09.3,3.32,3.32,0,0,0,1.95-.72,1.09,1.09,0,0,0,.46-1,1.16,1.16,0,0,0-.55-1l-.4-.24A1.17,1.17,0,0,0,159.19,113.83Z"></path><path fill="#fff" d="M160,113l1.28-.66a1.43,1.43,0,0,0,.12-2.48h0a3,3,0,0,0-3.34.49,1.44,1.44,0,0,0,.15,2.38l.4.24A1.45,1.45,0,0,0,160,113Z"></path><path fill="#000100" d="M159.32,113.41h0a1.75,1.75,0,0,1-.89-.24l-.4-.24a1.75,1.75,0,0,1-.84-1.4,1.7,1.7,0,0,1,.67-1.45,3.94,3.94,0,0,1,2.32-.86,2.5,2.5,0,0,1,1.33.36h0a1.68,1.68,0,0,1,.8,1.5,1.78,1.78,0,0,1-.94,1.48l-1.28.65A1.67,1.67,0,0,1,159.32,113.41Zm.86-3.62a3.36,3.36,0,0,0-2,.74,1.14,1.14,0,0,0-.45,1,1.2,1.2,0,0,0,.57.94l.4.24a1.16,1.16,0,0,0,.6.17h0a1.22,1.22,0,0,0,.53-.13l1.28-.66a1.14,1.14,0,0,0,.63-1,1.12,1.12,0,0,0-.52-1A2.08,2.08,0,0,0,160.18,109.79Z"></path><path fill="url(#b)" d="M126.37,50s-.41,12.38.67,16.6c0,0-3.78,6.51-19.32-.51,0,0,1.09-15.58.82-18.14Z"></path><path fill="#000100" d="M120.07,69.66c-3.45,0-7.64-1.1-12.46-3.28l-.18-.08v-.2c0-.15,1.08-15.58.82-18.09l0-.35,18.44,2.12V50c0,.12-.39,12.39.67,16.52l0,.11-.06.1C127.22,66.89,125.55,69.66,120.07,69.66ZM108,66c4.67,2.09,8.72,3.15,12,3.15,4.6,0,6.34-2.06,6.67-2.52-1-4-.72-14.46-.67-16.3l-17.23-2C109,51.47,108.14,64.13,108,66Z"></path><path fill="url(#c)" d="M132.67,50.42c-.24-3.39-1.37-11.89-2.07-15.16-1.62-7.58-21.5-6.76-21.5,2,0,1.32-.23,3.87-.17,6.49h-.05a4.49,4.49,0,0,0,0,9,4.94,4.94,0,0,0,1-.1c.49,3.42,1.12,7.81,4,10.42,1.84,1.67,5.61-.43,6.8,2.76,4.33-.2,8.15-1.34,11-4.62C133.68,58.74,132.91,53.81,132.67,50.42Z"></path><path fill="#000100" d="M120.44,66.1l-.07-.19c-.63-1.69-2.06-1.74-3.58-1.8a4.75,4.75,0,0,1-3.15-.85c-2.88-2.61-3.55-6.84-4-10.3a5.65,5.65,0,0,1-.71,0,4.77,4.77,0,0,1-.24-9.53c0-1.57,0-3.09.11-4.32,0-.76.07-1.41.07-1.89,0-4.9,5.92-7.47,11.76-7.47,4.22,0,9.45,1.42,10.3,5.4.7,3.28,1.84,11.86,2.07,15.2,0,.43.08.9.12,1.38.28,3.28.63,7.37-1.26,9.59-2.55,3-6.1,4.48-11.16,4.72ZM110.06,52.29l0,.34c.5,3.42,1.12,7.68,3.91,10.21a4.26,4.26,0,0,0,2.8.7c1.5.06,3.2.12,4,2,4.79-.26,8.15-1.7,10.56-4.52,1.74-2,1.4-6,1.12-9.17,0-.49-.08-.95-.11-1.39-.24-3.33-1.37-11.86-2.06-15.12-.74-3.42-5.43-4.95-9.75-4.95-5.56,0-11.19,2.37-11.19,6.9,0,.49,0,1.15-.07,1.91-.07,1.31-.14,2.93-.11,4.57V44h-.33a4.2,4.2,0,1,0,0,8.4,4.48,4.48,0,0,0,.89-.09Z"></path><path fill="#000100" d="M109.64,51.37c.56,3.53.94,8.73,4.19,11.68,1.84,1.67,5.61-.43,6.81,2.76,4.32-.21,8.14-1.34,11-4.62,2.08-2.45,1.31-7.38,1.07-10.77,0-.44-.08-1-.16-1.6a7.13,7.13,0,0,1-3.89,1.06c-1.92,0-3-.82-4.49-1.05A7.09,7.09,0,0,0,119,50c-1.62,1.16-3.1,2.33-5.7,2.33A7.24,7.24,0,0,1,109.64,51.37Zm9.87.84c0-.94,7.45-1.52,7.45-.58a3,3,0,0,1-2.11,3.27C122.5,55.71,119.51,54.36,119.51,52.21Zm3.88,3.21c-2,0-4.17-1.23-4.17-3.21,0-1.26,5.51-1.34,5.56-1.34,2.18,0,2.46.41,2.46.76a3.3,3.3,0,0,1-2.3,3.54A5,5,0,0,1,123.39,55.42Zm-3.6-3.18c0,1.56,1.87,2.61,3.6,2.61a4,4,0,0,0,1.36-.22,2.73,2.73,0,0,0,1.93-3,4,4,0,0,0-1.9-.24C122.33,51.44,120,51.92,119.79,52.24Z"></path><path fill="#fff" d="M119.51,52.21c0,2.15,3,3.5,5.34,2.69A3,3,0,0,0,127,51.63C127,50.69,119.51,51.27,119.51,52.21Z"></path><path fill="#000100" d="M124.78 50.87s-5.56.08-5.56 1.34c0 2 2.17 3.21 4.17 3.21h0a5 5 0 001.55-.25 3.3 3.3 0 002.3-3.54C127.24 51.28 127 50.87 124.78 50.87zm0 3.76a4 4 0 01-1.36.22h0c-1.73 0-3.58-1.05-3.6-2.61.25-.32 2.54-.8 5-.8a4 4 0 011.9.24A2.73 2.73 0 01124.75 54.63zM126.53 39l.2.53a7.71 7.71 0 014.59.37l.17-.53C128.38 38.33 126.6 39 126.53 39zM115.37 38.89l.29.48A7.44 7.44 0 01120.05 38l.07-.57C120 37.4 118.16 37.18 115.37 38.89z"></path><circle cx="117.94" cy="43.42" r=".74" fill="#000100"></circle><path fill="#000100" d="M117.94 42.4a1 1 0 101 1A1 1 0 00117.94 42.4zm0 1.48a.46.46 0 01-.45-.46.45.45 0 11.9 0A.46.46 0 01117.94 43.88zM128.76 41.45a.74.74 0 10.73.73A.74.74 0 00128.76 41.45z"></path><path fill="#000100" d="M128.76 41.16a1 1 0 101 1A1 1 0 00128.76 41.16zm0 1.48a.46.46 0 01-.45-.46.45.45 0 01.9 0A.46.46 0 01128.76 42.64zM124.26 45.37l-.13.56c.24 0 .53.16.6.36s-.18.64-.28.75l.43.38a1.54 1.54 0 00.39-1.3A1.24 1.24 0 00124.26 45.37zM107.23 45.64a2.55 2.55 0 00-1.6 2.53c.09 2.67 3.14 3 3.17 3l.06-.56c-.11 0-2.59-.29-2.67-2.47a2 2 0 011.26-2 2.33 2.33 0 012.52.41l.41-.39A2.86 2.86 0 00107.23 45.64z"></path><path fill="#000100" d="M107.81,47.3a1.6,1.6,0,0,1,.1-1.35l-.51-.23a2.09,2.09,0,0,0-.1,1.83,2.15,2.15,0,0,0,1.33,1l.13-.55A1.66,1.66,0,0,1,107.81,47.3Z"></path><path fill="#00685a" d="M57.53,105c-1.88-1.08-2.15-3-2.31-5s-.21-4-.27-5.93a50.09,50.09,0,0,0-1-9.86,25.63,25.63,0,0,0-3.08-7.46c-1.55-2.57-3.48-4.83-4.65-7.62-1.26-3-1.63-9.29-1.75-9.4s.31,7,1.71,10.13c1.29,2.83,3.35,5.15,4.87,7.85A25.12,25.12,0,0,1,54,86.14,99.24,99.24,0,0,1,54.76,97a29.18,29.18,0,0,0,.51,5.29,4,4,0,0,0,2.18,2.84C57.53,105.2,57.61,105.07,57.53,105Z"></path><path fill="#000100" d="M57.67,104.78c-1.73-1-2-2.75-2.16-4.77-.14-1.74-.2-3.51-.26-5.23l0-1a50.23,50.23,0,0,0-.95-9.6,26.21,26.21,0,0,0-3.12-7.55c-.54-.89-1.13-1.77-1.71-2.61a29.2,29.2,0,0,1-2.92-5c-.93-2.21-1.37-6.29-1.58-8.25-.13-1.12-.13-1.15-.23-1.24a.3.3,0,0,0-.44,0c-.22.34.4,7.56,1.69,10.4a31,31,0,0,0,2.81,4.66c.71,1,1.45,2.11,2.07,3.22a24.75,24.75,0,0,1,2.91,8.31,63.51,63.51,0,0,1,.61,8c0,.93.07,1.9.12,2.85,0,.28,0,.57,0,.86a22.25,22.25,0,0,0,.48,4.47,4.32,4.32,0,0,0,2.33,3,.4.4,0,0,0,.15,0,.36.36,0,0,0,.35-.28A.34.34,0,0,0,57.67,104.78Z"></path><path fill="#00685a" d="M54.47,88.42l.07,0A25.45,25.45,0,0,1,59,85.51,10.19,10.19,0,0,0,62.86,82,10.57,10.57,0,0,0,54.47,88.42Z"></path><path fill="#000100" d="M62.82,81.73a10.92,10.92,0,0,0-8.62,6.59.3.3,0,0,0,.08.32.34.34,0,0,0,.19.07.3.3,0,0,0,.15,0l.07,0s0,0,0,0a18.48,18.48,0,0,1,3.39-2.25l1-.58a10.35,10.35,0,0,0,4-3.6.26.26,0,0,0,0-.29A.29.29,0,0,0,62.82,81.73Zm-4,3.54-1,.56a27.61,27.61,0,0,0-2.58,1.6,10.39,10.39,0,0,1,7-5A10.87,10.87,0,0,1,58.83,85.27Z"></path><path fill="#00685a" d="M53.54,83.38a2.46,2.46,0,0,1,.07-.29l0,0Z"></path><path fill="#000100" d="M53.77,82.85a.29.29,0,0,0-.34,0h0l0,0a.28.28,0,0,0-.09.19l0,.26a.27.27,0,0,0,.24.3h0a.3.3,0,0,0,.28-.23,1.47,1.47,0,0,1,.06-.27A.28.28,0,0,0,53.77,82.85Z"></path><path fill="#00685a" d="M58.06,78.76A7.75,7.75,0,0,0,56.2,79.9a6.79,6.79,0,0,0-2.59,3.19,10.15,10.15,0,0,1,3.12-1.3c2-.76,3.62-2.33,5.61-3.16A8.6,8.6,0,0,0,58.06,78.76Z"></path><path fill="#000100" d="M62.38,78.35a17.68,17.68,0,0,0-2.32-.21,5.89,5.89,0,0,0-2.1.35A8.39,8.39,0,0,0,56,79.68,7,7,0,0,0,53.34,83a.26.26,0,0,0,.12.31.27.27,0,0,0,.15.05.24.24,0,0,0,.18-.07,6,6,0,0,1,2.09-.94c.31-.09.64-.19.95-.31a15.19,15.19,0,0,0,3-1.65,16.35,16.35,0,0,1,2.63-1.5.29.29,0,0,0-.06-.55ZM59.5,79.93a15.19,15.19,0,0,1-2.87,1.59c-.3.11-.61.21-.91.3a10.22,10.22,0,0,0-1.49.54,8.29,8.29,0,0,1,2.15-2.23A7.4,7.4,0,0,1,58.16,79a5.26,5.26,0,0,1,1.9-.31,11.45,11.45,0,0,1,1.29.08C60.71,79.13,60.09,79.54,59.5,79.93Z"></path><path fill="#00685a" d="M52.44,79.86c2.81-2.83,4-6.86,5-10.71a38.45,38.45,0,0,0-5,10.46Z"></path><path fill="#000100" d="M57.6,68.9a.28.28,0,0,0-.36.08,38.76,38.76,0,0,0-5,10.54.09.09,0,0,0,0,0l0,.24a.29.29,0,0,0,.15.3.28.28,0,0,0,.13,0,.32.32,0,0,0,.2-.08c2.93-3,4.14-7.33,5.1-10.84A.26.26,0,0,0,57.6,68.9Zm-4.5,9.78a39.51,39.51,0,0,1,3.64-8A22.62,22.62,0,0,1,53.1,78.68Z"></path><path fill="#00685a" d="M51.75,72.86a4.5,4.5,0,0,0-1.35,2.83l.05.47c.54-.53,1.21-.88,1.8-1.36,1.82-1.49,2.65-4,4.5-5.43L54.3,70.93A13.15,13.15,0,0,0,51.75,72.86Z"></path><path fill="#000100" d="M56.6,69.13l-2.46,1.56a14,14,0,0,0-2.6,2,4.79,4.79,0,0,0-1.42,3v0l.05.47a.31.31,0,0,0,.19.24h.09a.28.28,0,0,0,.2-.08,7.41,7.41,0,0,1,1-.78c.25-.18.51-.36.75-.56a11.63,11.63,0,0,0,2.25-2.74,10.44,10.44,0,0,1,2.25-2.68.28.28,0,0,0,.06-.39A.28.28,0,0,0,56.6,69.13ZM54.2,72a11.58,11.58,0,0,1-2.13,2.61c-.23.19-.48.36-.73.53s-.43.3-.65.47A4.3,4.3,0,0,1,52,73.05a13.2,13.2,0,0,1,2.5-1.88l.53-.34C54.71,71.2,54.45,71.59,54.2,72Z"></path><path fill="#00685a" d="M57.35,69a4.67,4.67,0,0,0-.6.38Z"></path><path fill="#000100" d="M57.22,68.74a4.85,4.85,0,0,0-.64.4.28.28,0,0,0-.06.39.27.27,0,0,0,.23.12.28.28,0,0,0,.15,0l.6-.38a.3.3,0,0,0,.1-.39A.29.29,0,0,0,57.22,68.74Z"></path><path fill="#00685a" d="M48.6,72.65a1.28,1.28,0,0,0,.13,1.12l.16-.24,1.38-2.69A12.32,12.32,0,0,0,51.44,68,9,9,0,0,0,51,63.26,82.13,82.13,0,0,0,48.6,72.65Z"></path><path fill="#000100" d="M51,63a.29.29,0,0,0-.26.2,82.83,82.83,0,0,0-2.37,9.43,1.53,1.53,0,0,0,.2,1.36.28.28,0,0,0,.21.1h0a.32.32,0,0,0,.22-.13l.16-.25v0L50.52,71a12.19,12.19,0,0,0,1.19-2.91,8.94,8.94,0,0,0-.48-4.89A.29.29,0,0,0,51,63Zm.21,5A12.16,12.16,0,0,1,50,70.71L48.83,73a1.92,1.92,0,0,1,.05-.32A82.1,82.1,0,0,1,51,64.22,7.75,7.75,0,0,1,51.16,67.94Z"></path><path fill="#00685a" d="M46.09,76a5.42,5.42,0,0,0-3.52,2.37,7.44,7.44,0,0,0,4.15-.27,21.7,21.7,0,0,0,3.65-1.72A7.93,7.93,0,0,0,46.09,76Z"></path><path fill="#000100" d="M50.46,76.06A8.25,8.25,0,0,0,46,75.67a5.62,5.62,0,0,0-3.7,2.51.25.25,0,0,0,0,.25.27.27,0,0,0,.19.17,6.27,6.27,0,0,0,1.58.19,8.76,8.76,0,0,0,2.73-.47,21.23,21.23,0,0,0,3.7-1.74.28.28,0,0,0,.14-.28A.28.28,0,0,0,50.46,76.06Zm-3.82,1.72a7.41,7.41,0,0,1-3.6.36,5.13,5.13,0,0,1,3.11-1.92,7.55,7.55,0,0,1,3.51.18A18,18,0,0,1,46.64,77.78Z"></path><path fill="#00685a" d="M50.39,76.34l.14-.1-.16.09Z"></path><path fill="#000100" d="M50.39,76l-.16.09a.28.28,0,0,0-.14.28.29.29,0,0,0,.2.24l.1-.25h0l-.09.24.09,0a.34.34,0,0,0,.17-.05l.13-.1a.28.28,0,0,0,.08-.38A.29.29,0,0,0,50.39,76Z"></path><path fill="#00685a" d="M52.38,79.77l.26-.12-.26.11Z"></path><path fill="#000100" d="M52.53,79.39l-.26.11a.29.29,0,0,0-.17.34.31.31,0,0,0,.14.18.32.32,0,0,0,.14,0,.2.2,0,0,0,.11,0l.28-.13a.28.28,0,0,0,.12-.37A.27.27,0,0,0,52.53,79.39Z"></path><path fill="#00685a" d="M41.22,84.27a13.39,13.39,0,0,0,11.1-4.38.2.2,0,0,0,.06-.12c-1.68.73-3.66.41-5.46.83C44.69,81.11,42.9,82.72,41.22,84.27Z"></path><path fill="#000100" d="M52.52,79.52a.28.28,0,0,0-.25,0,9.05,9.05,0,0,1-3.08.54,14.1,14.1,0,0,0-2.33.27c-2.36.55-4.29,2.32-5.83,3.74a.31.31,0,0,0-.08.3.28.28,0,0,0,.24.19,12.1,12.1,0,0,0,1.21.06,13.73,13.73,0,0,0,10.14-4.53.43.43,0,0,0,.12-.35A.28.28,0,0,0,52.52,79.52ZM41.9,84A12,12,0,0,1,47,80.87a15.06,15.06,0,0,1,2.24-.26,13.26,13.26,0,0,0,2.27-.26A13.17,13.17,0,0,1,41.9,84Z"></path><path fill="#00685a" d="M52.3,79.79l.08,0s0,0,0,0S52.25,79.77,52.3,79.79Z"></path><path fill="#000100" d="M52.61,79.59a.33.33,0,0,0-.27-.15.33.33,0,0,0-.33.28.29.29,0,0,0,.19.33.18.18,0,0,0,.1,0l.11,0,.07,0a.28.28,0,0,0,.17-.33A.42.42,0,0,0,52.61,79.59Zm-.27.42a.26.26,0,0,1-.21-.12l.22-.12h0l0-.07.06-.16a.26.26,0,0,1,.16.18l-.19,0,.19,0a.17.17,0,0,1,0,.1A.22.22,0,0,1,52.34,80Z"></path><path fill="#00685a" d="M49.83,82.66a8.2,8.2,0,0,0-6.33.52,23.62,23.62,0,0,0,5.16,1.28,7.55,7.55,0,0,0,2.51,0,3.23,3.23,0,0,0,2.07-1.32l.4-.14C52.41,83.43,51.09,83,49.83,82.66Z"></path><path fill="#000100" d="M53.55,82.75a3.05,3.05,0,0,1-1,.15,9,9,0,0,1-2.19-.39l-.48-.13A11.77,11.77,0,0,0,47,82a6.79,6.79,0,0,0-3.65,1,.29.29,0,0,0-.13.27.28.28,0,0,0,.18.24,24.16,24.16,0,0,0,5.22,1.29,11.62,11.62,0,0,0,1.45.11,5.16,5.16,0,0,0,1.15-.11,3.48,3.48,0,0,0,2.2-1.35l.31-.11a.28.28,0,0,0,.18-.36A.28.28,0,0,0,53.55,82.75Zm-2.44,1.44a5.56,5.56,0,0,1-1,.1,10.41,10.41,0,0,1-1.37-.11,23.43,23.43,0,0,1-4.51-1.05,8.36,8.36,0,0,1,5.57-.2l.48.12a9.13,9.13,0,0,0,2.36.41A3.12,3.12,0,0,1,51.11,84.19Z"></path><path fill="#00685a" d="M54.51 88.28l.06-.06-.06.06zM50.91 87a10.49 10.49 0 00-5.86-.38l4.89 1.73a8.88 8.88 0 002.36.59 3.05 3.05 0 002.21-.66C53.23 88.49 52.09 87.54 50.91 87z"></path><path fill="#000100" d="M54.38,88l-.25,0a4.7,4.7,0,0,1-2.16-.8c-.31-.17-.62-.34-.94-.49a8.06,8.06,0,0,0-3.32-.63,18.65,18.65,0,0,0-2.7.23.27.27,0,0,0-.24.25.27.27,0,0,0,.19.29l4.89,1.73a9,9,0,0,0,2.44.62h.26a3.16,3.16,0,0,0,2.22-.8.29.29,0,0,0-.39-.42Zm-2.06.65A8.69,8.69,0,0,1,50,88.08l-3.76-1.33c.45,0,.94-.08,1.43-.08a7.42,7.42,0,0,1,3.08.59c.3.14.61.31.91.47a7.06,7.06,0,0,0,1.81.79A3.07,3.07,0,0,1,52.32,88.66Z"></path><path fill="#00685a" d="M56.45,89.84a3.28,3.28,0,0,0-2,1.88l.1.59c2.12-1.58,5.08-1.76,7-3.53a3.94,3.94,0,0,0,.62-.67,15.34,15.34,0,0,1-3.08,1A15.92,15.92,0,0,0,56.45,89.84Z"></path><path fill="#000100" d="M62.13,87.86a14.72,14.72,0,0,1-3,1c-.24.06-.48.1-.72.15a10.21,10.21,0,0,0-2,.55,3.51,3.51,0,0,0-2.12,2.06.53.53,0,0,0,0,.13l.1.58a.3.3,0,0,0,.17.22l.11,0a.34.34,0,0,0,.17,0A12.19,12.19,0,0,1,58,91a11.39,11.39,0,0,0,3.81-2,4.38,4.38,0,0,0,.66-.71.27.27,0,0,0,0-.34A.28.28,0,0,0,62.13,87.86Zm-4.31,2.59a14.15,14.15,0,0,0-3,1.37l0-.07a3,3,0,0,1,1.78-1.65,10,10,0,0,1,1.95-.51l.72-.15A16.56,16.56,0,0,0,61,88.92,12.62,12.62,0,0,1,57.82,90.45Z"></path><path fill="#00685a" d="M52.57,91a38.84,38.84,0,0,0-7.33-1.54,14.56,14.56,0,0,0,3.37,2,15.75,15.75,0,0,0,2.93,1.18,5,5,0,0,0,3.11-.14l0-.14A3.21,3.21,0,0,0,52.57,91Z"></path><path fill="#000100" d="M52.66,90.69a40.48,40.48,0,0,0-7.39-1.56.29.29,0,0,0-.22.5,14.76,14.76,0,0,0,3.43,2.08,15.31,15.31,0,0,0,3,1.2A6.26,6.26,0,0,0,53,93.1a4.61,4.61,0,0,0,1.77-.33.3.3,0,0,0,.17-.24l0-.14a.4.4,0,0,0,0-.15A3.43,3.43,0,0,0,52.66,90.69Zm-1,1.67a15,15,0,0,1-2.88-1.16,19.53,19.53,0,0,1-2.5-1.37,38.27,38.27,0,0,1,6.26,1.4,3.22,3.22,0,0,1,1.83,1.1A5,5,0,0,1,51.61,92.36Z"></path><path fill="#00685a" d="M50.07,96.54a11.31,11.31,0,0,0-3.32,3.11,14.76,14.76,0,0,0,5.67-2.72,4.48,4.48,0,0,1,2.37-1.26l-.33-.12A7.07,7.07,0,0,0,50.07,96.54Z"></path><path fill="#000100" d="M54.89,95.41l-.34-.12-.06,0a7.3,7.3,0,0,0-4.56,1,11.57,11.57,0,0,0-3.41,3.19.29.29,0,0,0,0,.32.31.31,0,0,0,.24.13h.07a15.06,15.06,0,0,0,5.77-2.77L52.8,97a3.79,3.79,0,0,1,2-1,.29.29,0,0,0,.27-.24A.27.27,0,0,0,54.89,95.41Zm-2.44,1.14-.2.16a14.68,14.68,0,0,1-4.75,2.44,10.4,10.4,0,0,1,2.71-2.37,7.08,7.08,0,0,1,3.3-1A9.21,9.21,0,0,0,52.45,96.55Z"></path><path fill="#00685a" d="M54.8,95.88l.23-.14-.25,0Z"></path><path fill="#000100" d="M55.11,95.47l-.3-.06a.28.28,0,0,0-.23.09.27.27,0,0,0-.08.22l0,.19a.3.3,0,0,0,.16.22.27.27,0,0,0,.12,0,.3.3,0,0,0,.16,0l.21-.12a.29.29,0,0,0,.14-.28A.27.27,0,0,0,55.11,95.47Z"></path><path fill="#00685a" d="M56.22,95.33a4.09,4.09,0,0,0-1.19.41,4.59,4.59,0,0,1,1.23.77,9.56,9.56,0,0,0,3.86,1.34,6.62,6.62,0,0,0,1.4.17,6.68,6.68,0,0,0,3-1.11,30,30,0,0,1-4.12-1.15A8.77,8.77,0,0,0,56.22,95.33Z"></path><path fill="#000100" d="M64.59,96.63a18.45,18.45,0,0,1-2.94-.78c-.37-.13-.76-.25-1.14-.36a11.08,11.08,0,0,0-3.15-.55,5.82,5.82,0,0,0-1.2.11,4.43,4.43,0,0,0-1.27.44.28.28,0,0,0-.14.28A.27.27,0,0,0,55,96a2.79,2.79,0,0,1,.87.53l.27.2a9.7,9.7,0,0,0,4,1.39,7.89,7.89,0,0,0,1.38.17h.09a7.09,7.09,0,0,0,3.16-1.14.3.3,0,0,0,.14-.3A.29.29,0,0,0,64.59,96.63Zm-3.08,1.1h-.07a6.9,6.9,0,0,1-1.27-.16,9.37,9.37,0,0,1-3.75-1.29l-.25-.19a5.66,5.66,0,0,0-.47-.34,4.74,4.74,0,0,1,.57-.15,6.31,6.31,0,0,1,1.09-.1,10.62,10.62,0,0,1,3,.53l1.12.35c.73.24,1.49.49,2.26.66A5.19,5.19,0,0,1,61.51,97.73Z"></path><path fill="#00685a" d="M48.4,73.63l.18-.13a4.42,4.42,0,0,0-.52-.14Z"></path><path fill="#000100" d="M48.67,73.23l-.55-.15a.27.27,0,0,0-.31.16.27.27,0,0,0,.08.34l.33.27a.29.29,0,0,0,.34,0l.18-.13a.26.26,0,0,0,.12-.27A.27.27,0,0,0,48.67,73.23Z"></path><path fill="#00685a" d="M46.22,71.94a12.22,12.22,0,0,0-2.58-1.23,8.69,8.69,0,0,0-3-.62,1.31,1.31,0,0,0-.8.22,15.8,15.8,0,0,0,2.31,1.92,6.15,6.15,0,0,0,2.79,1c.81.07,1.63-.07,2.44,0a6.13,6.13,0,0,1,.73.11l-.69-.55C47,72.51,46.62,72.21,46.22,71.94Z"></path><path fill="#000100" d="M47.55,72.58c-.38-.29-.76-.6-1.17-.87a12.52,12.52,0,0,0-2.64-1.27,9,9,0,0,0-3.16-.63,1.58,1.58,0,0,0-1,.27.36.36,0,0,0-.11.21.28.28,0,0,0,.09.22,16.6,16.6,0,0,0,2.35,2,6.44,6.44,0,0,0,2.93,1.07,9.25,9.25,0,0,0,1.29,0,11.14,11.14,0,0,1,1.15,0,4.48,4.48,0,0,1,.69.11h.06a.29.29,0,0,0,.26-.16.28.28,0,0,0-.08-.34Zm-1.41.4a9.91,9.91,0,0,1-1.22,0,5.85,5.85,0,0,1-2.67-1,13.88,13.88,0,0,1-2-1.59l.31,0a8.15,8.15,0,0,1,2.95.61,11.1,11.1,0,0,1,2.51,1.2,12.81,12.81,0,0,1,1,.78C46.8,73,46.45,73,46.14,73Z"></path><path fill="#00685a" d="M47.65,62.63a4.1,4.1,0,0,0-.79,1,5.3,5.3,0,0,0-.37.93,12.76,12.76,0,0,0-.55,2.08,6.48,6.48,0,0,0,.16,2.7,39.37,39.37,0,0,0,2.84-6,2.72,2.72,0,0,0,.23-1.89A8.53,8.53,0,0,0,47.65,62.63Z"></path><path fill="#000100" d="M49.26,61.13a.33.33,0,0,0-.24,0,8.66,8.66,0,0,0-1.57,1.27,5,5,0,0,0-.84,1,5.5,5.5,0,0,0-.39,1,13.19,13.19,0,0,0-.56,2.12,6.84,6.84,0,0,0,.17,2.81.29.29,0,0,0,.23.21h0a.27.27,0,0,0,.24-.14,40,40,0,0,0,2.87-6.06,3,3,0,0,0,.22-2.09A.29.29,0,0,0,49.26,61.13Zm-.58,2.06a41.17,41.17,0,0,1-2.46,5.33,6.51,6.51,0,0,1,0-1.87,11.92,11.92,0,0,1,.54-2,4.89,4.89,0,0,1,.35-.88,4.34,4.34,0,0,1,.74-.91,10,10,0,0,1,1.13-1A3.42,3.42,0,0,1,48.68,63.19Z"></path><path fill="#00685a" d="M46,69.49l.13-.1s0-.06,0-.08Z"></path><path fill="#000100" d="M46.37,69.23a.29.29,0,0,0-.23-.21.28.28,0,0,0-.28.14l0,.09-.06.09a.28.28,0,0,0,.06.36.26.26,0,0,0,.18.07.3.3,0,0,0,.18-.06l.13-.1a.27.27,0,0,0,.09-.3Z"></path><path fill="#00685a" d="M39.39,63.58a9.59,9.59,0,0,0,1.08,1.86,8.33,8.33,0,0,0,1,1,17.47,17.47,0,0,0,1.4,1.18c1,.72,2.27,1,3.19,1.77a17.35,17.35,0,0,0-1.3-2A13.68,13.68,0,0,0,39.39,63.58Z"></path><path fill="#000100" d="M45,67.16a13.71,13.71,0,0,0-5.45-3.84.28.28,0,0,0-.37.38,9.22,9.22,0,0,0,1.11,1.91,8.15,8.15,0,0,0,1,1c.44.4.92.83,1.42,1.2a9.5,9.5,0,0,0,1.54.82,6.41,6.41,0,0,1,1.64.93.31.31,0,0,0,.18.07.29.29,0,0,0,.26-.16c.07-.15.08-.16-.47-1A14.59,14.59,0,0,0,45,67.16Zm-.51,1A7.76,7.76,0,0,1,43,67.38c-.48-.36-.93-.75-1.38-1.16a9.5,9.5,0,0,1-1-1A6.9,6.9,0,0,1,40,64.17a12.25,12.25,0,0,1,4.51,3.34,11,11,0,0,1,.68,1C44.94,68.36,44.7,68.25,44.45,68.14Z"></path><path fill="#00685a" d="M74.57,96.88c-2.14,2.5-10,8.76-21.19,26,0,0-1.11,1.45.63.12,0,0,16.3-12.29,20.67-25.67C74.72,97.22,74.91,96.5,74.57,96.88Z"></path><path fill="#000100" d="M74.72,96.49a.48.48,0,0,0-.36.21c-.42.49-1.08,1.14-1.92,2-3.36,3.31-10.35,10.21-19.29,24.07-.51.66-.42.84-.37.94a.34.34,0,0,0,.31.18c.13,0,.34,0,1.09-.62.16-.12,16.42-12.49,20.77-25.8.07-.22.17-.62,0-.82A.33.33,0,0,0,74.72,96.49Zm-20.89,26.3-.09.07c8.86-13.68,15.77-20.5,19.1-23.79.57-.56,1.06-1,1.45-1.46C69.83,110.62,54,122.67,53.83,122.79Z"></path><path fill="#00685a" d="M50,89.25C47.22,82,47.11,81.93,47,81.63c-.51-2.55-.6,12.35.05,14.61s3.41,15.49,3,16.3-2.23-9.48-5.28-16.05S35,80.76,34.73,80.08c-1.13-2.68.82,12.31,8.12,22.92s6,11.69,5.49,10.9-7.19-12.16-9.41-15c-2.08-2.69-9.17-9.58-9.49-10.21-1.39-2.72,3.13,9.18,5.78,12.74A81.15,81.15,0,0,0,45.47,112.8c5.86,5.59,6.26,6.84,6.26,6.84s.9,1.08-.06-.79a17.65,17.65,0,0,1,0-6.19C52.31,108.87,52.68,96.5,50,89.25Z"></path><path fill="#000100" d="M50.22,89.15c-1.63-4.33-2.34-6.12-2.64-6.89a5.67,5.67,0,0,1-.26-.68c0-.2-.1-.52-.39-.52a.29.29,0,0,0-.25.13c-.51.68-.4,13.27.14,15.13.62,2.14,2.56,11.56,3,14.93-.19-.65-.41-1.51-.65-2.39a79.59,79.59,0,0,0-4.07-12.49C42.78,91.49,38.58,85.31,36.32,82c-.68-1-1.26-1.87-1.33-2s-.22-.49-.47-.49a.33.33,0,0,0-.29.19c-.51,1,2,14.13,8.39,23.49,4.45,6.46,5.66,9.39,5.83,10.38l-.13-.22c-5.89-9.91-8.23-13.43-9.16-14.63-1.21-1.57-4.06-4.5-6.36-6.86-1.46-1.51-3-3.07-3.11-3.31s-.29-.56-.5-.56a.3.3,0,0,0-.26.17c-.06.12-.11.21.54,1.94.42,1.11,1,2.45,1.54,3.78a46.49,46.49,0,0,0,4,7.71A81.28,81.28,0,0,0,45.28,113c5.61,5.36,6.17,6.67,6.19,6.71a.19.19,0,0,0,.05.1c.34.41.49.41.56.41h0a.31.31,0,0,0,.27-.15c.1-.16.09-.34-.42-1.32a18.32,18.32,0,0,1,.06-6.05C52.61,108.8,53,96.46,50.22,89.15Zm1.21,23.47a19.68,19.68,0,0,0-.12,5.88,61.12,61.12,0,0,0-5.64-5.9,81,81,0,0,1-10.22-11.38c-1.78-2.38-4.47-8.73-5.53-11.57.53.57,1.36,1.42,2.48,2.57,2.28,2.35,5.12,5.27,6.31,6.81.92,1.2,3.25,4.69,9.12,14.58.13.22.22.37.27.44a.62.62,0,0,0,.49.34.43.43,0,0,0,.37-.23c.52-1-1.68-5.23-5.88-11.32C37.4,94.59,35,83.61,34.73,80.63c.22.35.58.88,1.13,1.68,2.24,3.3,6.43,9.46,8.67,14.29a80.31,80.31,0,0,1,4,12.4c.93,3.54,1.05,3.87,1.43,3.87h0a.35.35,0,0,0,.3-.2c.54-1-2.51-15-3-16.5-.52-1.8-.5-10.72-.32-13.71h0c.3.77,1,2.56,2.64,6.88C52.4,96.56,52,108.75,51.43,112.62Z"></path><path fill="#00685a" d="M66.15,90.87c-.82,1.28-4.89,7.66-6.2,10.17-1.46,2.79-6.5,17.24-7.38,20-.64,2,.17.62.17.62s5.5-7.29,7.46-10.73,6-15.87,6.09-20A.08.08,0,0,0,66.15,90.87Z"></path><path fill="#000100" d="M66.21,90.55a.38.38,0,0,0-.3.17C65.1,92,61,98.39,59.7,100.9c-1.48,2.84-6.59,17.49-7.4,20-.33,1-.29,1.2-.19,1.34a.3.3,0,0,0,.25.12c.11,0,.26,0,.62-.6.27-.35,5.56-7.39,7.46-10.74s6-15.84,6.14-20.11a.38.38,0,0,0-.11-.26A.35.35,0,0,0,66.21,90.55ZM60,110.75c-1.63,2.86-5.79,8.49-7.06,10.19.94-2.88,5.87-17,7.31-19.77C61.34,99,64.62,93.79,66,91.7,65.44,96.43,61.68,107.71,60,110.75Z"></path><path fill="#00685a" d="M56.19,84.74s-2.29,8-3,11.54-1.58,19.94-1.53,21.5-.21,2.92.16,1.86c.05-.12,2.12-5.45,3.05-8.85S58,99.32,57.26,91.33,56.19,84.74,56.19,84.74Z"></path><path fill="#000100" d="M56.26,84.36a.36.36,0,0,0-.34.3c0,.08-2.3,8-3,11.56s-1.58,20-1.54,21.57c0,.56,0,1.1,0,1.5,0,.64,0,.79.08.92a.36.36,0,0,0,.22.09h0c.24,0,.33-.24.44-.56,0,0,0-.06,0-.13.8-2.1,2.26-6,3-8.75v0c.94-3.45,3.14-11.51,2.41-19.52C56.91,84.36,56.59,84.36,56.26,84.36Zm-1.67,26.31v0c-.65,2.36-1.83,5.64-2.66,7.83,0-.25,0-.51,0-.77,0-1.54.8-17.9,1.53-21.43.59-2.92,2.25-8.83,2.82-10.84.15.76.39,2.38.7,5.85C57.69,99.26,55.52,107.25,54.59,110.67Z"></path><path fill="#00685a" d="M50.6,119.27c.27,1.53,1.56,2.72,3,5.45h2.07a53,53,0,0,0-3.06-5.55C51,116.84,50.51,118.77,50.6,119.27Z"></path><path fill="#000100" d="M52.86,119c-.58-.84-1.09-1.25-1.57-1.25a.82.82,0,0,0-.63.31,1.8,1.8,0,0,0-.34,1.25,8,8,0,0,0,1.43,2.88c.48.73,1,1.56,1.62,2.66a.28.28,0,0,0,.25.15h2.07a.32.32,0,0,0,.25-.14.31.31,0,0,0,0-.28A55.49,55.49,0,0,0,52.86,119Zm.93,5.43c-.57-1-1.1-1.84-1.57-2.55a7.48,7.48,0,0,1-1.34-2.67,1.19,1.19,0,0,1,.21-.78.25.25,0,0,1,.2-.11c.12,0,.48.1,1.11,1a49.36,49.36,0,0,1,2.83,5.1Z"></path><path fill="#00685a" d="M51.34,119.34,39.13,107.75a45.92,45.92,0,0,0-9.83-7.12c-1.93-1-3.78-2-4.36-2.45-1.61-1.09.45.74,5.28,7.06s16.45,12.83,19.5,13.85S52.06,120,51.34,119.34Z"></path><path fill="#000100" d="M52,119.51a3.7,3.7,0,0,1-.48-.38L39.32,107.54a46.21,46.21,0,0,0-9.89-7.16c-2.38-1.28-3.84-2.1-4.33-2.44s-.55-.34-.68-.34a.29.29,0,0,0-.27.18c-.12.23,0,.32,1.19,1.81,1,1.15,2.56,3.07,4.66,5.82,4.9,6.42,16.64,13,19.63,13.94l1.76.61a2,2,0,0,0,.57.17.3.3,0,0,0,.28-.2C52.3,119.72,52.15,119.61,52,119.51Zm-2.2-.69c-3-1-14.53-7.43-19.36-13.75-2.11-2.76-3.72-4.69-4.67-5.85l-.34-.4c.76.44,2,1.13,3.73,2.06A45.52,45.52,0,0,1,38.93,108l11.76,11.16Z"></path><path fill="#00685a" d="M53.78,123.66c-20.91-4.63-28.37-4.34-31.07-4.08-3.88.37-1.45.63-1.45.63,15.05,7.11,31.93,3.71,31.93,3.71C55,123.91,53.78,123.66,53.78,123.66Z"></path><path fill="#000100" d="M53.84,123.38c-12.62-2.79-22.15-4.21-28.32-4.21a27.82,27.82,0,0,0-2.84.13c-2.34.22-2.45.39-2.46.7s.17.4,1,.49c8,3.74,16.4,4.53,22.09,4.53h0a57.2,57.2,0,0,0,9.95-.81c.85,0,1.2,0,1.23-.37S54.06,123.43,53.84,123.38Zm-10.57,1.07c-5.62,0-14-.77-21.78-4.44.29-.05.69-.09,1.25-.15.86-.08,1.77-.12,2.78-.12,6,0,15.12,1.34,27.22,4A59.48,59.48,0,0,1,43.27,124.45Z"></path><path fill="#00685a" d="M51.48,121.23S38.3,113.45,28.84,111.1,17.25,109.37,19.6,110a4.84,4.84,0,0,1,1.15.68c6.44,4.11,14.42,7,19.5,8.76a78.35,78.35,0,0,0,12.83,2.77C53.78,122.26,51.48,121.23,51.48,121.23Z"></path><path fill="#000100" d="M51.61,121c-.49-.29-13.45-7.86-22.7-10.15-6.3-1.57-8.84-1.69-9.47-1.69-.46,0-1,0-1,.39s.27.5,1.09.71a4.23,4.23,0,0,1,1,.63h0c6.75,4.3,15.4,7.33,19.56,8.79A78.66,78.66,0,0,0,53,122.45h.11a.34.34,0,0,0,.34-.25C53.54,122,53.56,121.86,51.61,121Zm-11.26-1.85c-4.14-1.44-12.74-4.46-19.44-8.72a5.52,5.52,0,0,0-1.15-.7,51.57,51.57,0,0,1,9,1.67c9.3,2.3,22.43,10,22.56,10.09l0,0,.47.21A71.63,71.63,0,0,1,40.35,119.13Zm12.8,3v-.28h0Z"></path><path fill="#fff" d="M121.81,84.51,68.93,53.06a4,4,0,0,0-6,3.41v64.15A4,4,0,0,0,69,124l52.87-32.7A4,4,0,0,0,121.81,84.51Z"></path><path fill="#000100" d="M122,84.26,69.07,52.82a4.24,4.24,0,0,0-6.42,3.65v64.15a4.25,4.25,0,0,0,6.49,3.61L122,91.53a4.25,4.25,0,0,0-.06-7.27Zm-.23,6.79-52.88,32.7a3.64,3.64,0,0,1-1.93.56,3.69,3.69,0,0,1-3.69-3.69V56.47a3.69,3.69,0,0,1,3.69-3.69,3.58,3.58,0,0,1,1.87.53l52.88,31.44a3.69,3.69,0,0,1,.06,6.3Z"></path><path fill="#002938" d="M118.23,87.3,70,58.61a3.62,3.62,0,0,0-5.47,3.11v58.53A3.62,3.62,0,0,0,70,123.33l48.26-29.84A3.62,3.62,0,0,0,118.23,87.3Z"></path><path fill="#000100" d="M118.38,87.06,70.12,58.37a3.81,3.81,0,0,0-2-.56,3.92,3.92,0,0,0-3.91,3.91v58.53a3.91,3.91,0,0,0,3.91,3.91,3.84,3.84,0,0,0,2-.59l48.25-29.84a3.9,3.9,0,0,0-.05-6.67Zm-.24,6.19L69.88,123.09a3.29,3.29,0,0,1-1.74.51,3.36,3.36,0,0,1-3.35-3.35V61.72a3.35,3.35,0,0,1,3.35-3.34,3.29,3.29,0,0,1,1.69.47l48.26,28.69a3.34,3.34,0,0,1,0,5.71Z"></path><g clip-path="url(#d)"><path d="M95.15,78.78a6.76,6.76,0,0,0-2.78-.27,7.75,7.75,0,0,0-5.24,3.15L65,91.47l-4,1.76c-1.46.16-2.4,2.39-2.11,5s1.7,4.54,3.16,4.37l3.85.71h0l.26,0,10,24.62s6.26,2.14,6.64.48-1.27-3.94-2.32-5.35c-.77-1-3-12-4.24-17.9l14.12,2.59a8.89,8.89,0,0,0,2.74,1.46,6.76,6.76,0,0,0,2.78.26c5.58-.62,9.19-7.92,8.21-16.61C103.28,85.94,99.62,80.14,95.15,78.78Z" style="mix-blend-mode:multiply" fill="#5b7895" opacity=".7"></path><path fill="#00685a" d="M78.79,98.42l-10.12,0L79.45,125s6.26,2.14,6.65.48-1.27-3.94-2.33-5.35S78.79,98.42,78.79,98.42Z"></path><path fill="#000100" d="M79.07,98.36a.29.29,0,0,0-.28-.23l-10.12,0h0a.29.29,0,0,0-.24.12.32.32,0,0,0,0,.27l10.79,26.58a.3.3,0,0,0,.17.16,21.72,21.72,0,0,0,5.3,1.12c1,0,1.58-.28,1.71-.85.43-1.84-1.39-4.27-2.37-5.58C83.25,118.92,80.64,106.48,79.07,98.36Zm6.75,27c-.08.35-.68.42-1.16.42a20.48,20.48,0,0,1-5-1.06L69.09,98.67l9.47,0c.57,2.93,4,20.18,5,21.56C84.4,121.4,86.19,123.79,85.82,125.37Z"></path></g><path fill="#d2d9d7" d="M64.3,90.24c-1.45.16-2.4,2.39-2.11,5s1.71,4.54,3.16,4.37l33.34,6.12L95.41,76.48Z"></path><path fill="#000100" d="M95.55,76.24a.27.27,0,0,0-.26,0L64.22,90c-1.6.22-2.62,2.53-2.31,5.28s1.81,4.77,3.43,4.63L98.64,106h0a.26.26,0,0,0,.19-.07.27.27,0,0,0,.09-.24L95.69,76.45A.29.29,0,0,0,95.55,76.24ZM65.4,99.3h-.08c-1.29.15-2.58-1.76-2.85-4.12s.59-4.52,1.86-4.66l.08,0L95.17,76.9l3.19,28.45Z"></path><path fill="#ffbc3a" d="M68.28,88.48l-4,1.76c-1.45.16-2.4,2.39-2.11,5s1.71,4.54,3.16,4.37l3.85.71A12.92,12.92,0,0,1,68.28,88.48Z"></path><path fill="#000100" d="M68.54,88.59a.27.27,0,0,0-.06-.31.26.26,0,0,0-.31-.06l-4,1.74c-1.6.22-2.62,2.53-2.31,5.28s1.81,4.77,3.43,4.63l3.81.7h0a.27.27,0,0,0,.23-.12.26.26,0,0,0,0-.3A12.65,12.65,0,0,1,68.54,88.59ZM65.4,99.3h-.08c-1.29.15-2.58-1.76-2.85-4.12s.59-4.52,1.86-4.66l.08,0L67.77,89a13.11,13.11,0,0,0,.88,10.89Z"></path><path fill="#fff" d="M98.48,75.79a6.62,6.62,0,0,0-2.78-.27c-5.58.62-9.19,7.92-8.21,16.61.78,6.94,4.44,12.74,8.91,14.11a6.75,6.75,0,0,0,2.78.26c5.58-.62,9.18-7.92,8.21-16.61C106.61,83,102.94,77.15,98.48,75.79Z"></path><path fill="#000100" d="M98.56,75.51a7.13,7.13,0,0,0-2.89-.27c-5.74.64-9.46,8.07-8.46,16.92.79,7,4.54,13,9.11,14.35a7.3,7.3,0,0,0,2.11.32c.26,0,.52,0,.78,0,5.73-.65,9.45-8.08,8.46-16.93C106.87,82.81,103.13,76.91,98.56,75.51Zm.59,30.71a6.74,6.74,0,0,1-2.67-.25c-4.36-1.34-7.94-7-8.71-13.87-1-8.53,2.54-15.69,8-16.3a5.53,5.53,0,0,1,.71,0,6.55,6.55,0,0,1,2,.3c4.36,1.33,8,7,8.71,13.86C108.06,98.45,104.57,105.61,99.15,106.22Z"></path><path fill="#ff4700" d="M95.83,76.69C91,77.24,87.72,84.1,88.61,92S94.17,105.87,99,105.33s8.12-7.4,7.23-15.31S100.71,76.15,95.83,76.69Z"></path><path fill="#000100" d="M96.45,76.38c-.22,0-.44,0-.65,0C90.77,77,87.42,84,88.32,92c.86,7.64,5.3,13.62,10.1,13.62.22,0,.44,0,.66,0,2.46-.28,4.59-2.07,6-5.06A19.83,19.83,0,0,0,106.55,90C105.69,82.35,101.26,76.38,96.45,76.38Zm8.11,23.93c-1.32,2.8-3.29,4.48-5.55,4.74a5.68,5.68,0,0,1-.59,0c-4.52,0-8.71-5.76-9.53-13.11-.87-7.74,2.26-14.46,7-15a4,4,0,0,1,.59,0c4.52,0,8.71,5.76,9.54,13.11A19.42,19.42,0,0,1,104.56,100.31Z"></path><path fill="#002938" d="M94.56,88.24l-6-.91a22.28,22.28,0,0,0,0,4.68,21.46,21.46,0,0,0,.88,4.22l5.66-2.73-.34-5.17Z"></path><path fill="#000100" d="M94.92,88.07l-.25-.1h-.06l-6-.91a.33.33,0,0,0-.22,0,.31.31,0,0,0-.11.2,23,23,0,0,0,.94,9,.28.28,0,0,0,.15.17.25.25,0,0,0,.12,0l.12,0,5.66-2.74a.28.28,0,0,0,.16-.27l-.33-5.16A.3.3,0,0,0,94.92,88.07Zm-5.26,7.76A22.74,22.74,0,0,1,88.89,92a21.64,21.64,0,0,1-.07-4.32l5.67.86.05,0,.31,4.8Z"></path><path fill="#fff" d="M94.56,88.24c-.82.09-1.35,1.34-1.19,2.79s1,2.56,1.78,2.47,1.35-1.34,1.19-2.8S95.38,88.15,94.56,88.24Z"></path><path fill="#000100" d="M94.53,88c-1,.11-1.62,1.47-1.44,3.11s1,2.72,2,2.72h.12c1-.11,1.62-1.48,1.44-3.11S95.52,87.84,94.53,88Zm.59,5.26h-.06c-.56,0-1.25-.85-1.41-2.22s.36-2.42.94-2.48h.06c.56,0,1.25.84,1.41,2.21S95.7,93.15,95.12,93.22Z"></path><path fill="#ffbc3a" d="M173.79,59.3l-17.1.05a5.76,5.76,0,0,0-5.76,5.77v4.82a5.77,5.77,0,0,0,5.77,5.77h.85a2.85,2.85,0,0,1,2.85,2.9l-.05,2.21,4.3-4.3a2.88,2.88,0,0,1,2-.83h7.13a5.77,5.77,0,0,0,5.78-5.77V65.08A5.77,5.77,0,0,0,173.79,59.3Z"></path><path fill="#000100" d="M173.79,59l-17.1,0a6.08,6.08,0,0,0-6.05,6.06v4.82A6.08,6.08,0,0,0,156.7,76h.85a2.56,2.56,0,0,1,2.56,2.61l0,2.21a.3.3,0,0,0,.17.27l.11,0a.28.28,0,0,0,.2-.08l4.3-4.3a2.55,2.55,0,0,1,1.82-.74h7.14a6.07,6.07,0,0,0,6.06-6.06V65.08A6.07,6.07,0,0,0,173.79,59Zm5.51,10.92a5.49,5.49,0,0,1-5.5,5.49h-7.14a3.11,3.11,0,0,0-2.21.91l-3.8,3.8,0-1.51a3.12,3.12,0,0,0-3.12-3.19h-.86a5.5,5.5,0,0,1-5.49-5.49V65.12a5.5,5.5,0,0,1,5.48-5.49l17.12-.05a5.5,5.5,0,0,1,5.49,5.5Z"></path><polygon fill="#000100" points="165.36 65.87 164.53 65.87 164.53 67.09 163.3 67.09 163.3 67.94 164.53 67.94 164.53 69.16 165.36 69.16 165.36 67.94 166.6 67.94 166.6 67.09 165.36 67.09 165.36 65.87"></polygon><path fill="#000100" d="M168.9 66.69a1.38 1.38 0 00-.62.15l.14-.8h1.71v-.85h-2.39l-.47 2.45.74.11a.9.9 0 01.69-.34.66.66 0 01.51.21 1 1 0 01.2.65 1.08 1.08 0 01-.2.7.62.62 0 01-.48.23.64.64 0 01-.44-.18.84.84 0 01-.23-.49l-.9.1a1.45 1.45 0 00.5.94 1.59 1.59 0 001.06.35A1.51 1.51 0 00170 69.3a1.74 1.74 0 00.33-1 1.57 1.57 0 00-.41-1.14A1.36 1.36 0 00168.9 66.69zM172.34 65.11a1.3 1.3 0 00-1.07.48 4.32 4.32 0 000 3.8 1.36 1.36 0 001.11.53 1.3 1.3 0 001.07-.48 3.11 3.11 0 00.46-1.92 3.07 3.07 0 00-.46-1.92A1.28 1.28 0 00172.34 65.11zm.49 3.58a.65.65 0 01-.2.38.47.47 0 01-.58 0 .82.82 0 01-.21-.41 5 5 0 01-.08-1.14 5.28 5.28 0 01.09-1.18.71.71 0 01.2-.38.47.47 0 01.58 0 .74.74 0 01.21.42 4.7 4.7 0 01.09 1.14A5.09 5.09 0 01172.83 68.69zM176 65.11a1.31 1.31 0 00-1.07.48 3.18 3.18 0 00-.46 1.92 3.12 3.12 0 00.42 1.88 1.36 1.36 0 001.11.53 1.3 1.3 0 001.07-.48 3.11 3.11 0 00.46-1.92 3.07 3.07 0 00-.46-1.92A1.26 1.26 0 00176 65.11zm.49 3.58a.65.65 0 01-.2.38.43.43 0 01-.29.1.45.45 0 01-.29-.1.91.91 0 01-.21-.41 5.64 5.64 0 01-.08-1.14 5.28 5.28 0 01.09-1.18.71.71 0 01.2-.38.45.45 0 01.29-.1.43.43 0 01.29.1.74.74 0 01.21.42 4.7 4.7 0 01.09 1.14A4.57 4.57 0 01176.49 68.69z"></path><path fill="#fff" d="M156.93,63a4.54,4.54,0,1,0,4.53,4.53A4.53,4.53,0,0,0,156.93,63Z"></path><path fill="#000100" d="M156.93,62.7a4.82,4.82,0,1,0,4.82,4.81A4.82,4.82,0,0,0,156.93,62.7Zm0,9.06a4.25,4.25,0,1,1,4.25-4.25A4.25,4.25,0,0,1,156.93,71.76Z"></path><path fill="#d2d9d7" d="M158.65,66.39c-.47,0-.92,0-.92,0s-.08,0,0-1.09-.58-.83-.61-.81h0v.36a1.54,1.54,0,0,1-.27.9l-.63.91h-.3v2.68h0l.65,0h0s1.8.26,2.15.25l.15,0h0a.82.82,0,0,0,.58-.8V67.22A.82.82,0,0,0,158.65,66.39Z"></path><path fill="#000100" d="M158.66,66.11l-.69,0c0-.13,0-.38,0-.79a1.28,1.28,0,0,0-.24-1,.61.61,0,0,0-.46-.2.73.73,0,0,0-.31.07.3.3,0,0,0-.16.26v.36a1.3,1.3,0,0,1-.23.74l-.54.79h-.15a.29.29,0,0,0-.28.29v2.68a.29.29,0,0,0,.09.21.3.3,0,0,0,.2.08h.63c.21,0,1.77.24,2.15.24h0l.23,0a1.11,1.11,0,0,0,.79-1.07V67.22A1.11,1.11,0,0,0,158.66,66.11Zm.51,2.65a.52.52,0,0,1-.38.52l-.08,0v0c-.27,0-1.44-.16-2.09-.25h-.41V66.93h0a.27.27,0,0,0,.21-.12l.63-.91a1.78,1.78,0,0,0,.32-1.05,1,1,0,0,1,0,.43c0,1.13,0,1.21.1,1.29a.27.27,0,0,0,.21.09h.91a.54.54,0,0,1,.53.55Z"></path><path fill="#d2d9d7" d="M154.41,66.69h0v2.67h1V66.69h-1Z"></path><path fill="#000100" d="M155.42,66.41h-1a.3.3,0,0,0-.29.28v2.67a.3.3,0,0,0,.29.29h1a.29.29,0,0,0,.29-.29V66.69A.29.29,0,0,0,155.42,66.41Zm-.28,2.67h-.45V67h.45Z"></path></g></svg>