<svg xmlns="http://www.w3.org/2000/svg" xmlns:xlink="http://www.w3.org/1999/xlink" data-name="Layer 1" viewBox="0 0 200 150" id="businessman-doing-digital-marketing"><defs><linearGradient id="a" x1="119.06" x2="122.19" y1="53.05" y2="47.45" gradientUnits="userSpaceOnUse"><stop offset="0" stop-color="#ff767d"></stop><stop offset=".38" stop-color="#ff918b"></stop><stop offset=".75" stop-color="#ffa595"></stop><stop offset="1" stop-color="#ffac99"></stop></linearGradient><linearGradient id="b" x1="125.68" x2="119.45" y1="69.7" y2="74.57" xlink:href="#a"></linearGradient><linearGradient id="c" x1="58.55" x2="59.25" y1="120.55" y2="126.23" xlink:href="#a"></linearGradient></defs><path fill="#002938" d="M119.24,20.89c-6.24-3.22-12.39-.1-12.39,5.36a46.25,46.25,0,0,0,1.27,10.34S125.48,24.1,119.24,20.89Z"></path><path fill="#000100" d="M119.34,20.68a11.32,11.32,0,0,0-5.16-1.33c-4.38,0-7.56,2.9-7.56,6.9a47.36,47.36,0,0,0,1.27,10.4.26.26,0,0,0,.15.16h.08a.2.2,0,0,0,.13,0c.53-.38,12.92-9.34,12.57-14.06A2.45,2.45,0,0,0,119.34,20.68ZM108.26,36.19a46.55,46.55,0,0,1-1.18-9.94c0-3.73,3-6.43,7.1-6.43a11,11,0,0,1,4.95,1.27,2,2,0,0,1,1.22,1.67C120.65,26.84,110.13,34.81,108.26,36.19Z"></path><path fill="url(#a)" d="M131.07,38.26s.43-10.46-4.83-13.45-17.77,1.44-18,8.76c-.08,2.53.58,4.64-.7,7.16-1.64,3.23-1,17.1,9.38,17.1,0,0-1,5.82-1.29,8.8,0,0-1.69,4.11,3.91,4.94,8.76,1.29,14.54-5,14.54-5a108.19,108.19,0,0,1-2-18,7.28,7.28,0,0,0,3.69-5.67C136,40,134,38.15,131.07,38.26Z"></path><path fill="#000100" d="M131.32,38h0c0-1.65,0-10.62-5-13.43a8.92,8.92,0,0,0-4.33-1c-5.59,0-13.84,3.87-14,9.93,0,.72,0,1.4,0,2.06a9.09,9.09,0,0,1-.72,5c-1,2-1.22,8.45,1.52,12.92a9,9,0,0,0,7.79,4.51c-.2,1.18-1,5.92-1.24,8.51a3.84,3.84,0,0,0,.18,3.09c.64,1.13,2,1.85,3.93,2.14a16.29,16.29,0,0,0,2.41.18,18.23,18.23,0,0,0,12.33-5.24l.08-.09,0-.12a109.13,109.13,0,0,1-2-17.81A7.45,7.45,0,0,0,136,42.93a4.46,4.46,0,0,0-1.07-3.51A4.76,4.76,0,0,0,131.32,38Zm4.18,4.86a7.09,7.09,0,0,1-3.56,5.48l-.13.07v.15a112.9,112.9,0,0,0,2,17.92,17.69,17.69,0,0,1-11.9,5,16.64,16.64,0,0,1-2.34-.17c-1.82-.27-3-.91-3.59-1.91a3.39,3.39,0,0,1-.14-2.71v-.07c.25-2.94,1.28-8.72,1.29-8.78l0-.28h-.28a8.5,8.5,0,0,1-7.67-4.29c-2.66-4.33-2.49-10.53-1.51-12.46a9.45,9.45,0,0,0,.78-5.24c0-.65-.07-1.33-.05-2,.19-5.79,8.16-9.48,13.57-9.48a8.35,8.35,0,0,1,4.1.91c5.07,2.89,4.71,13.14,4.71,13.24v.26h.25a4.35,4.35,0,0,1,3.47,1.24A4,4,0,0,1,135.5,42.89Z"></path><path fill="#000100" d="M117.39 34.07l.07.46a7.05 7.05 0 015.13 1.71l.31-.36A7.37 7.37 0 00117.39 34.07zM109.27 36.39h0v.46h0a9.3 9.3 0 004.58-1.33l-.25-.39A9.06 9.06 0 01109.27 36.39zM113 43.83a1.46 1.46 0 00-1.08.78l.41.21a1 1 0 01.71-.53c.4 0 .83.31 1.3 1l.38-.27C114.1 44.18 113.52 43.79 113 43.83zM119.89 38.9l0 .05a.84.84 0 00.39 1.13.85.85 0 001.17-.22.8.8 0 00-.16-1z"></path><path fill="#000100" d="M121.35 38.67h-1.59l-.11.15a1.09 1.09 0 00.47 1.45 1.23 1.23 0 00.62.17 1 1 0 00.87-.48 1 1 0 00-.19-1.23zm-.14 1.07a.64.64 0 01-.86.14.64.64 0 01-.32-.75h1.11A.56.56 0 01121.21 39.74zM110 38.9l0 .05a.84.84 0 00.38 1.13.86.86 0 001.18-.22.83.83 0 00-.16-1z"></path><path fill="#000100" d="M111.44 38.67h-1.59l-.11.15a1.07 1.07 0 00.46 1.45 1.26 1.26 0 00.62.17 1 1 0 00.88-.48 1 1 0 00-.2-1.23zm-.15 1.07a.68.68 0 01-1.17-.61h1.11A.55.55 0 01111.29 39.74zM116.16 48.58l-.28.37a2.26 2.26 0 001.38.47 4.9 4.9 0 003.27-1.83l-.36-.3S117.92 49.9 116.16 48.58zM116.79 57.59v.47c.1 0 9.61-.35 13.23-7.24l-.42-.22C126.12 57.25 116.88 57.59 116.79 57.59zM133.07 40.15a1.72 1.72 0 00-2.08 0l.28.37a1.24 1.24 0 011.53 0 2.9 2.9 0 01.94 3.14 2.06 2.06 0 01-1 1.35 2.29 2.29 0 01-1.64.09l-.16.44a3 3 0 00.91.14 2.4 2.4 0 001.1-.25 2.48 2.48 0 001.21-1.64A3.39 3.39 0 00133.07 40.15z"></path><path fill="#000100" d="M133.24 41a1.62 1.62 0 01-.37 1.41 1.31 1.31 0 01-1 .22l-.11.45a1.45 1.45 0 00.39 0 1.57 1.57 0 001.05-.36 2 2 0 00.52-1.8zM113.12 37h-7.93a.24.24 0 00-.22.15 4.61 4.61 0 00-.26 1.51 4.45 4.45 0 108.89 0 4.36 4.36 0 00-.26-1.51A.23.23 0 00113.12 37zm-4 5.64a4 4 0 01-4-4 4 4 0 01.18-1.19H113a3.75 3.75 0 01.19 1.19A4 4 0 01109.16 42.63zM123.44 37h-7.92a.23.23 0 00-.22.15 4.37 4.37 0 00-.27 1.51 4.45 4.45 0 008.9 0 4.37 4.37 0 00-.27-1.51A.23.23 0 00123.44 37zm-4 5.64a4 4 0 01-4-4 3.75 3.75 0 01.19-1.19h7.58a3.75 3.75 0 01.19 1.19A4 4 0 01119.48 42.63z"></path><path fill="#002938" d="M130.66,22.05a7.5,7.5,0,0,0-5.6-3.41c-3.73-.3-6.15.55-7.61,4.35s1.43,7.15,6,7.15,4.91,5.3,4.91,7.34c0,2.4,1.07,1.48,2.39.91,2.37-1,5,1.31,5.08,4a11.33,11.33,0,0,1-.17,2.1A6.25,6.25,0,0,1,132,48.58c-.59.53-1.07,3.1.08,4.25A33.46,33.46,0,0,0,138,48.74c1-.94,6.18-8,4.85-15.61C141.13,23.5,137.59,22.05,130.66,22.05Z"></path><path fill="#000100" d="M130.79,21.82a7.67,7.67,0,0,0-5.71-3.42c-.47,0-.89,0-1.29,0-3.37,0-5.33,1.36-6.56,4.56a5.07,5.07,0,0,0,.46,4.81,6.77,6.77,0,0,0,5.77,2.65c4.07,0,4.68,4.46,4.68,7.11,0,.49,0,1.8.93,1.8a3.3,3.3,0,0,0,1.24-.42c.17-.09.35-.17.54-.25a2.73,2.73,0,0,1,1.09-.23c1.87,0,3.62,1.93,3.67,4a11.81,11.81,0,0,1-.16,2A6.12,6.12,0,0,1,132,48.36l-.09,0a3.42,3.42,0,0,0-.7,2.19A3.31,3.31,0,0,0,132,53a.24.24,0,0,0,.16.07l.12,0a34.43,34.43,0,0,0,5.89-4.13c.86-.8,6.29-7.92,4.91-15.82C141.37,23.5,137.91,21.84,130.79,21.82Zm7,26.75a32.75,32.75,0,0,1-5.64,4,3,3,0,0,1-.51-1.93,3.18,3.18,0,0,1,.51-1.82,6.58,6.58,0,0,0,3.73-4.2,13.08,13.08,0,0,0,.18-2.18,4.54,4.54,0,0,0-4.14-4.5,3.16,3.16,0,0,0-1.28.27l-.55.26a3.2,3.2,0,0,1-1,.37c-.13,0-.47,0-.47-1.33,0-2.83-.66-7.58-5.14-7.58a6.4,6.4,0,0,1-5.38-2.44,4.62,4.62,0,0,1-.41-4.39c1.16-3,2.93-4.25,6.12-4.25.39,0,.8,0,1.25.05a7.37,7.37,0,0,1,5.42,3.3.23.23,0,0,0,.2.11c6.93,0,10.3,1.58,11.92,10.89C143.93,40.86,138.65,47.79,137.81,48.57Z"></path><path fill="#fff" d="M138.42,62.44H112.85c-10.4,0-19.22,6.91-20.71,16.23L89.05,120.1h72S149.24,62.44,138.42,62.44Z"></path><path fill="#000100" d="M138.42,62.21H112.85c-10.44,0-19.44,7.06-20.94,16.44l-3.1,41.43a.24.24,0,0,0,.07.18.21.21,0,0,0,.17.07h72a.23.23,0,0,0,.18-.08.24.24,0,0,0,0-.2C160.83,117.69,149.31,62.21,138.42,62.21ZM89.3,119.87l3.07-41.16c1.46-9.14,10.27-16,20.48-16h25.57c10.13,0,21.47,52.84,22.38,57.2Z"></path><path fill="#fff" d="M132.77,57.71c-1.23.83-9.3,6.61-13.94,6.61-4,0-2.33-2.49-2.4-3.37,0,0-5.78,2-5.78,10l7.74-6.11,9,7,9.48-9.43S135,57.71,132.77,57.71Z"></path><path fill="#000100" d="M132.77,57.48a.22.22,0,0,0-.13,0l-.41.28c-6.1,4.17-10.61,6.29-13.4,6.29a2.84,2.84,0,0,1-2.22-.63,2.11,2.11,0,0,1-.07-1.73,2.54,2.54,0,0,0,.12-.8.21.21,0,0,0-.1-.17.26.26,0,0,0-.21,0c-.06,0-5.94,2.15-5.94,10.26a.23.23,0,0,0,.14.21.23.23,0,0,0,.24,0l7.6-6,8.81,6.87a.27.27,0,0,0,.15,0,.2.2,0,0,0,.16-.07L137,62.61a.24.24,0,0,0,.06-.25C137,62.16,135.14,57.48,132.77,57.48Zm-5.44,14.07-8.8-6.85a.24.24,0,0,0-.14,0,.25.25,0,0,0-.15,0l-7.35,5.8c.19-6.25,4.07-8.6,5.27-9.17,0,.09,0,.19-.07.29a2.47,2.47,0,0,0,.15,2.13,3.21,3.21,0,0,0,2.59.81c2.88,0,7.48-2.15,13.66-6.37l.35-.24c1.81.09,3.4,3.68,3.71,4.44Z"></path><path fill="#ffbc3a" d="M92.14,78.35l-4.32,46.31h36.8l-14-62.43C101.23,63.13,93.52,69.7,92.14,78.35Z"></path><path fill="#000100" d="M110.63,62c-9.63.92-17.33,7.63-18.72,16.33l-4.32,46.31a.21.21,0,0,0,.06.18.26.26,0,0,0,.17.07h36.8a.25.25,0,0,0,.18-.08.24.24,0,0,0,0-.2l-14-62.43A.24.24,0,0,0,110.63,62ZM88.08,124.43l4.29-46c1.35-8.42,8.77-14.93,18.1-15.9l13.86,61.94Z"></path><path fill="#ffbc3a" d="M138.42,62.13h-1.59s-9.63,33.18-19.06,62.53h44.55s-1.75-30.91-2.88-42.21C158.23,70.36,149.24,62.13,138.42,62.13Z"></path><path fill="#000100" d="M138.42,61.89h-1.59a.23.23,0,0,0-.22.17c-.1.33-9.74,33.52-19.06,62.53a.26.26,0,0,0,0,.21.25.25,0,0,0,.19.09h44.55a.23.23,0,0,0,.17-.07.27.27,0,0,0,.06-.17c0-.31-1.76-31.05-2.88-42.22C158.48,70.53,149.54,61.89,138.42,61.89Zm-20.33,62.54C127,96.55,136.25,65,137,62.36h1.42c10.88,0,19.62,8.46,20.79,20.12,1.06,10.62,2.69,39,2.86,42Z"></path><path fill="url(#b)" d="M121.45,55A42.78,42.78,0,0,0,117,53.13c-1.84-.51-2.49.43-4,.73s-2.1,1.49-1.56,2,2.3.45,2.3.45-2.19,1-3.41,1.74a5.62,5.62,0,0,0-2,1.93,13.07,13.07,0,0,0-.36,1.46s-2.79,4.5-1.43,5.62S109.18,65,109.18,65c.91.09,1.7-1,1.7-1,1.14,2.43-.11,2.27-4,6.2-3.28,3.27-1.06,3.74-1.06,5.49,0,2.88.86,22.34.86,22.34h16.21c-.74-8.09-7.35-20-6.5-23.56,1.56-6.52,8.6-5.75,7.39-10.62S122.58,55.38,121.45,55Z"></path><path fill="#000100" d="M121.16,68.79c1.86-1.26,3.47-2.36,2.81-5-.45-1.83-.74-3.52-1-4.87-.41-2.43-.65-3.89-1.48-4.19-.41-.15-.88-.38-1.38-.61a17.24,17.24,0,0,0-3.06-1.23,3.81,3.81,0,0,0-1.07-.16,4.32,4.32,0,0,0-1.77.45,6.62,6.62,0,0,1-1.28.43,2.39,2.39,0,0,0-1.89,1.43,1,1,0,0,0,.21,1,2.48,2.48,0,0,0,1.49.5c-.75.37-1.82.91-2.54,1.33a5.85,5.85,0,0,0-2.13,2,11.55,11.55,0,0,0-.37,1.46c-.38.63-2.81,4.7-1.36,5.89a1.26,1.26,0,0,0,.8.32c1.13,0,1.93-1.79,2.16-2.38a2.34,2.34,0,0,0,1.48-.78c.56,1.35.15,1.7-1.54,3.19-.68.61-1.54,1.36-2.6,2.42-2.43,2.44-2,3.46-1.48,4.45a2.79,2.79,0,0,1,.35,1.21c0,2.85.86,22.16.87,22.35v.22h16.68l0-.25c-.38-4.11-2.25-9.19-3.91-13.66s-3-8.13-2.6-9.83C117.33,71.4,119.37,70,121.16,68.79Zm-2.42,15.74c1.61,4.35,3.43,9.28,3.86,13.29H106.88c-.1-2.18-.86-19.43-.86-22.11a3.11,3.11,0,0,0-.4-1.41c-.43-.92-.81-1.72,1.39-3.92,1-1,1.9-1.8,2.58-2.4,1.85-1.63,2.41-2.12,1.5-4.06l-.16-.35-.23.31s-.72.95-1.49.87l-.18,0-.07.17c-.22.62-1,2.23-1.78,2.23a.78.78,0,0,1-.5-.21c-.88-.72.44-3.64,1.48-5.32l0-.07a14.14,14.14,0,0,1,.34-1.41,5.49,5.49,0,0,1,1.94-1.83c1.19-.69,3.37-1.72,3.39-1.73l1.09-.51-1.2.07h-.31a3,3,0,0,1-1.81-.38.53.53,0,0,1-.1-.55,1.89,1.89,0,0,1,1.54-1.1,7,7,0,0,0,1.36-.46,3.94,3.94,0,0,1,1.59-.41,3.41,3.41,0,0,1,1,.14,17.27,17.27,0,0,1,3,1.2c.5.24,1,.47,1.42.63s.84,1.8,1.17,3.82c.23,1.36.52,3.06,1,4.92.57,2.3-.77,3.21-2.62,4.48s-4,2.71-4.77,6C115.69,76.27,117.11,80.09,118.74,84.53Z"></path><path fill="#fff" d="M103.53,78.92c.09,3,.26,7.5.42,11.63h18.4C120.58,84.22,118.21,78,117,74.77,117,74.78,107.89,78.6,103.53,78.92Z"></path><path fill="#000100" d="M117.69,75.93l-.46-1.24a.22.22,0,0,0-.28-.14l-.1,0c-1.54.64-9.43,3.82-13.34,4.11a.24.24,0,0,0-.22.24c.08,2.53.22,6.45.43,11.63a.24.24,0,0,0,.23.22h18.4a.21.21,0,0,0,.18-.09.21.21,0,0,0,0-.2C121,84.88,119,79.49,117.69,75.93ZM104.18,90.31c-.2-4.91-.34-8.67-.41-11.18,3.85-.36,10.79-3.1,13.1-4l.38,1c1.29,3.5,3.24,8.74,4.79,14.22Z"></path><path fill="#ffbc3a" d="M143,66.57c-7.45,1.07-13.74,32.7-13.74,32.7-2.58-8.52-6.69-15.51-9.18-19.92,0,0-11.8,7.05-16.73,7.41.24,8,6.75,37.75,23.17,37.75,15.36,0,29.81-23.11,29.81-23.11S152.07,65.27,143,66.57Z"></path><path fill="#000100" d="M126.53 124.27c-16.21 0-22.59-29-22.93-37.3 4.4-.47 13.55-5.64 16.41-7.3l.36.64a93.67 93.67 0 018.68 19 .23.23 0 00.45 0c.06-.31 6.34-31.47 13.55-32.5a2.84 2.84 0 01.77 0l.05-.46a3.79 3.79 0 00-.89 0c-6.9 1-12.65 26.74-13.76 32a95.81 95.81 0 00-8.44-18.25l-.48-.85a.24.24 0 00-.27-.11l-.19.1c-2.8 1.64-12.25 7-16.5 7.3a.24.24 0 00-.22.24c.24 8 6.71 38 23.41 38 15.31 0 29.86-23 30-23.22l-.39-.25C156 101.5 141.58 124.27 126.53 124.27zM119.39 57.52a.24.24 0 00-.18-.27 7.91 7.91 0 01-2.93-1.68.23.23 0 00-.21 0s-1.81.5-2.56.65l.1.46c.65-.14 2-.51 2.46-.62a9 9 0 002.83 1.64 3.45 3.45 0 00.32 2.23l.39-.26A3.17 3.17 0 01119.39 57.52zM110.52 59.94a9.49 9.49 0 00-2.69 1.35l.26.38a9.76 9.76 0 012.49-1.27c.64-.08 2.08.81 3 1.69a14.18 14.18 0 011.88 2.36l.4-.25a15.69 15.69 0 00-2-2.45C113.1 61 111.49 59.83 110.52 59.94z"></path><path fill="#000100" d="M114.82 55.91l-.19.42c2.77 1.25 5.41 4.69 5.44 4.73l.37-.29C120.33 60.63 117.7 57.2 114.82 55.91zM113.73 58.24c-2.16-.67-5.5 2.43-5.64 2.56l.32.34s3.29-3 5.19-2.46 4.65 3.36 4.68 3.39l.33-.33C118.5 61.63 115.81 58.88 113.73 58.24zM71.93 119.78c-4.22 0-7.64 1.63-7.64 3.64s3.42 3.65 7.64 3.65 17.55-3.92 17.55-5.93S76.15 119.78 71.93 119.78z"></path><path fill="#000100" d="M79.75 119.44c-1.8 0-3.54 0-5.08.06-1.09 0-2 0-2.74 0-4.42 0-7.88 1.71-7.88 3.88s3.46 3.88 7.88 3.88c4 0 17.79-3.82 17.79-6.16C89.72 120.3 88.53 119.44 79.75 119.44zm-7.82 7.39c-4 0-7.41-1.56-7.41-3.41S67.91 120 71.93 120c.7 0 1.65 0 2.75 0 1.54 0 3.28-.06 5.07-.06 8.27 0 9.5.77 9.5 1.23C89.25 122.87 76.35 126.83 71.93 126.83zM120.16 70l-9.34 40.56c1.68 0 1.64-1.71 2-3.35 1.18-4.78 8.4-34.26 8.51-34.73a2.57 2.57 0 00-.18-1.85A2.07 2.07 0 00120.16 70z"></path><path fill="#000100" d="M120.22,69.74l-.23-.06-9.4,40.8-.07.28h.3c1.57,0,1.83-1.34,2.08-2.64.06-.29.11-.59.19-.88,1.07-4.35,8.39-34.24,8.5-34.74a2.74,2.74,0,0,0-.2-2A2.21,2.21,0,0,0,120.22,69.74Zm.92,2.65c-.1.46-7.34,30-8.51,34.73-.07.31-.13.61-.19.91-.25,1.31-.45,2.1-1.32,2.24l9.21-40a1.4,1.4,0,0,1,.65.45A2.25,2.25,0,0,1,121.14,72.39Z"></path><path fill="#fff" d="M119.83,69.89H64.64A1.68,1.68,0,0,0,63,71.15l-9.48,37.33,58,.07L121,71.36A1.18,1.18,0,0,0,119.83,69.89Z"></path><path fill="#000100" d="M119.83,69.65H64.64a1.91,1.91,0,0,0-1.85,1.44l-9.48,37.33a.2.2,0,0,0,0,.2.21.21,0,0,0,.18.09l58,.07a.24.24,0,0,0,.23-.17l9.44-37.19A1.44,1.44,0,0,0,121,70.2,1.41,1.41,0,0,0,119.83,69.65Zm.92,1.65-9.39,37-57.53-.06,9.41-37a1.44,1.44,0,0,1,1.4-1.09h55.19a1,1,0,0,1,.92,1.18Z"></path><polygon fill="#002938" points="55.52 105.35 111.22 105.35 119.76 71.73 64.06 71.73 55.52 105.35"></polygon><path fill="#000100" d="M119.76 71.5H64.06a.23.23 0 00-.23.18l-8.54 33.61a.24.24 0 000 .2.25.25 0 00.19.09h55.7a.23.23 0 00.23-.18L120 71.79a.24.24 0 000-.2A.21.21 0 00119.76 71.5zM111 105.11H55.82L64.24 72h55.22zM111.17 108.48l-57.49.84a.76.76 0 00-.39.1L38.12 121c-.68.39-.62 2.55.62 2.55H95.47a2.92 2.92 0 001.9-.68l14.38-12.49C112.58 109.35 112.21 108.48 111.17 108.48z"></path><path fill="#000100" d="M111.17,108.25l-57.49.83a1.07,1.07,0,0,0-.53.15L38,120.76c-.53.3-.65,1.23-.47,1.92a1.27,1.27,0,0,0,1.21,1.07H95.47a3.22,3.22,0,0,0,2.06-.74l14.4-12.52a1.54,1.54,0,0,0,.41-1.62A1.19,1.19,0,0,0,111.17,108.25Zm.43,1.92-14.39,12.5a2.77,2.77,0,0,1-1.74.61H38.74a.84.84,0,0,1-.76-.72,1.41,1.41,0,0,1,.28-1.41l15.15-11.53a.5.5,0,0,1,.27-.07l57.49-.84a.78.78,0,0,1,.75.35A1.16,1.16,0,0,1,111.6,110.17Z"></path><path fill="#fff" d="M53.25,108.47l-14.9,12.29a.77.77,0,0,0,.39,1.44l57.15.06,15.65-13.78-57.9-.11A.76.76,0,0,0,53.25,108.47Z"></path><path fill="#000100" d="M111.54,108.25l-57.91-.12a1,1,0,0,0-.53.16L38.24,120.55a1,1,0,0,0,.5,1.88l57.15.06a.22.22,0,0,0,.15-.06l15.66-13.77a.23.23,0,0,0,.06-.26A.23.23,0,0,0,111.54,108.25ZM95.8,122,38.74,122a.51.51,0,0,1-.52-.4.54.54,0,0,1,.28-.62l14.86-12.27a.68.68,0,0,1,.27-.07l57.29.11Z"></path><path fill="#fff" d="M80.5,117H63.65a.52.52,0,0,0-.32.11l-4,3.32a.5.5,0,0,0,.31.89H76.73a.51.51,0,0,0,.33-.13l3.77-3.32A.5.5,0,0,0,80.5,117Z"></path><path fill="#000100" d="M80.5 116.77H63.65a.78.78 0 00-.47.16l-4 3.32a.75.75 0 00-.23.82.73.73 0 00.69.48H76.73a.74.74 0 00.49-.18L81 118.05a.73.73 0 00-.49-1.28zm.18.93L76.91 121a.28.28 0 01-.18.06H59.62a.27.27 0 01-.25-.17.28.28 0 01.08-.3l4-3.31a.24.24 0 01.17-.07H80.5a.26.26 0 01.25.18A.24.24 0 0180.68 117.7zM96.82 115.44a.11.11 0 00-.08 0l-1 .74a.11.11 0 000 .2h2.83a.24.24 0 00.12 0l1.1-.8s.06-.1 0-.1zM94.9 114.25l-.08 0-1 .74c-.1.07-.07.2 0 .2h6.42a.19.19 0 00.12 0l1.12-.81s0-.1 0-.1zM98 113a.11.11 0 00-.08 0l-1 .74c-.1.07-.07.2 0 .2h4.9a.21.21 0 00.12 0l1.11-.82s.06-.09 0-.09zM93.19 115.44a.13.13 0 00-.08 0l-1 .74a.11.11 0 000 .2H95a.21.21 0 00.12 0l1.1-.8s.05-.1 0-.1zM101.49 111.83l-.08 0-1 .74c-.1.07-.07.21 0 .21h2.85a.21.21 0 00.12 0l1.12-.81s.06-.1 0-.1zM97.84 111.83l-.08 0-1 .74a.11.11 0 000 .21h2.84a.24.24 0 00.13 0l1.11-.81c.05 0 .06-.1 0-.1zM102.92 110.62l-.08 0-1 .74c-.09.07-.07.21 0 .21h2.86a.21.21 0 00.12 0l1.13-.82s0-.1 0-.1zM102.64 109.86l0 0-.54.39s0 .11 0 .11h4.35l.07 0 .59-.44s0 0 0 0zM97.77 109.86a.05.05 0 000 0l-.54.39s0 .11 0 .11h4.35l.07 0 .59-.44s0 0 0 0zM92.9 109.86a.05.05 0 000 0l-.54.39a.06.06 0 000 .11H96.7l.06 0 .59-.44s0 0 0 0zM88 109.86l0 0-.53.39s0 .11 0 .11h4.35l.07 0 .58-.44s0 0 0 0zM83.16 109.86a.05.05 0 000 0l-.53.39a.06.06 0 000 .11H87l.06 0 .58-.44s0 0 0 0zM78.29 109.86a.05.05 0 000 0l-.53.39s0 .11 0 .11H82.1l.07 0 .57-.44s0 0 0 0zM73.42 109.86l0 0-.52.39a.06.06 0 000 .11h4.35l.06 0 .57-.44s0 0 0 0zM68.55 109.86a.05.05 0 000 0l-.52.39a.06.06 0 000 .11h4.35l.06 0 .57-.44s0 0 0 0zM63.68 109.86a.05.05 0 000 0l-.52.39a.06.06 0 000 .11H67.5l.07 0 .56-.44s0 0 0 0zM58.81 109.86a.05.05 0 000 0l-.51.39a.06.06 0 000 .11h4.35l.06 0 .56-.44s0 0 0 0zM55 109.86l0 0-.51.39a.06.06 0 000 .11h3.31l.07 0 .55-.44s0 0 0 0zM99.27 110.62a.11.11 0 00-.08 0l-1 .74c-.1.07-.07.21 0 .21h2.86a.21.21 0 00.12 0l1.12-.82s0-.1 0-.1zM89.56 115.44a.11.11 0 00-.07 0l-1 .74a.11.11 0 00.05.2h2.83a.21.21 0 00.12 0l1.09-.8s.06-.1 0-.1zM85.94 115.44a.11.11 0 00-.08 0l-1 .74a.11.11 0 000 .2h2.83a.21.21 0 00.12 0l1.09-.8s.05-.1 0-.1zM91.23 114.25l-.08 0-1 .74c-.1.07-.07.2 0 .2H93a.19.19 0 00.12 0l1.1-.81s0-.1 0-.1zM87.59 114.25l-.08 0-1 .74c-.09.07-.06.2 0 .2H89.4a.19.19 0 00.12 0l1.1-.81s0-.1 0-.1zM84 114.25l-.08 0-1 .74c-.09.07-.06.2 0 .2h2.83a.24.24 0 00.13 0l1.09-.81s.05-.1 0-.1zM80.32 114.25l-.08 0-1 .74c-.09.07-.06.2 0 .2h2.84a.21.21 0 00.12 0l1.08-.81s.05-.1 0-.1zM76.6 114.25l-.08 0-1 .74a.11.11 0 00.06.2h2.83a.19.19 0 00.12 0l1.08-.81s.05-.1 0-.1zM73 114.25l-.08 0-1 .74c-.09.07-.06.2 0 .2H74.8a.17.17 0 00.12 0l1.08-.81s0-.1 0-.1zM69.33 114.25l-.07 0-1 .74c-.09.07-.06.2 0 .2h2.84a.19.19 0 00.12 0l1.07-.81s0-.1 0-.1zM65.7 114.25l-.08 0-1 .74a.11.11 0 000 .2h2.84a.19.19 0 00.12 0l1.06-.81s0-.1 0-.1zM62 114.25l-.08 0-1 .74a.11.11 0 00.06.2h2.84a.17.17 0 00.11 0l1.06-.81s0-.1 0-.1zM58.35 114.25l-.08 0-1 .74a.11.11 0 00.06.2h2.84a.19.19 0 00.12 0l1.05-.81s0-.1 0-.1zM90.52 113a.13.13 0 00-.08 0l-1 .74c-.09.07-.06.2 0 .2h2.84a.19.19 0 00.12 0l1.11-.82s0-.09 0-.09zM94.28 113l-.08 0-1 .74c-.1.07-.07.2 0 .2h2.85a.21.21 0 00.12 0l1.11-.82s.05-.09 0-.09zM86.88 113a.13.13 0 00-.08 0l-1 .74c-.1.07-.07.2 0 .2H88.7a.21.21 0 00.12 0l1.09-.82s.06-.09 0-.09zM83.24 113a.11.11 0 00-.08 0l-1 .74c-.09.07-.06.2 0 .2h2.84a.19.19 0 00.12 0l1.09-.82s0-.09 0-.09zM79.6 113a.11.11 0 00-.08 0l-1 .74c-.09.07-.06.2 0 .2h2.84a.17.17 0 00.12 0l1.09-.82s.05-.09 0-.09zM75.87 113a.11.11 0 00-.08 0l-1 .74c-.09.07-.06.2 0 .2H77.7a.19.19 0 00.12 0l1.08-.82s0-.09 0-.09zM72.23 113a.11.11 0 00-.08 0l-1 .74a.11.11 0 00.06.2h2.84a.19.19 0 00.12 0l1.07-.82s0-.09 0-.09zM68.58 113l-.08 0-1 .74a.11.11 0 00.06.2h2.84a.19.19 0 00.12 0l1.07-.82s0-.09 0-.09zM64.94 113a.13.13 0 00-.08 0l-1 .74c-.09.07-.06.2.05.2h2.84a.22.22 0 00.13 0l1.06-.82s0-.09 0-.09zM61.21 113a.13.13 0 00-.08 0l-1 .74a.11.11 0 00.06.2h2.84a.17.17 0 00.12 0l1.06-.82s0-.09 0-.09zM57.57 113a.13.13 0 00-.08 0l-1 .74a.11.11 0 00.06.2h2.84a.19.19 0 00.12 0l1-.82s0-.09 0-.09zM94 111.83a.11.11 0 00-.08 0l-1 .74a.11.11 0 000 .21h2.84a.27.27 0 00.13 0l1.11-.81s.05-.1 0-.1zM90.38 111.83a.11.11 0 00-.08 0l-1 .74a.11.11 0 000 .21h2.85a.21.21 0 00.12 0l1.11-.81s0-.1 0-.1zM86.73 111.83a.11.11 0 00-.08 0l-1 .74a.11.11 0 000 .21h2.84a.24.24 0 00.13 0l1.1-.81s0-.1 0-.1zM83.08 111.83a.16.16 0 00-.09 0l-1 .74a.11.11 0 000 .21H84.9a.21.21 0 00.12 0l1.1-.81s0-.1 0-.1zM79.34 111.83a.11.11 0 00-.08 0l-1 .74a.11.11 0 000 .21h2.85a.21.21 0 00.12 0l1.09-.81s.05-.1 0-.1zM75.69 111.83a.11.11 0 00-.08 0l-1 .74a.11.11 0 00.05.21h2.85a.21.21 0 00.12 0l1.08-.81s0-.1 0-.1zM72 111.83a.11.11 0 00-.08 0l-1 .74a.11.11 0 00.06.21h2.84a.21.21 0 00.12 0l1.08-.81s0-.1 0-.1zM68.39 111.83a.11.11 0 00-.08 0l-1 .74a.11.11 0 000 .21h2.85a.21.21 0 00.12 0l1.07-.81s0-.1 0-.1zM64.65 111.83a.13.13 0 00-.08 0l-1 .74a.11.11 0 000 .21h2.85a.21.21 0 00.12 0L67.7 112s0-.1 0-.1zM61 111.83a.13.13 0 00-.08 0l-1 .74a.11.11 0 00.06.21h2.85a.21.21 0 00.12 0l1.06-.81s0-.1 0-.1zM95.47 110.62a.13.13 0 00-.08 0l-1 .74a.11.11 0 00.05.21h2.85a.21.21 0 00.12 0l1.12-.82s0-.1 0-.1zM91.81 110.62l-.08 0-1 .74c-.1.07-.07.21 0 .21h2.86a.21.21 0 00.12 0l1.11-.82s0-.1 0-.1zM88.16 110.62a.11.11 0 00-.08 0l-1 .74a.11.11 0 00.05.21H90a.24.24 0 00.12 0l1.1-.82s0-.1 0-.1zM84.5 110.62a.11.11 0 00-.08 0l-1 .74a.11.11 0 000 .21h2.85a.24.24 0 00.13 0l1.09-.82s.06-.1 0-.1zM80.75 110.62a.13.13 0 00-.08 0l-1 .74a.11.11 0 000 .21h2.86a.24.24 0 00.12 0l1.09-.82s0-.1 0-.1zM77.09 110.62l-.08 0-1 .74a.11.11 0 000 .21h2.85a.24.24 0 00.13 0l1.08-.82s0-.1 0-.1zM73.43 110.62a.11.11 0 00-.07 0l-1 .74a.11.11 0 00.06.21h2.85a.21.21 0 00.12 0l1.09-.82s0-.1 0-.1zM69.78 110.62a.11.11 0 00-.08 0l-1 .74a.11.11 0 00.06.21h2.85a.21.21 0 00.12 0l1.08-.82s0-.1 0-.1zM66 110.62a.13.13 0 00-.08 0l-1 .74a.11.11 0 00.06.21h2.85a.21.21 0 00.12 0l1.07-.82s0-.1 0-.1zM62.37 110.62l-.08 0-1 .74a.11.11 0 00.06.21h2.85a.21.21 0 00.12 0l1.06-.82s0-.1 0-.1zM49.65 114.25l-.08 0-.94.74a.11.11 0 00.06.2h7.87a.19.19 0 00.12 0l1-.81s0-.1 0-.1zM52.65 111.83a.11.11 0 00-.07 0l-1 .74a.12.12 0 00.07.21h7.65a.21.21 0 00.12 0l1-.81s.05-.1 0-.1zM54.09 110.62l-.08 0-.95.74a.11.11 0 00.06.21h7.41a.21.21 0 00.12 0l1.06-.82s0-.1 0-.1zM51.17 113a.13.13 0 00-.08 0l-.94.74a.11.11 0 00.06.2h5.58a.19.19 0 00.12 0l1.05-.82s0-.09 0-.09zM59.36 115.44a.11.11 0 00-.08 0l-1 .74a.11.11 0 00.06.2h2.83a.18.18 0 00.11 0l1.06-.8s0-.1 0-.1zM55.73 115.44a.11.11 0 00-.07 0l-.95.74a.11.11 0 00.06.2H57.6a.18.18 0 00.11 0l1-.8s.05-.1 0-.1zM52.11 115.44a.11.11 0 00-.08 0l-.94.74a.11.11 0 00.06.2H54a.18.18 0 00.11 0l1-.8s0-.1 0-.1zM48.23 115.44a.11.11 0 00-.08 0l-.94.74a.11.11 0 00.06.2h3.09a.18.18 0 00.11 0l1-.8s0-.1 0-.1zM63.11 115.44a.11.11 0 00-.07 0l-1 .74a.11.11 0 00.05.2h22a.24.24 0 00.12 0l1.08-.8s0-.1 0-.1z"></path><path fill="#fff" d="M99.71,78.78H79.89a3.32,3.32,0,0,0-3.22,2.51L72.67,97a3.33,3.33,0,0,0,3.23,4.14H95.71a3.32,3.32,0,0,0,3.22-2.51l4-15.71A3.33,3.33,0,0,0,99.71,78.78Z"></path><path fill="#000100" d="M99.71,78.55H79.89a3.55,3.55,0,0,0-3.45,2.68L72.45,97a3.55,3.55,0,0,0,3.45,4.43H95.71a3.55,3.55,0,0,0,3.45-2.68l4-15.72a3.55,3.55,0,0,0-3.44-4.43Zm3,4.32-4,15.71a3.08,3.08,0,0,1-3,2.33H75.9a3.09,3.09,0,0,1-3-3.85l4-15.71a3.08,3.08,0,0,1,3-2.33H99.71a3.09,3.09,0,0,1,3,3.85Z"></path><path fill="#ff4700" d="M92.14,89.87l-6-4.6a.72.72,0,0,0-1.13.39l-2.09,8.23a.71.71,0,0,0,1,.83L92,91.09A.71.71,0,0,0,92.14,89.87Z"></path><path fill="#000100" d="M92.28,89.69l-6-4.61a1,1,0,0,0-1.49.52l-2.1,8.23A1,1,0,0,0,83.56,95a.92.92,0,0,0,.39-.09l8.14-3.62a1,1,0,0,0,.19-1.62Zm-.38,1.19-8.14,3.63a.49.49,0,0,1-.58-.15A.46.46,0,0,1,83.1,94l2.09-8.23a.47.47,0,0,1,.47-.37.48.48,0,0,1,.28.1l6,4.61a.47.47,0,0,1,.19.44A.48.48,0,0,1,91.9,90.88Z"></path><path fill="#fff" d="M62.81,100.23l1.41.4-1.13,1.14a0,0,0,0,0,0,.08l.42.42a.06.06,0,0,0,.08,0l1.14-1.14.46,1.48a.05.05,0,0,0,.09,0l.9-3.34-3.34.89A.06.06,0,0,0,62.81,100.23Z"></path><path fill="#000100" d="M66.12,99l-3.34.9a.28.28,0,0,0-.21.2.27.27,0,0,0,.08.28.26.26,0,0,0,.1.07l1,.29-.86.85a.3.3,0,0,0,0,.41l.42.43a.32.32,0,0,0,.21.08.42.42,0,0,0,.21-.08l.86-.87.34,1.1a.21.21,0,0,0,.06.1.37.37,0,0,0,.21.09.3.3,0,0,0,.28-.22l.9-3.34a.25.25,0,0,0-.07-.23A.22.22,0,0,0,66.12,99Zm-.9,2.91-.27-.86a.24.24,0,0,0-.17-.15.23.23,0,0,0-.22.06l-1,1-.18-.17,1-1a.22.22,0,0,0,.06-.22.25.25,0,0,0-.16-.17l-.76-.21,2.32-.62Z"></path><path fill="#ffbc3a" d="M74.6,73.85H54.85a1.27,1.27,0,0,0-1.23,1L51.55,83A1.27,1.27,0,0,0,51.78,84a1.24,1.24,0,0,0,1,.49H72.53a1.26,1.26,0,0,0,1.23-1l2.07-8.15a1.27,1.27,0,0,0-1.23-1.58Z"></path><path fill="#000100" d="M74.6,73.62H54.85a1.49,1.49,0,0,0-1.45,1.13L51.33,82.9a1.5,1.5,0,0,0,1.45,1.87H72.53A1.49,1.49,0,0,0,74,83.64l2.08-8.15a1.54,1.54,0,0,0-.27-1.3A1.52,1.52,0,0,0,74.6,73.62Zm1,1.75-2.07,8.15a1,1,0,0,1-1,.78H52.78a1,1,0,0,1-.81-.4,1,1,0,0,1-.19-.89l2.07-8.15a1,1,0,0,1,1-.78H74.6a1,1,0,0,1,1,1.29Z"></path><rect width="17.66" height=".32" x="55.82" y="75.52"></rect><rect width="17.66" height=".32" x="55.33" y="77.28"></rect><rect width="17.66" height=".32" x="54.84" y="79.03"></rect><rect width="5.97" height=".32" x="54.35" y="80.79"></rect><rect width="9.71" height=".32" x="62.12" y="80.79"></rect><rect width="17.66" height=".32" x="53.86" y="82.54"></rect><path fill="#fff" d="M97.16,43.38H68.83a1.59,1.59,0,0,0-1.48,1.18L63,62.42a1.07,1.07,0,0,0,.17.91,1,1,0,0,0,.79.36H92.28a1.61,1.61,0,0,0,1.48-1.19l4.36-17.86a1,1,0,0,0-.17-.9A1,1,0,0,0,97.16,43.38Z"></path><path fill="#000100" d="M97.16,43.14H68.83a1.84,1.84,0,0,0-1.71,1.37L62.75,62.37a1.31,1.31,0,0,0,.21,1.1,1.22,1.22,0,0,0,1,.45H92.28A1.82,1.82,0,0,0,94,62.56L98.35,44.7a1.3,1.3,0,0,0-.21-1.11A1.22,1.22,0,0,0,97.16,43.14Zm.73,1.45L93.53,62.45a1.36,1.36,0,0,1-1.25,1H63.94a.76.76,0,0,1-.61-.28.8.8,0,0,1-.12-.7l4.36-17.86a1.37,1.37,0,0,1,1.26-1H97.16a.78.78,0,0,1,.61.27A.79.79,0,0,1,97.89,44.59Z"></path><path fill="#000100" d="M97.16,43.38H68.83a1.59,1.59,0,0,0-1.48,1.18L67,46.18H97.74l.38-1.54a1,1,0,0,0-.17-.9A1,1,0,0,0,97.16,43.38Z"></path><path fill="#000100" d="M97.16,43.14H68.83a1.84,1.84,0,0,0-1.71,1.37l-.46,1.9H97.93l.42-1.71a1.28,1.28,0,0,0-.21-1.1A1.2,1.2,0,0,0,97.16,43.14Zm.73,1.45-.33,1.35H67.25l.32-1.32a1.37,1.37,0,0,1,1.26-1H97.16a.78.78,0,0,1,.61.27A.79.79,0,0,1,97.89,44.59Z"></path><path fill="#fff" d="M69.63 44.6a.7.7 0 00-.64.51.39.39 0 00.39.51.69.69 0 00.64-.51A.39.39 0 0069.63 44.6zM72 44.6a.69.69 0 00-.64.51.39.39 0 00.39.51.7.7 0 00.64-.51A.39.39 0 0072 44.6zM74.26 44.6a.7.7 0 00-.64.51.39.39 0 00.39.51.69.69 0 00.64-.51A.39.39 0 0074.26 44.6z"></path><path fill="#002938" d="M71.62,57a2,2,0,0,0-1.85,1.49L69,61.83h3l.8-3.3A1.13,1.13,0,0,0,71.62,57Z"></path><path fill="#000100" d="M71.62,56.81a2.23,2.23,0,0,0-2.08,1.67l-.8,3.29a.21.21,0,0,0,0,.2.21.21,0,0,0,.18.09h3a.22.22,0,0,0,.22-.18L73,58.59a1.47,1.47,0,0,0-.24-1.27A1.35,1.35,0,0,0,71.62,56.81Zm.89,1.67-.76,3.11H69.26l.73-3a1.78,1.78,0,0,1,1.63-1.31,1,1,0,0,1,.75.33A1,1,0,0,1,72.51,58.48Z"></path><path fill="#ffbc3a" d="M77.86,53.48A2,2,0,0,0,76,55l-1.68,6.86h3L79,55A1.13,1.13,0,0,0,77.86,53.48Z"></path><path fill="#000100" d="M77.86,53.25a2.24,2.24,0,0,0-2.08,1.66l-1.67,6.86a.21.21,0,0,0,0,.2.21.21,0,0,0,.18.09h3a.23.23,0,0,0,.23-.18L79.21,55A1.45,1.45,0,0,0,79,53.76,1.39,1.39,0,0,0,77.86,53.25Zm.89,1.66-1.63,6.68H74.63L76.24,55a1.77,1.77,0,0,1,1.62-1.31,1,1,0,0,1,.75.33A1,1,0,0,1,78.75,54.91Z"></path><path fill="#00685a" d="M83.87,50.85A2,2,0,0,0,82,52.34L79.7,61.83h3L85,52.34A1.13,1.13,0,0,0,83.87,50.85Z"></path><path fill="#000100" d="M83.87,50.62a2.27,2.27,0,0,0-2.08,1.66l-2.31,9.49a.21.21,0,0,0,0,.2.21.21,0,0,0,.18.09h3a.23.23,0,0,0,.23-.18l2.32-9.49A1.45,1.45,0,0,0,85,51.13,1.39,1.39,0,0,0,83.87,50.62Zm.9,1.66-2.28,9.31H80l2.25-9.2a1.77,1.77,0,0,1,1.62-1.31.91.91,0,0,1,.75.34A1,1,0,0,1,84.77,52.28Z"></path><path fill="#ff4700" d="M90,47.76a2,2,0,0,0-1.85,1.49L85.07,61.83h3l3.08-12.58A1.13,1.13,0,0,0,90,47.76Z"></path><path fill="#000100" d="M90,47.53a2.26,2.26,0,0,0-2.07,1.67L84.84,61.77a.24.24,0,0,0,0,.2.21.21,0,0,0,.18.09h3a.23.23,0,0,0,.23-.18l3.07-12.57A1.43,1.43,0,0,0,91.11,48,1.37,1.37,0,0,0,90,47.53Zm.9,1.67-3,12.39H85.37l3-12.28A1.79,1.79,0,0,1,90,48a.92.92,0,0,1,.75.33A1,1,0,0,1,90.89,49.2Z"></path><path fill="url(#c)" d="M57.41,122.15s1.16,0,1.56-.69c0,0,3,.91,2.87-.74s-4.68-1.94-4.68-1.94a12.68,12.68,0,0,0-1.2-.51,5,5,0,0,0-2.42.41c-1.13.48-3,1.47-3,1.47s1-1.17.89-1.84-1.24-.88-2.24,0-2,.87-2.61,2.42a36.81,36.81,0,0,0-1,4.06c-.31,1,.92,1.47,3.69,4.86s6.72.89,12.55.33c6.31-.59,10.73-6.45,10.73-6.45H64.37C60.11,123.55,58.52,124.22,57.41,122.15Z"></path><path fill="#000100" d="M61.89,123.38c-2.18.09-3.29.17-4.09-1a2.08,2.08,0,0,0,1.27-.62,5.86,5.86,0,0,0,1.47.21,1.69,1.69,0,0,0,1.26-.4,1.11,1.11,0,0,0,.28-.83c-.08-1.66-4.2-2.1-4.85-2.16A10.54,10.54,0,0,0,56,118a2,2,0,0,0-.4,0,5.67,5.67,0,0,0-2.16.45c-.65.28-1.52.71-2.16,1a2.14,2.14,0,0,0,.37-1.23,1,1,0,0,0-1.09-.77,2.37,2.37,0,0,0-1.54.66,5.33,5.33,0,0,1-1,.66,3.34,3.34,0,0,0-1.71,1.85,17.13,17.13,0,0,0-.74,2.79,13.07,13.07,0,0,1-.29,1.28c-.22.75.24,1.24,1.26,2.3.6.63,1.43,1.49,2.48,2.78a4.76,4.76,0,0,0,4,1.83h0a20.81,20.81,0,0,0,4.13-.62,38.49,38.49,0,0,1,4.66-.79c6.33-.6,10.84-6.49,10.88-6.55l.29-.37H64.37C63.42,123.32,62.61,123.35,61.89,123.38Zm-.11,6.39a41.42,41.42,0,0,0-4.71.8,20.16,20.16,0,0,1-4,.61h0a4.3,4.3,0,0,1-3.61-1.65c-1.06-1.3-1.9-2.18-2.51-2.82-1-1-1.28-1.37-1.14-1.84s.2-.84.3-1.32a15.68,15.68,0,0,1,.72-2.71,2.85,2.85,0,0,1,1.5-1.61,6.11,6.11,0,0,0,1-.72,1.94,1.94,0,0,1,1.23-.55c.35,0,.59.15.63.38a3.17,3.17,0,0,1-.84,1.66l-.77.92,1.06-.56s1.87-1,3-1.47a5.34,5.34,0,0,1,2-.41,1.62,1.62,0,0,1,.3,0,10.27,10.27,0,0,1,1.15.49l.08,0c1.71.15,4.42.74,4.47,1.72a.61.61,0,0,1-.15.48,1.23,1.23,0,0,1-.92.27,6.06,6.06,0,0,1-1.5-.24l-.18,0-.09.16c-.33.55-1.35.57-1.36.57H57l.18.34c.74,1.37,1.71,1.63,3.25,1.63.43,0,.91,0,1.46,0,.71,0,1.52-.07,2.46-.07H72C70.94,125.07,67,129.28,61.78,129.77Z"></path><path fill="#0e0e27" d="M50.53 119.86c-.5.44-1.78 1.44-1.79 1.45l-.1.08v.12a6.88 6.88 0 01-.36 2.92l-.09.2.2.1A2.72 2.72 0 0149.74 126a.23.23 0 00.22.15H50a.24.24 0 00.14-.3 3 3 0 00-1.38-1.4 7.85 7.85 0 00.32-2.81c.31-.24 1.28-1 1.72-1.39a.25.25 0 000-.33A.24.24 0 0050.53 119.86zM57.09 118.56a8.13 8.13 0 00-2.36 1.18c-.59.63-.63 2.38-.51 3.33a13.74 13.74 0 00.69 2.66.24.24 0 00.22.15l.08 0a.24.24 0 00.14-.3 13 13 0 01-.67-2.54 4.81 4.81 0 01.39-3A7.84 7.84 0 0157.24 119a.24.24 0 00.15-.3A.24.24 0 0057.09 118.56z"></path><path fill="#0e0e27" d="M50.1 120.76a.23.23 0 10-.45-.11 16 16 0 00.46 6.5.25.25 0 00.23.17h.06a.23.23 0 00.16-.29A15.83 15.83 0 0150.1 120.76zM56.61 118.48c-.17 0-4.1.76-4.76 2.63s-.13 5.12-.1 5.26a.22.22 0 00.23.2h0a.24.24 0 00.2-.27s-.52-3.34.08-5 4.37-2.32 4.4-2.33a.22.22 0 00.19-.27A.24.24 0 0056.61 118.48z"></path></svg>