<svg xmlns="http://www.w3.org/2000/svg" xmlns:xlink="http://www.w3.org/1999/xlink" viewBox="0 0 200 150" id="businessman-doing-online-meeting"><defs><linearGradient id="a" x1="78.26" x2="73.33" y1="60.11" y2="56.51" gradientUnits="userSpaceOnUse"><stop offset="0" stop-color="#ff767d"></stop><stop offset=".38" stop-color="#ff918b"></stop><stop offset=".75" stop-color="#ffa595"></stop><stop offset="1" stop-color="#ffac99"></stop></linearGradient><linearGradient id="b" x1="96.88" x2="102.29" y1="120.25" y2="119.68" xlink:href="#a"></linearGradient></defs><g data-name="Layer 1"><path fill="#002938" d="M136.31,24.33l-36.62,0C88.76,24.76,80.27,34.09,80.27,45v26C80.27,90.72,86,104,88.06,108c.5,1,1.19.8,1.19.8h30.09a42.43,42.43,0,0,1-.49,7.77s25.72.08,36.05.15V45.14c0-1.24,0-2,0-2C154.86,27.75,136.31,24.33,136.31,24.33Z"></path><path fill="#000100" d="M136.31,24.1H99.68C88.85,24.52,80,33.91,80,45v26c0,20.9,6.52,34.52,7.82,37,.59,1.13,1.42.93,1.41.92h29.85a43.07,43.07,0,0,1-.49,7.49.21.21,0,0,0,0,.19.23.23,0,0,0,.18.09c.26,0,25.84.09,36.06.15h0a.24.24,0,0,0,.23-.23V45.14c0-1.24,0-2,0-2C155.09,27.74,136.54,24.14,136.31,24.1Zm18.35,92.37c-9.77-.06-32.73-.14-35.53-.14a47.48,47.48,0,0,0,.45-7.54.24.24,0,0,0-.24-.24H89.12c-.18,0-.54-.08-.85-.68-1.3-2.5-7.77-16-7.77-36.82V45c0-10.87,8.61-20,19.2-20.45l36.56,0c.19,0,18.36,3.57,18.36,18.56,0,.05,0,.78,0,2Z"></path><rect width="33.33" height=".31" x="120" y="98" fill="#00685a"></rect><path fill="#d2d9d7" d="M135.65,24.34c-10.86.24-19.74,9.73-19.74,20.6V71.06c0,19.17,5.5,32.36,7.64,36.77a1.59,1.59,0,0,0,1.44.9h.61a1.35,1.35,0,0,0,.55-1.77c-1.86-3.8-7.52-17-7.52-35.9V44.54a17.52,17.52,0,0,1,18-17.49,17.74,17.74,0,0,1,17,17.88v70.38a1.36,1.36,0,1,0,2.72,0V44.54A20.22,20.22,0,0,0,135.65,24.34Z"></path><path fill="#000100" d="M135.64,24.1c-10.82.25-20,9.79-20,20.84V71.06c0,19,5.35,32.13,7.66,36.88a1.85,1.85,0,0,0,1.65,1h.61a.21.21,0,0,0,.11,0,1.58,1.58,0,0,0,.65-2.07c-1.76-3.61-7.5-16.84-7.5-35.8V44.54a17.26,17.26,0,0,1,17.75-17.25,17.58,17.58,0,0,1,16.76,17.64v70.38a1.59,1.59,0,1,0,3.18,0V44.54A20.47,20.47,0,0,0,135.64,24.1Zm20.44,91.21a1.12,1.12,0,1,1-2.24,0V44.93a18,18,0,0,0-17.21-18.11h-.52a17.74,17.74,0,0,0-17.72,17.73V71.06c0,19.06,5.78,32.37,7.55,36a1.13,1.13,0,0,1-.41,1.44H125a1.35,1.35,0,0,1-1.23-.77c-2.29-4.72-7.62-17.73-7.62-36.67V44.94c0-10.8,8.94-20.13,19.51-20.37a20,20,0,0,1,20.43,20Z"></path><rect width="34.48" height=".31" x="118.85" y="43.96" fill="#00685a"></rect><rect width="34.48" height=".31" x="118.85" y="61.98" fill="#00685a"></rect><rect width="33.8" height=".31" x="119.53" y="79.99" fill="#00685a"></rect><path d="M136.25,46.34c-5.35,0-9.7,4.75-9.7,10.6s4.35,10.59,9.7,10.59,9.7-4.74,9.7-10.59S141.61,46.34,136.25,46.34Z" style="mix-blend-mode:multiply" fill="#5b7895"></path><path fill="#00685a" d="M133.84,42.92c-5.36,0-9.7,4.74-9.7,10.59s4.34,10.59,9.7,10.59,9.69-4.74,9.69-10.59S139.19,42.92,133.84,42.92Z"></path><path fill="#000100" d="M133.84,42.68c-5.48,0-9.94,4.86-9.94,10.83s4.46,10.82,9.94,10.82,9.93-4.85,9.93-10.82S139.31,42.68,133.84,42.68Zm0,21.19c-5.22,0-9.47-4.65-9.47-10.36s4.25-10.36,9.47-10.36,9.46,4.65,9.46,10.36S139.06,63.87,133.84,63.87Z"></path><path fill="#d2d9d7" d="M133.84,44.47c-4.58,0-8.28,4-8.28,9s3.7,9,8.28,9,8.28-4,8.28-9S138.41,44.47,133.84,44.47Z"></path><path fill="#000100" d="M133.84,44.23c-4.7,0-8.52,4.16-8.52,9.28s3.82,9.27,8.52,9.27,8.51-4.16,8.51-9.27S138.53,44.23,133.84,44.23Zm0,18.09c-4.44,0-8-4-8-8.81s3.61-8.81,8-8.81,8,3.95,8,8.81S138.27,62.32,133.84,62.32Z"></path><path fill="#002938" d="M133.84,52.91a.6.6,0,0,0,0,1.2.6.6,0,0,0,0-1.2Z"></path><path fill="#000100" d="M133.84,52.67a.82.82,0,0,0-.79.84.79.79,0,1,0,.79-.84Zm0,1.21a.38.38,0,1,1,.31-.37A.35.35,0,0,1,133.84,53.88Z"></path><path fill="#000100" d="M135.29,50l-.44-.16-1.23,3.57a.21.21,0,0,0,0,.19l3.79,6.69.41-.23-3.74-6.59Z"></path><path d="M136.25,79.42c-5.35,0-9.7,4.74-9.7,10.59s4.35,10.59,9.7,10.59S146,95.86,146,90,141.61,79.42,136.25,79.42Z" style="mix-blend-mode:multiply" fill="#5b7895"></path><path fill="#00685a" d="M133.84,76c-5.36,0-9.7,4.74-9.7,10.59s4.34,10.59,9.7,10.59,9.69-4.74,9.69-10.59S139.19,76,133.84,76Z"></path><path fill="#000100" d="M133.84,75.76c-5.48,0-9.94,4.85-9.94,10.82s4.46,10.83,9.94,10.83,9.93-4.86,9.93-10.83S139.31,75.76,133.84,75.76Zm0,21.18c-5.22,0-9.47-4.65-9.47-10.36s4.25-10.36,9.47-10.36,9.46,4.65,9.46,10.36S139.06,96.94,133.84,96.94Z"></path><path fill="#d2d9d7" d="M133.84,77.54c-4.58,0-8.28,4-8.28,9s3.7,9,8.28,9,8.28-4,8.28-9S138.41,77.54,133.84,77.54Z"></path><path fill="#000100" d="M133.84,77.31c-4.7,0-8.52,4.16-8.52,9.27s3.82,9.28,8.52,9.28,8.51-4.16,8.51-9.28S138.53,77.31,133.84,77.31Zm0,18.08c-4.44,0-8-4-8-8.81s3.61-8.81,8-8.81,8,4,8,8.81S138.27,95.39,133.84,95.39Z"></path><path fill="#002938" d="M133.84,86a.6.6,0,0,0,0,1.2.6.6,0,0,0,0-1.2Z"></path><path fill="#000100" d="M133.84,85.75a.81.81,0,0,0-.79.83.79.79,0,1,0,1.57,0A.81.81,0,0,0,133.84,85.75Zm0,1.2a.38.38,0,1,1,.31-.37A.35.35,0,0,1,133.84,87Z"></path><path fill="#000100" d="M128.53,80.9l-.33.32,5.26,5.46-.3,3.65.46,0,.31-3.76a.23.23,0,0,0-.06-.18Z"></path><path fill="#00685a" d="M95.87 66H83.56a.24.24 0 00-.23.23v1.63a.23.23 0 00.23.24H95.87A.21.21 0 0096 68a.24.24 0 00.07-.16V66.19A.24.24 0 0095.87 66zM83.8 67.58V66.42H95.64v1.17zM102.19 66H97.75a.24.24 0 00-.23.24v1.63a.23.23 0 00.23.23h4.44a.24.24 0 00.23-.24V66.19A.23.23 0 00102.19 66zM98 67.59V66.42h4v1.17zM107.08 66h-3a.24.24 0 00-.24.23v1.63a.23.23 0 00.23.24h3a.28.28 0 00.17-.07.24.24 0 00.06-.17V66.19A.23.23 0 00107.08 66zm-2.78 1.63V66.42h2.55v1.16zM90.27 62.22H83.56a.24.24 0 00-.24.23v1.64a.23.23 0 00.23.23h6.71a.24.24 0 00.23-.23V62.46A.24.24 0 0090.27 62.22zm-6.48 1.63V62.69H90v1.17zM100.37 62.23H92.15a.24.24 0 00-.17.07.28.28 0 00-.07.17v1.63a.23.23 0 00.24.23h8.22a.24.24 0 00.16-.07.22.22 0 00.07-.17V62.46A.23.23 0 00100.37 62.23zm-8 1.63V62.69h7.75v1.16zM105.26 62.23h-3a.24.24 0 00-.24.23v1.63a.23.23 0 00.23.24h3a.24.24 0 00.24-.23V62.46A.23.23 0 00105.26 62.23zm-2.78 1.63V62.7H105v1.16zM109.92 62.23h-3a.2.2 0 00-.16.07.24.24 0 00-.07.16V64.1a.23.23 0 00.24.23h3a.24.24 0 00.23-.23V62.47A.23.23 0 00109.92 62.23zm-2.78 1.63V62.7h2.54v1.16z"></path><path fill="#fff" d="M90.38 58.49H83.55a.24.24 0 00-.16.07.22.22 0 00-.07.17v1.63a.23.23 0 00.24.23h6.83a.23.23 0 00.16-.06.23.23 0 00.07-.17V58.73A.24.24 0 0090.38 58.49zm-6.59 1.63V59h6.36v1.17zM95.36 58.5H93a.21.21 0 00-.23.23v1.63a.23.23 0 00.23.23h2.34a.24.24 0 00.16-.07.28.28 0 00.07-.17V58.73A.23.23 0 0095.36 58.5zm-2.1 1.63V59h1.87v1.17zM102.25 58.5H98a.23.23 0 00-.17.07.23.23 0 00-.06.16v1.63a.23.23 0 00.23.24h4.24a.28.28 0 00.17-.07.24.24 0 00.06-.17V58.73A.23.23 0 00102.25 58.5zm-4 1.63V59H102v1.16z"></path><path fill="#00685a" d="M102.3 104.13a.23.23 0 00-.22-.15H89.77a.23.23 0 00-.19.1.22.22 0 000 .22l.6 1.63a.23.23 0 00.22.15h12.31a.21.21 0 00.19-.1.2.2 0 000-.21zM90.53 105.6l-.43-1.16h11.82l.43 1.17zM108.61 104.13a.23.23 0 00-.21-.15H104a.22.22 0 00-.19.1.26.26 0 000 .21l.6 1.63a.25.25 0 00.22.16H109a.26.26 0 00.19-.1.29.29 0 000-.22zm-3.88 1.48l-.43-1.17h3.93l.43 1.16zM113.51 104.13a.24.24 0 00-.22-.15h-3a.26.26 0 00-.2.1.22.22 0 000 .21l.6 1.64a.23.23 0 00.22.15h3a.23.23 0 00.19-.1.22.22 0 000-.22zM111 105.61l-.43-1.16h2.52l.42 1.16zM95.32 100.4a.24.24 0 00-.22-.16H88.4a.26.26 0 00-.2.1.24.24 0 000 .22l.6 1.63a.23.23 0 00.22.15h6.7a.23.23 0 00.2-.1.22.22 0 000-.21zm-6.16 1.47l-.43-1.16h6.21l.43 1.17zM105.43 100.4a.25.25 0 00-.22-.15H97a.23.23 0 00-.19.1.22.22 0 000 .21l.6 1.63a.24.24 0 00.22.16h8.22a.26.26 0 00.19-.1.28.28 0 000-.22zm-7.68 1.48l-.43-1.17H105l.43 1.16zM110.32 100.4a.23.23 0 00-.22-.15h-3a.23.23 0 00-.19.1.22.22 0 000 .22l.6 1.63a.23.23 0 00.22.15h3a.23.23 0 00.19-.1.2.2 0 000-.21zm-2.47 1.48l-.43-1.16h2.52l.43 1.16zM115 100.41a.24.24 0 00-.22-.16h-3a.26.26 0 00-.19.1.24.24 0 000 .22l.6 1.63a.23.23 0 00.22.15h3a.21.21 0 00.19-.1.26.26 0 000-.21zm-2.47 1.47l-.43-1.16h2.51l.43 1.17zM92.1 96.67a.24.24 0 00-.22-.15H87a.23.23 0 00-.19.11.26.26 0 000 .21l.6 1.63a.25.25 0 00.22.15h4.86a.24.24 0 00.19-.1.29.29 0 000-.22zm-4.31 1.48L87.36 97h4.35l.43 1.17zM95.64 96.67a.25.25 0 00-.22-.15H93.76a.23.23 0 00-.2.1.22.22 0 000 .21l.6 1.63a.22.22 0 00.22.16H96a.26.26 0 00.19-.1.28.28 0 000-.22zm-1.12 1.48L94.09 97h1.16l.43 1.16zM100.53 96.67a.23.23 0 00-.22-.15h-3a.26.26 0 00-.2.1.22.22 0 000 .21l.6 1.64a.23.23 0 00.22.15h3a.23.23 0 00.19-.1.2.2 0 000-.21zm-2.47 1.48L97.63 97h2.52l.43 1.16z"></path><path fill="#fff" d="M95.38,32.69c-5.67,0-10.27,5-10.27,11.21s4.6,11.2,10.27,11.2,10.26-5,10.26-11.2S101.05,32.69,95.38,32.69Z"></path><path fill="#0e0e27" d="M95.38,32.46c-5.79,0-10.5,5.13-10.5,11.44s4.71,11.43,10.5,11.43,10.49-5.13,10.49-11.43S101.17,32.46,95.38,32.46Zm0,22.41c-5.53,0-10-4.92-10-11s4.5-11,10-11,10,4.93,10,11S100.91,54.87,95.38,54.87Z"></path><path fill="#000100" d="M95.38,35.73c-3.68,0-6.66,3.89-6.66,8.68a8.24,8.24,0,0,0,1.38,4.82h10.56A8.24,8.24,0,0,0,102,44.41C102,39.62,99.05,35.73,95.38,35.73Z"></path><path fill="#000100" d="M95.38,35.5c-3.8,0-6.89,4-6.89,8.91a8.65,8.65,0,0,0,1.41,5l.07.09h10.81l.07-.09a8.58,8.58,0,0,0,1.42-5C102.27,39.49,99.18,35.5,95.38,35.5ZM100.54,49H90.22A8.14,8.14,0,0,1,89,44.41C89,39.75,91.84,36,95.38,36s6.42,3.79,6.42,8.45A8.22,8.22,0,0,1,100.54,49Z"></path><path fill="#fff" d="M88.85,52.54a9.61,9.61,0,0,0,13.06,0,9.64,9.64,0,0,0-13.06,0Z"></path><path fill="#0e0e27" d="M95.38,49.75a10,10,0,0,0-6.69,2.62.23.23,0,0,0-.08.17.25.25,0,0,0,.08.18,9.87,9.87,0,0,0,13.37,0,.25.25,0,0,0,.08-.18.23.23,0,0,0-.08-.17A10,10,0,0,0,95.38,49.75Zm0,5.12a9.54,9.54,0,0,1-6.18-2.33,9.38,9.38,0,0,1,12.35,0A9.53,9.53,0,0,1,95.38,54.87Z"></path><path fill="#fff" d="M95.38,46.46A1.41,1.41,0,0,0,94,47.88v2.5a1.42,1.42,0,1,0,2.84,0v-2.5A1.42,1.42,0,0,0,95.38,46.46Z"></path><path fill="#0e0e27" d="M95.38,46.22a1.66,1.66,0,0,0-1.66,1.66v2.5a1.66,1.66,0,1,0,3.31,0v-2.5A1.65,1.65,0,0,0,95.38,46.22Zm1.19,4.16a1.19,1.19,0,0,1-2.38,0v-2.5a1.19,1.19,0,1,1,2.38,0Z"></path><path fill="#fff" d="M95.38,37.73c-2.38,0-3.81,2.51-3.81,5.6s1.43,4.84,3.81,4.84,3.81-1.74,3.81-4.84S97.75,37.73,95.38,37.73Z"></path><path fill="#0e0e27" d="M95.38,37.5c-2.38,0-4,2.4-4,5.83,0,3.18,1.51,5.08,4,5.08s4-1.9,4-5.08C99.42,39.9,97.76,37.5,95.38,37.5Zm0,10.44c-2.28,0-3.58-1.68-3.58-4.61,0-3.16,1.47-5.36,3.58-5.36S99,40.17,99,43.33C99,46.26,97.65,47.94,95.38,47.94Z"></path><path fill="#000100" d="M95.38,37.73A4.07,4.07,0,0,0,91.92,40h6.91A4.06,4.06,0,0,0,95.38,37.73Z"></path><path fill="#000100" d="M95.38,37.5a4.33,4.33,0,0,0-3.66,2.4l-.2.35h7.71L99,39.9A4.33,4.33,0,0,0,95.38,37.5Zm-3,2.28a3.46,3.46,0,0,1,6.08,0Z"></path><path d="M140,25.16a24.34,24.34,0,0,0-3-.81h-.4c-10.93.41-19.42,9.74-19.42,20.68v26c0,19.65,6,33.33,8.09,37.35.1.2-5.72.5-5.72.5l-.37,7.46,15.16.07-.14-7.66c-.25-.05-.79-.9-1.09-1.48-2.09-4-4.51-16.59-4.51-36.24V45C128.59,35.79,131.54,27.7,140,25.16Z" style="mix-blend-mode:multiply" fill="#5b7895"></path><path fill="url(#a)" d="M88.12,54.92c.53-1.5-.38-7.11-1.7-8.44S75.8,43.36,70.15,46s-4.42,11.92-4.42,11.92,1.24,4,.45,6.53A13.07,13.07,0,0,1,63.53,69l12,5.39,1.73-3.23s4.78,2.1,6.63.31a17.24,17.24,0,0,0,4.89-11.21C88.78,56.77,87.59,56.42,88.12,54.92Z"></path><path fill="#000100" d="M88.34,55c.54-1.53-.3-7.23-1.75-8.68-.91-.9-4.88-1.91-9.14-1.91a17.67,17.67,0,0,0-7.4,1.39c-5.74,2.69-4.6,11.77-4.54,12.2,0,0,1.21,3.93.44,6.39a12.67,12.67,0,0,1-2.59,4.42l-.23.23,12.5,5.63,1.74-3.24a12.73,12.73,0,0,0,4.28,1,3.31,3.31,0,0,0,2.4-.79,17.46,17.46,0,0,0,5-11.37,10.13,10.13,0,0,0-.56-3.51A2.29,2.29,0,0,1,88.34,55ZM83.73,71.27a2.93,2.93,0,0,1-2.08.66,12.81,12.81,0,0,1-4.29-1l-.2-.09-1.73,3.23L63.92,68.88a12.94,12.94,0,0,0,2.48-4.35C67.21,61.93,66,58,66,57.9s-1.15-9.13,4.28-11.68a17.23,17.23,0,0,1,7.2-1.34c4.3,0,8.08,1,8.8,1.77,1.3,1.3,2.14,6.83,1.65,8.19a2.79,2.79,0,0,0,.11,2,9.53,9.53,0,0,1,.54,3.37A16.93,16.93,0,0,1,83.73,71.27Z"></path><path fill="#000100" d="M87.81,44.52c-2.56-1.68-7.68-3.09-12.71-2.91s-8.7,2.73-9.76,5.64S64.72,61,64.81,63.73s3.14,2.3,5,2.88,4-1.67,6.41-3.76A3.1,3.1,0,1,1,80,58.14c0-1.28-.09-4.29,1-5a17.68,17.68,0,0,1,5.06-1.79l-4,2.81s7.43-1,8.75-3S90.37,46.2,87.81,44.52Z"></path><path fill="#000100" d="M87.94,44.32c-2.67-1.74-7.59-3-12-3h-.87c-5.5.19-9,3.05-10,5.8s-.7,12.4-.58,16l0,.55c.07,2.24,2,2.53,3.61,2.79a8.73,8.73,0,0,1,1.51.31,2.33,2.33,0,0,0,.7.11c1.58,0,3.28-1.54,5.09-3.17l.84-.76.25-.22-.29-.16a2.87,2.87,0,1,1,3.57-4.35l.4.48V57.68c0-1.32,0-3.77.93-4.29A16.21,16.21,0,0,1,85,51.89l-3.81,2.69,1-.14c.3,0,7.55-1.07,8.91-3.08A3,3,0,0,0,91.5,49,8.17,8.17,0,0,0,87.94,44.32Zm2.77,6.78c-1,1.42-5.55,2.36-7.6,2.72l4-2.83-1,.18A18,18,0,0,0,81,53c-1.1.64-1.14,3.07-1.15,4.59a3.33,3.33,0,1,0-4,5.3l-.61.55c-1.73,1.57-3.37,3.05-4.77,3.05a1.77,1.77,0,0,1-.56-.09,11,11,0,0,0-1.58-.32c-1.62-.25-3.15-.49-3.21-2.34l0-.56c-.11-3.25-.44-13.14.54-15.84s4.26-5.31,9.55-5.49H76c5,0,9.6,1.49,11.72,2.88A7.62,7.62,0,0,1,91,49.11,2.57,2.57,0,0,1,90.71,51.1Z"></path><path fill="#ffbc3a" d="M60.64,70.93a112.27,112.27,0,0,0-8.76,11c-6.37,9.14-8.2,27.65-8.2,43.59H86.81c1.14-8.38-2.48-19.76-3.08-29.74C82.83,80.66,73.15,72.4,60.64,70.93Z"></path><path fill="#000100" d="M84,95.78c-.84-14.08-9.55-23.46-23.3-25.08a.24.24,0,0,0-.21.07,115.46,115.46,0,0,0-8.77,11c-7.17,10.29-8.24,31.81-8.24,43.72a.23.23,0,0,0,.23.24H86.81a.24.24,0,0,0,.23-.2c.69-5.11-.34-11.16-1.43-17.58A115.59,115.59,0,0,1,84,95.78Zm2.63,29.53H43.92c0-11.9,1.1-33.11,8.15-43.22a111.8,111.8,0,0,1,8.66-10.92C74.17,72.81,82.68,82,83.5,95.81a115.86,115.86,0,0,0,1.65,12.27C86.22,114.37,87.23,120.32,86.6,125.31Z"></path><path fill="#ffbc3a" d="M67.9,67.3a8.33,8.33,0,0,0-4.26-.74l-3.22,4.36s7.41,1.52,11.19,3.61A54.91,54.91,0,0,1,79,79.62a41.06,41.06,0,0,0-1.83-5.91C76.5,72.64,70.69,68.37,67.9,67.3Z"></path><path fill="#000100" d="M68,67.08a10.56,10.56,0,0,0-3.71-.8,2.67,2.67,0,0,0-.69.06.2.2,0,0,0-.13.09l-3.22,4.35a.22.22,0,0,0,0,.22.23.23,0,0,0,.17.15c.07,0,7.43,1.53,11.13,3.59a53.92,53.92,0,0,1,7.34,5.06.27.27,0,0,0,.15,0,.24.24,0,0,0,.12,0,.25.25,0,0,0,.11-.26,40.1,40.1,0,0,0-1.86-6C76.68,72.48,70.78,68.15,68,67.08Zm3.75,7.25c-3.3-1.83-9.38-3.23-10.91-3.56l3-4a4.19,4.19,0,0,1,.5,0,10,10,0,0,1,3.55.77c2.82,1.08,8.56,5.38,9.14,6.31A33,33,0,0,1,78.6,79,54.65,54.65,0,0,0,71.73,74.33Z"></path><path fill="#fff" d="M119.38,117.81c-4.75,0-8.6,2.6-8.6,5.79,0,.28,0,1.8.1,2.07H131C131.05,125.4,125.71,117.81,119.38,117.81Z"></path><path fill="#000100" d="M119.38,117.58c-4.87,0-8.84,2.7-8.84,6,0,.25,0,1.82.11,2.12a.23.23,0,0,0,.23.18H131a.24.24,0,0,0,.23-.18c.05-.24-.57-1.07-1.09-1.72C128.91,122.49,124.53,117.58,119.38,117.58Zm-8.3,7.85c0-.46-.07-1.53-.07-1.83,0-3.06,3.75-5.55,8.37-5.55,5.56,0,10.31,6,11.23,7.38Z"></path><path fill="url(#b)" d="M116.52,111.88c-1.83.56-6,4.24-7,4.6S94.68,113,94.68,113L91,125.3s28.46.61,29.68-.1c1.65-1,.8-2.06.8-2.06,2.33-1.77-.56-3.35-.56-3.35,2-1.35-1.16-3.19-1.16-3.19a11,11,0,0,1,2.21,1.52c1.44,1.58,3.43,1.61,3.71,1.25C126.48,118.31,118.36,111.33,116.52,111.88Z"></path><path fill="#000100" d="M116.76,111.62a1,1,0,0,0-.3,0,20.92,20.92,0,0,0-4.62,3,16.68,16.68,0,0,1-2.38,1.64h-.14c-2,0-14.45-3.49-14.58-3.53l-.22-.06-3.86,12.85H91c.11,0,11.43.24,20,.24,9.15,0,9.62-.27,9.8-.38a2.05,2.05,0,0,0,1.11-1.31,1.4,1.4,0,0,0-.12-.89,2,2,0,0,0,.83-1.62,2.77,2.77,0,0,0-1.3-1.81,1.33,1.33,0,0,0,.48-1,1.49,1.49,0,0,0-.16-.6c.06,0,.11.11.16.16a4.48,4.48,0,0,0,3.18,1.51,1.22,1.22,0,0,0,.89-.28c.23-.3,0-.73,0-.87C124.87,116.75,118.88,111.62,116.76,111.62Zm8.72,7.6a.93.93,0,0,1-.52.1,4,4,0,0,1-2.83-1.35,10.63,10.63,0,0,0-2.28-1.57l-.23.41c.46.27,1.67,1.14,1.69,1.93a1,1,0,0,1-.55.86l-.31.22.34.18s1.27.7,1.34,1.62a1.57,1.57,0,0,1-.81,1.33l-.18.14.14.19a1,1,0,0,1,.15.73,1.63,1.63,0,0,1-.88,1c-.18.09-1.46.31-9.57.31-7.78,0-17.82-.2-19.69-.23l3.54-11.82c1.75.48,12.59,3.48,14.49,3.48a.84.84,0,0,0,.3,0,16,16,0,0,0,2.5-1.7,21.26,21.26,0,0,1,4.47-2.89.47.47,0,0,1,.17,0c1.76,0,7.68,4.85,8.62,6.76C125.5,119.1,125.49,119.2,125.48,119.22Z"></path><path fill="#000100" d="M117.65 114.92l-.46-.09-.12.63a.24.24 0 00.14.26 17.65 17.65 0 012.55 1.16l.26-.39a16.45 16.45 0 00-2.46-1.13zM117 118.58l0 .46a11.69 11.69 0 013.73.91l.18-.43A11.9 11.9 0 00117 118.58zM117.36 122.28l0 .46c3.15-.23 3.89.55 3.9.56l.36-.3C121.58 122.9 120.76 122 117.36 122.28z"></path><path fill="#ffbc3a" d="M84.37,109.46S80.53,81.93,76,81.93l-8.77,4.88c-5,4.28-5,14.34-5,14.34s5.48,20.18,12.53,24.39h30.46s4.57-5.7.44-9.83C103.66,113.77,84.37,109.46,84.37,109.46Z"></path><path fill="#000100" d="M84.58,109.27c-.5-3.5-4.06-27.57-8.62-27.57v.47c3.58,0,7.12,19.72,8.18,27.32a.22.22,0,0,0,.18.2c6.65,1.48,19.62,4.68,21.12,6.18,3.66,3.66.14,8.72-.39,9.44H74.77C68,121.2,62.65,102,62.41,101.12c0-.62.23-10.09,4.93-14.14l-.3-.35c-5,4.3-5.1,14.1-5.1,14.51a.17.17,0,0,0,0,.07c.22.82,5.58,20.33,12.63,24.53a.19.19,0,0,0,.12,0h30.46a.21.21,0,0,0,.18-.09c0-.06,4.66-5.92.43-10.15C103.88,113.65,86.56,109.71,84.58,109.27Z"></path><path d="M110.64,117.87c-7.06-.29-17.6-3.06-24.52-4.63-3.19-.72-6.73-1.87-9.11-4.24-2.6-2.58-3.26-6.27-2.9-9.78.32-3.17.72-5.19-.28-8.5s-2.52-6.53-3.41-9.93c-1.16-4.41,2.25-7.35,5.75-7.62l1.09-2s3.48,1.52,5.65.85c-11.33-2.47,1-13.12,1-16.33,0-3.83.6-6.94,5.56-6.94a6.53,6.53,0,0,1,1.77.24,8,8,0,0,0-3.43-4.43c-2.56-1.68-8.54-3.28-13.56-3.1A9.87,9.87,0,0,0,65,47.59c-1.06,2.91-.53,11.84-.44,14.58a11.11,11.11,0,0,0,.07,2.11c.38,1.2,1.14,1.29,1.09,1.46-.26.83-.19.32-.57,1a4.88,4.88,0,0,0-1.52,0l-3,4,.18,0A103.93,103.93,0,0,0,52.76,81c-5.9,8.47-9.08,25.72-9.08,44.46H93.63c7.22,0,21,.23,21,.23C114.62,121.51,116.65,118.12,110.64,117.87Z" style="mix-blend-mode:multiply" fill="#5b7895"></path><path fill="#000100" d="M76.09,60.69a1.53,1.53,0,0,1,.4-1.81,1.72,1.72,0,0,1,2-.22l.23-.4a2.18,2.18,0,0,0-2.52.27,2,2,0,0,0-.52,2.34,2.49,2.49,0,0,0,2.45,1.45,3.76,3.76,0,0,0,.73-.07l-.1-.46S76.73,62.23,76.09,60.69Z"></path><path fill="#000100" d="M77.05,59.66a1.15,1.15,0,0,1-.26-.95l-.46,0a1.55,1.55,0,0,0,.4,1.32,1.66,1.66,0,0,0,1.16.42H78L78,60A1.29,1.29,0,0,1,77.05,59.66Z"></path><path fill="#fff" d="M88,84.89a1.65,1.65,0,0,0-1.65,1.65V89h3.31V86.54A1.65,1.65,0,0,0,88,84.89Z"></path><path fill="#0e0e27" d="M88,84.65a1.89,1.89,0,0,0-1.89,1.89V89a.23.23,0,0,0,.24.23h3.31a.23.23,0,0,0,.23-.23V86.54A1.89,1.89,0,0,0,88,84.65Zm1.42,4.09H86.61v-2.2a1.42,1.42,0,0,1,2.84,0Z"></path><path fill="#ffbc3a" d="M94,80.92a1.65,1.65,0,0,0-1.65,1.65V89h3.31v-6.4A1.65,1.65,0,0,0,94,80.92Z"></path><path fill="#000100" d="M94,80.68a1.89,1.89,0,0,0-1.89,1.89V89a.23.23,0,0,0,.24.23h3.31A.23.23,0,0,0,95.9,89v-6.4A1.89,1.89,0,0,0,94,80.68Zm1.43,8.06H92.59V82.57a1.43,1.43,0,0,1,2.85,0Z"></path><path fill="#00685a" d="M100,78a1.65,1.65,0,0,0-1.66,1.65V89h3.31V79.64A1.65,1.65,0,0,0,100,78Z"></path><path fill="#000100" d="M100,77.75a1.89,1.89,0,0,0-1.89,1.89V89a.23.23,0,0,0,.23.23h3.31a.23.23,0,0,0,.24-.23V79.64A1.89,1.89,0,0,0,100,77.75Zm1.42,11H98.57v-9.1a1.43,1.43,0,0,1,2.85,0Z"></path><path fill="#ff4700" d="M106,74.55a1.66,1.66,0,0,0-1.66,1.66V89h3.32V76.21A1.66,1.66,0,0,0,106,74.55Z"></path><path fill="#000100" d="M106,74.32a1.89,1.89,0,0,0-1.89,1.89V89a.23.23,0,0,0,.23.23h3.32a.23.23,0,0,0,.23-.23V76.21A1.89,1.89,0,0,0,106,74.32Zm1.42,14.42h-2.84V76.21a1.42,1.42,0,1,1,2.84,0Z"></path><path fill="#d2d9d7" d="M101.74,72.19c-4.48,6-12,8.25-13.54,8.64v.38c1.11-.28,9.19-2.47,13.91-8.81l.72.41L103,70.6l-1.91,1.2Z"></path><rect width="6.26" height=".47" x="119.34" y="108.55" fill="#000100"></rect></g></svg>