<svg xmlns="http://www.w3.org/2000/svg" viewBox="0 0 200 150" id="digital-marketing"><g data-name="Layer 1"><path fill="#fff" d="M145.23,20.72,55.63,20a8.74,8.74,0,0,0-8.8,8.67l-.73,91.8a8.75,8.75,0,0,0,8.67,8.8l89.6.71a8.74,8.74,0,0,0,8.8-8.67l.73-91.8A8.75,8.75,0,0,0,145.23,20.72Z"></path><path fill="#000100" d="M145.23,20.48l-89.6-.7h-.07a9,9,0,0,0-9,8.9l-.72,91.79a9,9,0,0,0,8.9,9.05l89.6.7h.07a9,9,0,0,0,9-8.9l.72-91.79a9,9,0,0,0-8.9-9Zm7.71,100.84a8.52,8.52,0,0,1-8.5,8.43l-89.66-.7a8.51,8.51,0,0,1-8.44-8.57l.72-91.8a8.52,8.52,0,0,1,8.5-8.43l89.66.7a8.5,8.5,0,0,1,8.44,8.57Z"></path><path fill="#002938" d="M133.23,112.88a3,3,0,0,0-3,2.89,2.88,2.88,0,0,0,.72,2l-.26,1.06,1.06-.46a3,3,0,0,0,1.37.43,2.94,2.94,0,0,0,.1-5.88Z"></path><path fill="#000100" d="M133.18,112.65a3.19,3.19,0,0,0-3.17,3.12,3.15,3.15,0,0,0,.69,2l-.23.95a.23.23,0,0,0,.08.23.21.21,0,0,0,.15,0,.15.15,0,0,0,.09,0l1-.41a3.15,3.15,0,1,0,1.43-5.94Zm-.05,5.87h0a2.55,2.55,0,0,1-1.25-.4.27.27,0,0,0-.12,0l-.09,0-.63.28.14-.6a.23.23,0,0,0-.05-.21,2.7,2.7,0,0,1,2.09-4.47h0a2.71,2.71,0,0,1-.09,5.41Z"></path><polygon fill="#002938" points="123.91 118.28 125.14 115.33 127.44 113.28 121.92 113.19 123.91 118.28"></polygon><path fill="#000100" d="M127.44,113l-5.52-.09a.27.27,0,0,0-.19.1.28.28,0,0,0,0,.22l2,5.09a.23.23,0,0,0,.21.15h0a.24.24,0,0,0,.21-.14l1.22-2.9,2.25-2a.21.21,0,0,0,.06-.25A.23.23,0,0,0,127.44,113ZM125,115.15a.24.24,0,0,0-.06.09l-1,2.41-1.65-4.23,4.58.08Z"></path><path fill="#fff" d="M144.44,112.7a1.78,1.78,0,0,0-1.66,1.44,1.74,1.74,0,0,0-1.61-1.49,1.76,1.76,0,0,0-1.75,1.35,2.32,2.32,0,0,0,.38,1.67A6.91,6.91,0,0,0,141,117c.6.55,1.11,1.08,1.71,1.63.62-.53,1.19-1,1.81-1.58a6.87,6.87,0,0,0,1.22-1.25,2.35,2.35,0,0,0,.43-1.66A1.76,1.76,0,0,0,144.44,112.7Z"></path><path fill="#000100" d="M144.44,112.47h0a2,2,0,0,0-1.64,1,2,2,0,0,0-1.61-1h-.09a2,2,0,0,0-1.91,1.54,2.53,2.53,0,0,0,.41,1.84,7.13,7.13,0,0,0,1.22,1.35l.84.81.87.83a.23.23,0,0,0,.16.06.22.22,0,0,0,.15-.06l1.81-1.58a7.06,7.06,0,0,0,1.26-1.3,2.54,2.54,0,0,0,.47-1.83A2,2,0,0,0,144.44,112.47Zm1.08,3.17a6.43,6.43,0,0,1-1.18,1.21l-1.65,1.44-.7-.68-.86-.82a6.36,6.36,0,0,1-1.13-1.25,2,2,0,0,1-.35-1.49,1.55,1.55,0,0,1,1.45-1.17h.06a1.52,1.52,0,0,1,1.39,1.29.25.25,0,0,0,.23.21.23.23,0,0,0,.24-.2,1.52,1.52,0,0,1,1.45-1.25,1.53,1.53,0,0,1,1.45,1.22A2.06,2.06,0,0,1,145.52,115.64Z"></path><rect width="2.1" height="58.21" x="81.46" y="86.19" fill="#fff" transform="rotate(-89.4 82.715 115.328)"></rect><path fill="#000100" d="M111.62,114.24l-58.21-.45h0a.23.23,0,0,0-.16.06.23.23,0,0,0-.07.17l0,2.1a.23.23,0,0,0,.23.23l58.21.46h0a.28.28,0,0,0,.17-.07.24.24,0,0,0,.07-.16v-2.1A.24.24,0,0,0,111.62,114.24Zm-.25,2.1-57.74-.45v-1.63l57.74.45Z"></path><rect width="2.1" height="31.88" x="68.23" y="106.87" fill="#fff" transform="rotate(-89.55 69.278 122.808)"></rect><path fill="#000100" d="M85.23,121.65l-31.88-.25h0a.24.24,0,0,0-.23.23l0,2.1a.23.23,0,0,0,.23.23l31.88.25h0a.23.23,0,0,0,.16-.06.23.23,0,0,0,.07-.17l0-2.09A.23.23,0,0,0,85.23,121.65ZM85,123.74l-31.41-.24v-1.63l31.41.25Z"></path><rect width="2.1" height="31.88" x="128.83" y="107.34" fill="#fff" transform="rotate(-89.55 129.88 123.283)"></rect><path fill="#000100" d="M145.82,122.13,114,121.88a.35.35,0,0,0-.17.06.28.28,0,0,0-.07.17v2.09a.23.23,0,0,0,.23.24l31.87.25h0a.2.2,0,0,0,.16-.07.24.24,0,0,0,.07-.16l0-2.1A.23.23,0,0,0,145.82,122.13Zm-.25,2.09L114.16,124l0-1.63,31.41.25Z"></path><rect width="2.1" height="21.55" x="98.53" y="112.27" fill="#fff" transform="rotate(-89.55 99.574 123.046)"></rect><path fill="#000100" d="M110.36,121.85l-21.54-.17c-.06,0-.13,0-.17.07a.24.24,0,0,0-.07.16l0,2.1a.23.23,0,0,0,.23.23l21.55.17h0a.24.24,0,0,0,.24-.23v-2.1A.23.23,0,0,0,110.36,121.85Zm-.25,2.09L89,123.78v-1.63l21.08.16Z"></path><rect width="79.84" height="98.49" x="60.14" y="17.86" fill="#d2d9d7" transform="rotate(-89.55 100.062 67.108)"></rect><path fill="#000100" d="M149.62,27.34l-98.49-.78h0a.23.23,0,0,0-.23.24l-.63,79.84a.24.24,0,0,0,.23.23l98.49.78h0a.28.28,0,0,0,.17-.07.29.29,0,0,0,.07-.16l.62-79.85A.23.23,0,0,0,149.62,27.34Zm-.86,79.84-98-.77L51.36,27l98,.77Z"></path><path d="M144.56,79.62,117.71,59.53a13.07,13.07,0,0,0-7.28-4.78C101.86,52.7,93,60,90.31,71.29s1.89,21.8,10.46,23.85a13,13,0,0,0,8.28-.81l18.53-3.28,4.93,16.31,4.68,0,.12-18.08,5.15-.91c1.32.28,2.84-1.43,3.41-3.83S145.86,80,144.56,79.62Z" style="mix-blend-mode:multiply" fill="#5b7895" opacity=".55"></path><polygon fill="#002938" points="118.41 107.25 124.6 107.3 124.78 82.24 110.82 82.13 118.41 107.25"></polygon><path fill="#000100" d="M124.78,82l-14-.11a.25.25,0,0,0-.19.09.26.26,0,0,0,0,.21l7.59,25.12a.24.24,0,0,0,.22.16l6.19,0h0a.24.24,0,0,0,.24-.23L125,82.24A.23.23,0,0,0,124.78,82Zm-.41,25-5.78,0-7.45-24.65,13.4.1Z"></path><path fill="#ffbc3a" d="M134.36,70.54,97.49,43,85.34,90.37l46.24-8.19c1.74.37,3.75-1.9,4.51-5.08S136.09,71,134.36,70.54Z"></path><path fill="#000100" d="M134.47,70.32,97.63,42.77a.22.22,0,0,0-.36.13L85.11,90.31a.21.21,0,0,0,.06.21.21.21,0,0,0,.17.08h0l46.2-8.18a2.34,2.34,0,0,0,.38,0c1.77,0,3.64-2.28,4.36-5.3C137.11,73.84,136.3,70.85,134.47,70.32Zm1.39,6.73c-.67,2.81-2.34,4.93-3.9,4.93a1.84,1.84,0,0,1-.33,0,.14.14,0,0,0-.09,0L85.65,90.07l12-46.72,36.59,27.37a.2.2,0,0,0,.08,0C135.89,71.18,136.59,74,135.86,77.05Z"></path><path fill="#00685a" d="M88.57,40.23c-9.52-2.28-19.81,6.68-23,20S67.51,86.2,77,88.48s19.81-6.68,23-20S98.09,42.5,88.57,40.23Z"></path><path fill="#000100" d="M88.62,40a13,13,0,0,0-3.06-.36c-8.87,0-17.37,8.64-20.22,20.53C62.13,73.6,67.35,86.4,77,88.7a13.13,13.13,0,0,0,3.06.36h0c8.87,0,17.37-8.63,20.22-20.53a30.61,30.61,0,0,0-1-18.41C97.09,44.71,93.3,41.12,88.62,40ZM99.8,68.42C97,80.11,88.69,88.6,80,88.6a12.73,12.73,0,0,1-3-.35C67.71,86,62.64,73.46,65.8,60.28c2.79-11.69,11.11-20.17,19.76-20.17a12.8,12.8,0,0,1,3,.34C93,41.54,96.71,45,98.85,50.3A30.13,30.13,0,0,1,99.8,68.42Z"></path><polygon fill="#002938" points="83.62 70.21 98.56 78.47 103.42 59.96 86.18 59.5 83.62 70.21"></polygon><path fill="#000100" d="M103.43,59.73l-17.24-.46a.22.22,0,0,0-.24.18l-2.56,10.7a.23.23,0,0,0,.12.26l14.94,8.27a.2.2,0,0,0,.11,0l.09,0a.25.25,0,0,0,.14-.16L103.65,60a.24.24,0,0,0,0-.2A.21.21,0,0,0,103.43,59.73Zm-5,18.39-14.52-8,2.47-10.35,16.76.45Z"></path><path fill="#fff" d="M86.18,59.5c-2.11-.5-4.39,1.48-5.1,4.44s.43,5.76,2.54,6.27,4.4-1.48,5.1-4.44S88.29,60,86.18,59.5Z"></path><path fill="#000100" d="M86.24,59.27a3.55,3.55,0,0,0-.73-.08c-2.05,0-4,2-4.66,4.7a7,7,0,0,0,.23,4.19,3.63,3.63,0,0,0,2.49,2.35,2.84,2.84,0,0,0,.72.09h0c2,0,4-2,4.66-4.7a7,7,0,0,0-.22-4.19A3.71,3.71,0,0,0,86.24,59.27Zm2.26,6.44c-.6,2.52-2.38,4.34-4.21,4.34a2.56,2.56,0,0,1-.62-.07,3.23,3.23,0,0,1-2.16-2.08A6.51,6.51,0,0,1,81.3,64c.61-2.51,2.38-4.33,4.21-4.33a2.56,2.56,0,0,1,.62.07,3.23,3.23,0,0,1,2.16,2.07A6.52,6.52,0,0,1,88.5,65.71Z"></path><path fill="#fff" d="M89.19,37.63c-11.34-2.72-23,6.9-26.61,21.88s2.48,28.85,13.83,31.56,23-6.9,26.61-21.88S100.54,40.34,89.19,37.63ZM100,68.47c-3.19,13.33-13.49,22.28-23,20S62.38,73.55,65.57,60.23s13.48-22.28,23-20S103.22,55.15,100,68.47Z"></path><path fill="#000100" d="M88.62,40a13,13,0,0,0-3.05-.36c-8.88,0-17.38,8.63-20.23,20.53a30.53,30.53,0,0,0,1,18.41c2.19,5.41,6,9,10.65,10.12a13.13,13.13,0,0,0,3.06.36c8.87,0,17.38-8.63,20.23-20.53a30.61,30.61,0,0,0-1-18.41C97.09,44.71,93.3,41.12,88.62,40ZM99.8,68.42C97,80.11,88.69,88.6,80,88.6a12.73,12.73,0,0,1-3-.35c-4.53-1.08-8.2-4.58-10.33-9.84a30,30,0,0,1-1-18.13c2.79-11.69,11.11-20.17,19.77-20.17a12.78,12.78,0,0,1,3,.34C93,41.54,96.71,45,98.85,50.3A30.13,30.13,0,0,1,99.8,68.42Z"></path><path fill="#000100" d="M89.25,37.4a16.82,16.82,0,0,0-3.93-.46c-10.35,0-19.8,9.26-23,22.52-3.62,15.11,2.53,29.1,14,31.84a16.83,16.83,0,0,0,3.93.47h0c10.35,0,19.8-9.27,23-22.53a32.65,32.65,0,0,0-1.33-20.53C99.31,42.75,94.8,38.73,89.25,37.4Zm13.54,31.73C99.67,82.19,90.41,91.3,80.28,91.3a16.42,16.42,0,0,1-3.82-.45C65.25,88.16,59.25,74.42,62.8,59.57c3.12-13,12.39-22.17,22.52-22.17a16.42,16.42,0,0,1,3.82.45c5.41,1.3,9.8,5.22,12.35,11A32.14,32.14,0,0,1,102.79,69.13Z"></path><path d="M151.17,39.24l.05-6.37-1.6-5.3-18.07,5.15-9.84-.08-9.84-.08L102,32.49l-9.84-.08-9.83-.08-9.84-.08-9.84-.07-9.82-.08-.07,6.37,1.51,2.38c1.73,2.73,5.34,5,8.06,5s3.51-2.18,1.78-4.91c1.73,2.73,5.34,5,8.06,5S75.72,43.74,74,41c1.73,2.73,5.34,5,8.05,5s3.52-2.17,1.78-4.9c1.74,2.73,5.34,5,8.06,5s3.51-2.18,1.78-4.91c1.73,2.73,5.34,5,8.06,5s3.51-2.18,1.78-4.91c1.73,2.73,5.34,5,8,5s3.52-2.17,1.78-4.9c1.74,2.73,5.34,5,8.06,5s3.51-2.17,1.78-4.9c1.73,2.73,5.34,5,8.06,5s3.51-2.18,1.78-4.91c1.73,2.73,5.34,5,8.05,5s3.52-2.18,1.78-4.91c1.74,2.73,5.34,5,8.06,5s3.51-2.17,1.78-4.9Z" style="mix-blend-mode:multiply" fill="#5b7895"></path><polygon fill="#fff" points="135.6 33.83 145.43 33.91 149.61 27.57 139.77 27.5 135.6 33.83"></polygon><path fill="#000100" d="M149.61,27.34l-9.84-.08h0a.24.24,0,0,0-.2.11L135.4,33.7a.24.24,0,0,0,.19.37l9.84.07h0a.25.25,0,0,0,.2-.1l4.17-6.34a.23.23,0,0,0,0-.24A.24.24,0,0,0,149.61,27.34Zm-4.3,6.34L136,33.6l3.86-5.87,9.29.07Z"></path><path fill="#fff" d="M135.58,36.21a4.92,4.92,0,1,0,9.83.07l0-2.37-9.83-.08Z"></path><path fill="#000100" d="M145.44,33.68l-9.84-.08h0a.23.23,0,0,0-.24.23l0,2.37a5.18,5.18,0,0,0,5.12,5.2h0a5.18,5.18,0,0,0,5.15-5.12l0-2.37A.23.23,0,0,0,145.44,33.68Zm-.26,2.6a4.7,4.7,0,0,1-4.68,4.65v.23l0-.23a4.69,4.69,0,0,1-4.65-4.72l0-2.14,9.37.07Z"></path><polygon fill="#ff4700" points="125.76 33.76 135.6 33.83 139.77 27.5 129.93 27.42 125.76 33.76"></polygon><path fill="#000100" d="M139.77,27.26l-9.83-.08h0a.21.21,0,0,0-.19.11l-4.18,6.34a.25.25,0,0,0,0,.24.24.24,0,0,0,.21.12l9.83.08h0a.21.21,0,0,0,.19-.11L140,27.62a.23.23,0,0,0,0-.24A.24.24,0,0,0,139.77,27.26Zm-4.3,6.34-9.28-.07,3.87-5.88,9.28.08Z"></path><path fill="#ff4700" d="M125.74,36.13a4.92,4.92,0,0,0,9.84.08l0-2.38-9.84-.07Z"></path><path fill="#000100" d="M135.6,33.6l-9.84-.08h0a.23.23,0,0,0-.23.23l0,2.38a5.16,5.16,0,0,0,5.11,5.19h0a5.17,5.17,0,0,0,5.15-5.11l0-2.37a.21.21,0,0,0-.07-.17A.2.2,0,0,0,135.6,33.6Zm-.26,2.6a4.69,4.69,0,0,1-4.68,4.65v.24l0-.24A4.69,4.69,0,0,1,126,36.13L126,34l9.37.07Z"></path><polygon fill="#fff" points="115.92 33.68 125.76 33.76 129.93 27.42 120.1 27.34 115.92 33.68"></polygon><path fill="#000100" d="M129.94,27.18l-9.84-.07a.32.32,0,0,0-.2.1l-4.17,6.34a.23.23,0,0,0,0,.24.23.23,0,0,0,.2.12l9.84.08h0a.24.24,0,0,0,.2-.11l4.17-6.33a.24.24,0,0,0-.19-.37Zm-4.31,6.34-9.28-.07,3.87-5.88,9.28.08Z"></path><path fill="#fff" d="M115.9,36.05a4.92,4.92,0,1,0,9.84.08l0-2.37-9.84-.08Z"></path><path fill="#000100" d="M125.76,33.52l-9.84-.08a.24.24,0,0,0-.23.24l0,2.37a5.16,5.16,0,0,0,5.11,5.19h0A5.16,5.16,0,0,0,126,36.13l0-2.37a.27.27,0,0,0-.06-.17A.28.28,0,0,0,125.76,33.52Zm-.25,2.61a4.69,4.69,0,0,1-4.69,4.64V41l0-.24a4.68,4.68,0,0,1-4.65-4.72V33.91l9.37.08Z"></path><polygon fill="#ff4700" points="106.09 33.6 115.92 33.68 120.1 27.34 110.26 27.26 106.09 33.6"></polygon><path fill="#000100" d="M120.1,27.11,110.26,27h0a.26.26,0,0,0-.2.1l-4.17,6.34a.23.23,0,0,0,0,.24.22.22,0,0,0,.2.12l9.84.08h0a.25.25,0,0,0,.2-.1l4.17-6.34a.23.23,0,0,0,0-.24A.22.22,0,0,0,120.1,27.11Zm-4.3,6.33-9.28-.07,3.86-5.87,9.28.07Z"></path><path fill="#ff4700" d="M106.07,36a4.92,4.92,0,1,0,9.83.08l0-2.37-9.83-.08Z"></path><path fill="#000100" d="M115.92,33.44l-9.83-.07h0a.23.23,0,0,0-.24.23l0,2.37A5.16,5.16,0,0,0,111,41.16h0a5.17,5.17,0,0,0,5.15-5.11l0-2.37a.28.28,0,0,0-.07-.17A.29.29,0,0,0,115.92,33.44Zm-.25,2.61A4.7,4.7,0,0,1,111,40.7v.23l0-.23A4.69,4.69,0,0,1,106.3,36l0-2.14,9.37.07Z"></path><polygon fill="#fff" points="96.25 33.52 106.09 33.6 110.26 27.26 100.42 27.19 96.25 33.52"></polygon><path fill="#000100" d="M110.26,27,100.42,27h0a.21.21,0,0,0-.19.11L96.05,33.4a.24.24,0,0,0,0,.23.23.23,0,0,0,.21.13l9.83.07h0a.22.22,0,0,0,.19-.1l4.18-6.34a.25.25,0,0,0,0-.24A.24.24,0,0,0,110.26,27ZM106,33.37l-9.28-.08,3.87-5.87,9.28.07Z"></path><path fill="#fff" d="M96.23,35.9a4.92,4.92,0,0,0,9.84.07l0-2.37-9.84-.08Z"></path><path fill="#000100" d="M106.09,33.37l-9.84-.08h0a.23.23,0,0,0-.23.23l0,2.37a5.16,5.16,0,0,0,5.11,5.2h0A5.17,5.17,0,0,0,106.3,36l0-2.38a.24.24,0,0,0-.23-.23Zm-.26,2.6a4.7,4.7,0,0,1-4.68,4.65v.23l0-.23a4.69,4.69,0,0,1-4.65-4.72l0-2.14,9.37.07Z"></path><polygon fill="#ff4700" points="86.41 33.45 96.25 33.52 100.42 27.19 90.59 27.11 86.41 33.45"></polygon><path fill="#000100" d="M100.42,27l-9.83-.08a.31.31,0,0,0-.2.11l-4.17,6.34a.23.23,0,0,0,0,.24.24.24,0,0,0,.2.12l9.84.08h0a.24.24,0,0,0,.2-.11l4.17-6.34a.24.24,0,0,0,0-.23A.23.23,0,0,0,100.42,27Zm-4.3,6.34-9.28-.07,3.87-5.88,9.28.08Z"></path><path fill="#ff4700" d="M86.39,35.82a4.92,4.92,0,0,0,9.84.08l0-2.38-9.84-.07Z"></path><path fill="#000100" d="M96.25,33.29l-9.84-.08h0a.24.24,0,0,0-.16.07.2.2,0,0,0-.07.16l0,2.38A5.16,5.16,0,0,0,91.27,41h0a5.16,5.16,0,0,0,5.15-5.11l0-2.37a.24.24,0,0,0-.06-.17A.28.28,0,0,0,96.25,33.29ZM96,35.89a4.69,4.69,0,0,1-4.69,4.65v.24l0-.24a4.68,4.68,0,0,1-4.65-4.72V33.68l9.37.08Z"></path><polygon fill="#fff" points="76.58 33.37 86.41 33.45 90.59 27.11 80.75 27.03 76.58 33.37"></polygon><path fill="#000100" d="M90.59,26.87l-9.84-.07h0a.26.26,0,0,0-.2.1l-4.17,6.34a.23.23,0,0,0,0,.24.24.24,0,0,0,.2.12l9.84.08h0a.24.24,0,0,0,.2-.11l4.17-6.33a.23.23,0,0,0,0-.24A.25.25,0,0,0,90.59,26.87Zm-4.3,6.34L77,33.14l3.86-5.87,9.28.07Z"></path><path fill="#fff" d="M76.56,35.74a4.92,4.92,0,1,0,9.83.08l0-2.37-9.83-.08Z"></path><path fill="#000100" d="M86.41,33.21l-9.83-.07a.39.39,0,0,0-.17.06.28.28,0,0,0-.07.17l0,2.37a5.16,5.16,0,0,0,5.12,5.19h0a5.17,5.17,0,0,0,5.15-5.11l0-2.37A.24.24,0,0,0,86.41,33.21Zm-.25,2.61a4.69,4.69,0,0,1-4.68,4.64v.24l0-.24a4.69,4.69,0,0,1-4.65-4.72l0-2.14,9.37.08Z"></path><polygon fill="#ff4700" points="66.74 33.29 76.58 33.37 80.75 27.03 70.91 26.95 66.74 33.29"></polygon><path fill="#000100" d="M80.75,26.8l-9.84-.08a.24.24,0,0,0-.19.11l-4.18,6.33a.26.26,0,0,0,0,.24.25.25,0,0,0,.21.13l9.83.07h0a.24.24,0,0,0,.19-.1l4.17-6.34a.23.23,0,0,0,0-.24A.26.26,0,0,0,80.75,26.8Zm-4.3,6.33-9.28-.07L71,27.19l9.28.07Z"></path><path fill="#ff4700" d="M66.72,35.66a4.92,4.92,0,1,0,9.84.08l0-2.37-9.84-.08Z"></path><path fill="#000100" d="M76.58,33.14l-9.84-.08h0a.23.23,0,0,0-.23.23l0,2.37a5.14,5.14,0,0,0,5.11,5.19h0a5.16,5.16,0,0,0,5.15-5.11l0-2.37A.23.23,0,0,0,76.58,33.14Zm-.26,2.6a4.7,4.7,0,0,1-4.68,4.65v.23l0-.23A4.69,4.69,0,0,1,67,35.67l0-2.14,9.37.07Z"></path><polygon fill="#fff" points="56.9 33.21 66.74 33.29 70.91 26.95 61.08 26.88 56.9 33.21"></polygon><path fill="#000100" d="M70.91,26.72l-9.83-.08s-.16,0-.2.11l-4.17,6.34a.21.21,0,0,0,0,.23.22.22,0,0,0,.2.13l9.84.08h0a.21.21,0,0,0,.19-.11l4.18-6.34a.25.25,0,0,0,0-.24A.24.24,0,0,0,70.91,26.72Zm-4.3,6.34L57.33,33l3.87-5.87,9.28.07Z"></path><path fill="#fff" d="M56.88,35.59a4.92,4.92,0,0,0,9.84.07l0-2.37-9.84-.08Z"></path><path fill="#000100" d="M66.74,33.06,56.9,33h0a.23.23,0,0,0-.23.23l0,2.37a5.16,5.16,0,0,0,5.11,5.2h0A5.17,5.17,0,0,0,67,35.67l0-2.38a.23.23,0,0,0-.06-.16A.23.23,0,0,0,66.74,33.06Zm-.25,2.6a4.69,4.69,0,0,1-4.69,4.65v.23l0-.23a4.69,4.69,0,0,1-4.65-4.72V33.45l9.37.07Z"></path><polygon fill="#ff4700" points="47.06 33.14 56.9 33.21 61.08 26.88 51.25 26.8 47.06 33.14"></polygon><path fill="#000100" d="M61.08,26.64l-9.83-.07h0a.21.21,0,0,0-.19.1L46.87,33a.23.23,0,0,0,0,.24.24.24,0,0,0,.2.12l9.84.08h0a.24.24,0,0,0,.2-.11L61.27,27a.21.21,0,0,0,0-.23A.23.23,0,0,0,61.08,26.64ZM56.78,33l-9.28-.07L51.37,27l9.27.08Z"></path><path fill="#ff4700" d="M47.05,35.51a4.92,4.92,0,1,0,9.83.08l0-2.38-9.83-.07Z"></path><path fill="#000100" d="M56.9,33l-9.83-.08a.26.26,0,0,0-.17.07.24.24,0,0,0-.07.17l0,2.37a5.16,5.16,0,0,0,5.11,5.19h0a5.17,5.17,0,0,0,5.15-5.11l0-2.37a.26.26,0,0,0-.07-.17A.24.24,0,0,0,56.9,33Zm-.25,2.6A4.69,4.69,0,0,1,52,40.23v.24l0-.24a4.69,4.69,0,0,1-4.65-4.72l0-2.14,9.37.08Z"></path></g></svg>