<svg xmlns="http://www.w3.org/2000/svg" xmlns:xlink="http://www.w3.org/1999/xlink" viewBox="0 0 200 150" id="female-social-media-manager"><defs><linearGradient id="a" x1="105.59" x2="105.59" y1="60.79" y2="64.74" gradientUnits="userSpaceOnUse"><stop offset="0" stop-color="#ff767d"></stop><stop offset=".38" stop-color="#ff918b"></stop><stop offset=".75" stop-color="#ffa595"></stop><stop offset="1" stop-color="#ffac99"></stop></linearGradient><linearGradient id="b" x1="55.74" x2="66.99" y1="119.27" y2="124.9" xlink:href="#a"></linearGradient><linearGradient id="c" x1="58.74" x2="70" y1="113.27" y2="118.89" xlink:href="#a"></linearGradient><linearGradient id="d" x1="113.33" x2="114.85" y1="44.8" y2="43.96" xlink:href="#a"></linearGradient><linearGradient id="e" x1="89.56" x2="90.07" y1="49.13" y2="47.72" xlink:href="#a"></linearGradient><linearGradient id="f" x1="99.25" x2="101.11" y1="59.12" y2="48.65" xlink:href="#a"></linearGradient><linearGradient id="g" x1="147.41" x2="143.39" y1="52.16" y2="59.87" xlink:href="#a"></linearGradient></defs><g data-name="Layer 1"><path fill="#d2d9d7" d="M100.38 124.14a.62.62 0 10.62.62A.63.63 0 00100.38 124.14zM100.38 86.76a.63.63 0 10.62.62A.63.63 0 00100.38 86.76zM100.38 101.71a.63.63 0 10.62.62A.63.63 0 00100.38 101.71zM100.38 94.24a.62.62 0 10.62.62A.63.63 0 00100.38 94.24zM100.38 116.66a.63.63 0 10.62.62A.63.63 0 00100.38 116.66zM100.38 109.19a.62.62 0 10.62.62A.63.63 0 00100.38 109.19zM100.38 79.28a.63.63 0 00-.63.63.63.63 0 001.25 0A.63.63 0 00100.38 79.28zM100.38 34.43a.63.63 0 10.62.63A.63.63 0 00100.38 34.43zM100.38 27a.62.62 0 10.62.62A.63.63 0 00100.38 27zM100.38 41.91a.62.62 0 10.62.62A.63.63 0 00100.38 41.91zM100.38 19.48a.63.63 0 10.62.62A.63.63 0 00100.38 19.48zM100.38 49.38A.63.63 0 10101 50 .63.63 0 00100.38 49.38zM100.38 64.33A.63.63 0 10101 65 .63.63 0 00100.38 64.33zM100.38 71.81a.63.63 0 00-.63.62.63.63 0 101.25 0A.62.62 0 00100.38 71.81zM100.38 56.86a.62.62 0 10.62.62A.63.63 0 00100.38 56.86zM153.46 81.76a.63.63 0 00-.63.62.63.63 0 10.63-.62zM153.46 74.28a.63.63 0 10.62.63A.63.63 0 00153.46 74.28zM153.46 59.33a.63.63 0 10.62.63A.63.63 0 00153.46 59.33zM153.46 66.81a.62.62 0 10.62.62A.63.63 0 00153.46 66.81zM144.6 119.7a.62.62 0 00-.62.62.63.63 0 10.62-.62zM144.6 91.66a.63.63 0 10.63.63A.63.63 0 00144.6 91.66zM144.6 97.27a.62.62 0 00-.62.62.63.63 0 101.25 0A.62.62 0 00144.6 97.27zM144.6 86.06a.62.62 0 00-.62.62.63.63 0 10.62-.62zM144.6 114.09a.62.62 0 00-.62.62.63.63 0 101.25 0A.62.62 0 00144.6 114.09zM144.6 108.48a.63.63 0 10.63.63A.63.63 0 00144.6 108.48zM144.6 102.87a.63.63 0 10.63.63A.63.63 0 00144.6 102.87zM144.6 69.24a.62.62 0 00-.62.62.63.63 0 10.62-.62zM144.6 46.81a.62.62 0 00-.62.62.63.63 0 101.25 0A.62.62 0 00144.6 46.81zM144.6 52.42A.62.62 0 00144 53a.63.63 0 10.62-.62zM144.6 41.2a.63.63 0 10.63.63A.63.63 0 00144.6 41.2zM144.6 80.45a.62.62 0 00-.62.62.63.63 0 101.25 0A.62.62 0 00144.6 80.45zM144.6 74.84a.63.63 0 10.63.63A.63.63 0 00144.6 74.84zM144.6 58a.63.63 0 10.63.63A.63.63 0 00144.6 58zM144.6 63.63a.62.62 0 00-.62.62.63.63 0 101.25 0A.62.62 0 00144.6 63.63zM135.76 77.09a.63.63 0 000 1.25.63.63 0 000-1.25zM135.76 92a.63.63 0 000 1.25.63.63 0 000-1.25zM135.76 84.57a.62.62 0 000 1.24.62.62 0 000-1.24zM135.76 99.52a.62.62 0 000 1.24.62.62 0 000-1.24zM135.76 107a.63.63 0 000 1.25.63.63 0 000-1.25zM135.76 114.47a.63.63 0 10.62.62A.62.62 0 00135.76 114.47zM135.76 32.24a.63.63 0 10.62.62A.62.62 0 00135.76 32.24zM135.76 69.62a.62.62 0 100 1.24.62.62 0 000-1.24zM135.76 47.19a.63.63 0 10.62.62A.62.62 0 00135.76 47.19zM135.76 39.72a.62.62 0 000 1.24.62.62 0 000-1.24zM135.76 62.14a.63.63 0 000 1.25.63.63 0 000-1.25zM135.76 54.67a.62.62 0 000 1.24.62.62 0 100-1.24zM126.91 87.82a.62.62 0 00-.62.62.63.63 0 101.25 0A.63.63 0 00126.91 87.82zM126.91 71a.63.63 0 10.63.62A.62.62 0 00126.91 71zM126.91 76.61a.62.62 0 00-.62.62.63.63 0 001.25 0A.63.63 0 00126.91 76.61zM126.91 93.43a.62.62 0 10.63.62A.62.62 0 00126.91 93.43zM126.91 110.25a.62.62 0 10.63.62A.62.62 0 00126.91 110.25zM126.91 104.64a.63.63 0 10.63.62A.62.62 0 00126.91 104.64zM126.91 99a.63.63 0 10.63.63A.63.63 0 00126.91 99zM126.91 82.21a.63.63 0 10.63.63A.63.63 0 00126.91 82.21zM126.91 65.39a.63.63 0 10.63.63A.63.63 0 00126.91 65.39zM126.91 37.36a.63.63 0 10.63.62A.62.62 0 00126.91 37.36zM126.91 31.75a.63.63 0 10.63.63A.63.63 0 00126.91 31.75zM126.91 26.15a.62.62 0 00-.62.62.63.63 0 001.25 0A.63.63 0 00126.91 26.15zM126.91 43a.62.62 0 00-.62.62.63.63 0 001.25 0A.63.63 0 00126.91 43zM126.91 59.79a.62.62 0 10.63.62A.62.62 0 00126.91 59.79zM126.91 54.18a.63.63 0 10.63.62A.62.62 0 00126.91 54.18zM126.91 48.57a.63.63 0 00-.62.63.63.63 0 001.25 0A.63.63 0 00126.91 48.57zM118.07 75a.63.63 0 10.62.62A.63.63 0 00118.07 75zM118.07 90a.63.63 0 10.62.62A.63.63 0 00118.07 90zM118.07 82.51a.62.62 0 10.62.62A.63.63 0 00118.07 82.51zM118.07 112.41a.62.62 0 10.62.62A.63.63 0 00118.07 112.41zM118.07 104.93a.63.63 0 10.62.63A.63.63 0 00118.07 104.93zM118.07 97.46a.62.62 0 10.62.62A.63.63 0 00118.07 97.46zM118.07 60.08a.63.63 0 10.62.62A.63.63 0 00118.07 60.08zM118.07 30.18a.62.62 0 10.62.62A.63.63 0 00118.07 30.18zM118.07 67.56a.62.62 0 10.62.62A.63.63 0 00118.07 67.56zM118.07 37.65a.63.63 0 10.62.63A.63.63 0 00118.07 37.65zM118.07 22.7a.63.63 0 10.62.63A.63.63 0 00118.07 22.7zM118.07 52.6a.63.63 0 10.62.63A.63.63 0 00118.07 52.6zM118.07 45.13a.62.62 0 10.62.62A.63.63 0 00118.07 45.13zM109.22 76.26a.62.62 0 10.62.62A.62.62 0 00109.22 76.26zM109.22 109.9a.62.62 0 10.62.62A.62.62 0 00109.22 109.9zM109.22 65a.63.63 0 10.62.63A.63.63 0 00109.22 65zM109.22 70.65a.63.63 0 10.62.62A.62.62 0 00109.22 70.65zM109.22 81.86a.63.63 0 10.62.63A.63.63 0 00109.22 81.86zM109.22 93.08a.62.62 0 10.62.62A.62.62 0 00109.22 93.08zM109.22 104.29a.63.63 0 10.62.62A.62.62 0 00109.22 104.29zM109.22 98.68a.63.63 0 10.62.63A.63.63 0 00109.22 98.68zM109.22 87.47a.63.63 0 10.62.62A.62.62 0 00109.22 87.47zM109.22 25.8a.62.62 0 10.62.62A.62.62 0 00109.22 25.8zM109.22 59.44a.62.62 0 10.62.62A.62.62 0 00109.22 59.44zM109.22 31.4a.63.63 0 00-.62.63.62.62 0 101.24 0A.63.63 0 00109.22 31.4zM109.22 20.19a.63.63 0 10.62.62A.62.62 0 00109.22 20.19zM109.22 37a.63.63 0 10.62.62A.62.62 0 00109.22 37zM109.22 53.83a.63.63 0 10.62.62A.62.62 0 00109.22 53.83zM109.22 42.62a.62.62 0 10.62.62A.62.62 0 00109.22 42.62zM109.22 48.23a.62.62 0 10.62.62A.62.62 0 00109.22 48.23zM47 74.28a.63.63 0 10.62.63A.63.63 0 0047 74.28zM47 81.76a.62.62 0 10.62.62A.62.62 0 0047 81.76zM47 66.81a.62.62 0 00-.62.62.62.62 0 001.24 0A.62.62 0 0047 66.81zM47 59.33a.63.63 0 10.62.62A.62.62 0 0047 59.33zM55.87 97.27a.62.62 0 00-.63.62.63.63 0 101.25 0A.62.62 0 0055.87 97.27zM55.87 86.06a.62.62 0 00-.63.62.63.63 0 001.25 0A.62.62 0 0055.87 86.06zM55.87 91.66a.63.63 0 10.62.63A.63.63 0 0055.87 91.66zM55.87 102.88a.62.62 0 00-.63.62.63.63 0 001.25 0A.62.62 0 0055.87 102.88zM55.87 119.7a.62.62 0 00-.63.62.63.63 0 001.25 0A.62.62 0 0055.87 119.7zM55.87 114.09a.62.62 0 10.62.62A.62.62 0 0055.87 114.09zM55.87 108.48a.63.63 0 10.62.63A.63.63 0 0055.87 108.48zM55.87 41.2a.63.63 0 10.62.63A.63.63 0 0055.87 41.2zM55.87 52.42a.62.62 0 00-.63.62.63.63 0 001.25 0A.62.62 0 0055.87 52.42zM55.87 58a.63.63 0 10.62.63A.63.63 0 0055.87 58zM55.87 46.81a.62.62 0 00-.63.62.63.63 0 101.25 0A.62.62 0 0055.87 46.81zM55.87 74.84a.63.63 0 10.62.63A.63.63 0 0055.87 74.84zM55.87 80.45a.62.62 0 00-.63.62.63.63 0 101.25 0A.62.62 0 0055.87 80.45zM55.87 63.63a.62.62 0 00-.63.62.63.63 0 101.25 0A.62.62 0 0055.87 63.63zM55.87 69.23a.63.63 0 10.62.62A.63.63 0 0055.87 69.23zM64.71 99.52a.62.62 0 10.62.62A.62.62 0 0064.71 99.52zM64.71 92a.63.63 0 10.62.63A.63.63 0 0064.71 92zM64.71 84.57a.62.62 0 10.62.62A.62.62 0 0064.71 84.57zM64.71 77.09a.63.63 0 10.62.63A.63.63 0 0064.71 77.09zM64.71 107a.63.63 0 10.62.63A.63.63 0 0064.71 107zM64.71 114.47a.63.63 0 10.62.62A.62.62 0 0064.71 114.47zM64.71 32.24a.63.63 0 10.62.62A.62.62 0 0064.71 32.24zM64.71 47.19a.63.63 0 10.62.62A.62.62 0 0064.71 47.19zM64.71 69.62a.62.62 0 10.62.62A.62.62 0 0064.71 69.62zM64.71 39.72a.62.62 0 10.62.62A.62.62 0 0064.71 39.72zM64.71 62.14a.63.63 0 10.62.63A.63.63 0 0064.71 62.14zM64.71 54.67a.62.62 0 10.62.62A.62.62 0 0064.71 54.67zM73.56 93.43a.62.62 0 10.62.62A.63.63 0 0073.56 93.43zM73.56 87.82a.63.63 0 00-.63.62.63.63 0 101.25 0A.62.62 0 0073.56 87.82zM73.56 82.21a.63.63 0 10.62.63A.63.63 0 0073.56 82.21zM73.56 76.61a.62.62 0 10.62.62A.63.63 0 0073.56 76.61zM73.56 110.25a.62.62 0 10.62.62A.63.63 0 0073.56 110.25zM73.56 71a.63.63 0 10.62.62A.63.63 0 0073.56 71zM73.56 104.64a.63.63 0 00-.63.62.63.63 0 101.25 0A.62.62 0 0073.56 104.64zM73.56 99a.63.63 0 10.62.63A.63.63 0 0073.56 99zM73.56 31.75a.63.63 0 10.62.63A.63.63 0 0073.56 31.75zM73.56 37.36a.63.63 0 10.62.62A.63.63 0 0073.56 37.36zM73.56 65.39a.63.63 0 10.62.63A.63.63 0 0073.56 65.39zM73.56 26.15a.62.62 0 10.62.62A.63.63 0 0073.56 26.15zM73.56 43a.63.63 0 00-.63.62.63.63 0 10.63-.62zM73.56 59.79a.63.63 0 00-.63.62.63.63 0 10.63-.62zM73.56 48.57a.63.63 0 10.62.63A.63.63 0 0073.56 48.57zM73.56 54.18a.63.63 0 10.62.62A.63.63 0 0073.56 54.18zM82.4 90a.63.63 0 10.63.62A.62.62 0 0082.4 90zM82.4 82.51a.62.62 0 10.63.62A.62.62 0 0082.4 82.51zM82.4 75a.63.63 0 10.63.62A.62.62 0 0082.4 75zM82.4 104.93a.63.63 0 10.63.63A.63.63 0 0082.4 104.93zM82.4 67.56a.62.62 0 10.63.62A.62.62 0 0082.4 67.56zM82.4 112.41A.62.62 0 1083 113 .62.62 0 0082.4 112.41zM82.4 97.46a.62.62 0 10.63.62A.62.62 0 0082.4 97.46zM82.4 30.18a.62.62 0 10.63.62A.62.62 0 0082.4 30.18zM82.4 37.65a.63.63 0 00-.62.63.63.63 0 001.25 0A.63.63 0 0082.4 37.65zM82.4 60.08a.63.63 0 10.63.62A.62.62 0 0082.4 60.08zM82.4 22.7a.63.63 0 10.63.63A.63.63 0 0082.4 22.7zM82.4 45.13a.62.62 0 10.63.62A.62.62 0 0082.4 45.13zM82.4 52.6a.63.63 0 10.63.63A.63.63 0 0082.4 52.6zM91.26 87.47a.63.63 0 10.62.62A.63.63 0 0091.26 87.47zM91.26 81.86a.63.63 0 10.62.63A.63.63 0 0091.26 81.86zM91.26 70.65a.63.63 0 10.62.62A.63.63 0 0091.26 70.65zM91.26 76.26a.62.62 0 10.62.62A.63.63 0 0091.26 76.26zM91.26 93.08a.62.62 0 10.62.62A.63.63 0 0091.26 93.08zM91.26 20.19a.63.63 0 10.62.62A.63.63 0 0091.26 20.19zM91.26 98.68a.63.63 0 10.62.63A.63.63 0 0091.26 98.68zM91.26 104.29a.63.63 0 10.62.62A.63.63 0 0091.26 104.29zM91.26 109.9a.62.62 0 10.62.62A.63.63 0 0091.26 109.9zM91.26 65a.63.63 0 10.62.63A.63.63 0 0091.26 65zM91.26 31.4a.63.63 0 00-.63.63.63.63 0 001.25 0A.63.63 0 0091.26 31.4zM91.26 37a.63.63 0 10.62.62A.63.63 0 0091.26 37zM91.26 25.8a.62.62 0 10.62.62A.63.63 0 0091.26 25.8zM91.26 42.62a.62.62 0 10.62.62A.63.63 0 0091.26 42.62zM91.26 59.44a.62.62 0 10.62.62A.63.63 0 0091.26 59.44zM91.26 48.23a.62.62 0 10.62.62A.63.63 0 0091.26 48.23zM91.26 53.83a.63.63 0 10.62.62A.63.63 0 0091.26 53.83z"></path><path fill="#000100" d="M87.45,47.38s2,11.39,1.39,16.06S84.49,70.29,86.7,76c2.49,6.45,13,3.68,13.93-6.12S94.85,46.65,87.45,47.38Z"></path><path fill="#000100" d="M87.43,47.15l-.25,0,0,.24c0,.12,2,11.4,1.39,16a14.67,14.67,0,0,1-1.44,4.31c-1.1,2.38-2.13,4.63-.69,8.37a5.47,5.47,0,0,0,5.31,3.63h0c3.94,0,8.46-3.44,9.07-9.82s-2.1-14.7-6.29-19.3C92.32,48.12,89.87,46.91,87.43,47.15Zm13,22.71c-.58,6.1-4.86,9.39-8.6,9.39a5,5,0,0,1-4.87-3.33c-1.38-3.56-.38-5.72.67-8a14.5,14.5,0,0,0,1.48-4.44c.55-4.33-1-14.13-1.34-15.87,2.19-.13,4.42,1,6.5,3.31C98.34,55.43,101,63.58,100.39,69.86Z"></path><path fill="#fff" d="M89.67,66.49c-1.65.79,6.8,52,6.8,52h16.3l8.91-51s-2.83-2.15-12-2.15S91.32,65.71,89.67,66.49Z"></path><path fill="#000100" d="M109.7,65.14c-8.57,0-18.35.3-20.13,1.14-.38.18-1.19.57,2.65,26.55,1.89,12.76,4,25.59,4,25.71a.23.23,0,0,0,.23.2h16.3a.24.24,0,0,0,.23-.19l8.91-51a.24.24,0,0,0-.09-.22C121.7,67.25,118.83,65.14,109.7,65.14Zm2.87,53.13H96.67C93.36,98.19,88.82,68,89.77,66.7,91.18,66,99,65.6,109.7,65.6c8,0,11.11,1.66,11.72,2Z"></path><path fill="#00685a" d="M133.81,72.73c-1.64-3.18-12.2-7-16.9-7,2.59,15.41-9.1,26.36-9.1,34.89,0,9.7-6.9,25.49-6.9,29.56h41.65A119.25,119.25,0,0,1,139.39,115C137.89,105.16,141.35,87.36,133.81,72.73Z"></path><path fill="#000100" d="M139.63,114.93a76.51,76.51,0,0,1-.45-11.07c0-9.4.07-21.1-5.16-31.23-1.73-3.36-12.44-7.15-17.11-7.15a.26.26,0,0,0-.18.09.25.25,0,0,0,0,.19c1.57,9.32-2.07,16.87-5.28,23.53-2.05,4.26-3.83,7.94-3.83,11.32,0,5.85-2.51,13.88-4.52,20.34-1.33,4.24-2.38,7.59-2.38,9.22a.24.24,0,0,0,.24.24h41.65a.26.26,0,0,0,.19-.1.22.22,0,0,0,0-.21A121.33,121.33,0,0,1,139.63,114.93Zm-38.48,15c.09-1.66,1.14-5,2.34-8.85,2-6.49,4.55-14.56,4.55-20.48,0-3.28,1.75-6.91,3.78-11.12,3.05-6.33,6.84-14.19,5.37-23.53,5,.14,14.91,4,16.42,6.88,5.17,10,5.13,21.67,5.11,31a76.32,76.32,0,0,0,.44,11.14,126.45,126.45,0,0,0,3.09,14.94Z"></path><path fill="#000100" d="M115.27,39.28c-3.25-4-10.54,24.14-7.11,26.5s10.16-2.05,10.16.84A6.37,6.37,0,0,0,121,71.4s-4.61,3.8-.88,6.2c6,3.83,8.77-9.23,5-14.18S115.27,39.28,115.27,39.28Z"></path><path fill="#000100" d="M115.49,39.21l0-.07a1.12,1.12,0,0,0-.87-.47c-1.84,0-3.77,5.34-4.76,8.52-2.15,6.91-4,17.29-1.8,18.79a5,5,0,0,0,2.89.76,18.72,18.72,0,0,0,3.77-.53,13.73,13.73,0,0,1,2.4-.38c.83,0,1,.32,1,.79a6.41,6.41,0,0,0,2.55,4.8c-.62.57-2.3,2.28-2.19,4A3,3,0,0,0,120,77.79a4.08,4.08,0,0,0,2.21.74c1.41,0,2.68-1,3.58-2.8,1.68-3.38,1.91-9.32-.45-12.45C121.67,58.41,115.55,39.4,115.49,39.21Zm9.88,36.31c-.57,1.16-1.59,2.54-3.16,2.54a3.64,3.64,0,0,1-2-.66,2.54,2.54,0,0,1-1.35-2c-.11-1.88,2.23-3.84,2.25-3.86l.24-.2-.26-.17a6.21,6.21,0,0,1-2.58-4.59c0-.83-.5-1.25-1.47-1.25a14,14,0,0,0-2.5.38,18,18,0,0,1-3.67.53,4.49,4.49,0,0,1-2.62-.69c-1.75-1.2-.4-10.63,2-18.26,1.55-5,3.25-8.19,4.32-8.19a.62.62,0,0,1,.48.26c.41,1.26,6.24,19.3,9.91,24.16C127.16,66.47,127,72.27,125.37,75.52Z"></path><path fill="#00685a" d="M73,80.68c-2.41,7.81-8.33,25.25-12,25.82s-.28,4.26-.28,4.26c-10.15,3.68-13.36,19.42-5,19.42H80c1.84-4.27,4.42-24.93,4.42-24.93L83.11,68.91C78.73,69.46,75.44,72.87,73,80.68Z"></path><path fill="#000100" d="M79.81,129.94H55.73a4.24,4.24,0,0,1-4.44-3.89c-.89-5,3.07-12.74,9.5-15.07a.22.22,0,0,0,.15-.16.25.25,0,0,0-.06-.21c-.48-.52-1.64-2.07-1.31-3,.15-.44.64-.73,1.46-.86,4.08-.62,10.38-20,12.22-26,2.27-7.35,5.41-11,9.89-11.61l-.06-.46c-4.68.59-8,4.38-10.28,11.93C69.23,92.16,64,105.81,61,106.27c-1,.16-1.62.55-1.83,1.17-.4,1.12.69,2.62,1.18,3.22-6.55,2.57-10.4,10.21-9.48,15.47a4.72,4.72,0,0,0,4.9,4.28H80a.24.24,0,0,0,.21-.14c1.84-4.24,4.33-24.14,4.44-25l-.47,0C84.13,105.43,81.62,125.46,79.81,129.94Z"></path><path fill="url(#a)" d="M112,53.31l-13.45,5s4.14,7.43-4.28,7.43c0,0,3.4,7.56,10.24,7.56,7.69,0,12.4-7.56,12.4-7.56S112,66.54,112,53.31Z"></path><path fill="#000100" d="M116.74,65.48a3.13,3.13,0,0,1-2.51-1.7c-1.32-2-2-5.54-2-10.47V53l-14,5.17.13.24s1.78,3.22.57,5.29c-.7,1.18-2.26,1.78-4.64,1.78h-.36l.14.33c0,.08,3.55,7.7,10.46,7.7,7.73,0,12.55-7.59,12.6-7.67l.27-.43-.51.08ZM104.51,73c-5.8,0-9.12-5.66-9.87-7.09,2.35-.07,3.92-.74,4.67-2,1.15-2,0-4.69-.43-5.51l12.88-4.76c0,4.85.74,8.35,2.08,10.4a3.79,3.79,0,0,0,2.63,1.89C115.43,67.4,111,73,104.51,73Z"></path><path fill="#00685a" d="M101.69,99.41C101,82.3,90.22,84.58,94.27,65.7c-5.08,0-13.41,3.75-13.41,3.75s-2,16.84-2,26,3.53,12.32,1.88,18.93-3.87,15.79-3.87,15.79h53.26c0-1.8-2.25-4.81-2.25-4.81C119.34,117.1,102.48,118.49,101.69,99.41Z"></path><path fill="#000100" d="M117.83,119.1c-7.56-3.43-15.38-7-15.9-19.7a27.77,27.77,0,0,0-4.71-14.91c-2.66-4.44-5-8.28-2.73-18.74a.24.24,0,0,0,0-.2.26.26,0,0,0-.18-.09c-5.08,0-13.17,3.62-13.51,3.77a.26.26,0,0,0-.13.19c0,.17-2,17-2,26A37.09,37.09,0,0,0,80,105.17c.78,3.13,1.4,5.6.51,9.16-1.63,6.54-3.84,15.7-3.87,15.79a.24.24,0,0,0,.23.29h53.26a.23.23,0,0,0,.23-.24c0-1.86-2.2-4.82-2.32-5C125.25,122.47,121.47,120.76,117.83,119.1ZM77.2,129.94c.39-1.61,2.33-9.62,3.8-15.5.91-3.67.25-6.32-.51-9.39a36.27,36.27,0,0,1-1.37-9.6c0-8.62,1.77-24.24,2-25.84,1-.45,8.24-3.55,12.9-3.67-2.18,10.43.26,14.49,2.84,18.79a27,27,0,0,1,4.64,14.69c.54,13,8.48,16.61,16.17,20.11,3.78,1.71,7.35,3.33,10.09,6,0,0,2,2.71,2.2,4.44Z"></path><path fill="url(#b)" d="M70.55,115.23s-2-.67-4.25-1.27-4.45.46-7.5.39-2.85,2.59-1.65,4.08c0,0-3.28,3.42.67,4.84,0,0-1.51,2.58,2.08,3.63,0,0-4.06.42-5.92.42s-2.49,2.85.44,2.85c3.94,0,14.86.77,16.57-3,.52-1.14.82-2.53,1.79-4.69a7.92,7.92,0,0,0,.52-5.73C72.78,115.15,70.55,115.23,70.55,115.23Z"></path><path fill="#000100" d="M70.59,115c-.28-.09-2.17-.71-4.23-1.25a10.42,10.42,0,0,0-4,.06,19.05,19.05,0,0,1-3.52.31h-.13a2.34,2.34,0,0,0-2.36,1.18,3.29,3.29,0,0,0,.53,3.13c-.39.45-1.46,1.86-1.15,3.19a2.73,2.73,0,0,0,1.81,1.79,2.55,2.55,0,0,0-.07,1.93,2.77,2.77,0,0,0,1.46,1.44c-1.32.12-3.64.32-4.91.32a1.74,1.74,0,0,0-1.85,1.67,1.46,1.46,0,0,0,.57,1.16,2.75,2.75,0,0,0,1.72.49l1.77,0c.88,0,1.89,0,3,0h0c4.55,0,10.75-.34,12.06-3.23.22-.5.4-1,.61-1.65.29-.85.62-1.81,1.17-3a8.21,8.21,0,0,0,.53-5.91C73,115.12,71.11,115,70.59,115Zm2,7.36c-.56,1.26-.91,2.27-1.19,3.09-.21.6-.39,1.13-.6,1.6-1.33,3-9,3-11.6,3h0c-1.07,0-2.07,0-2.95,0l-1.78,0a2.26,2.26,0,0,1-1.43-.39,1,1,0,0,1-.39-.79A1.29,1.29,0,0,1,54,127.55c1.86,0,5.9-.41,5.94-.41l1.19-.12L60,126.68a3,3,0,0,1-2.1-1.52,2.22,2.22,0,0,1,.16-1.77l.14-.25-.27-.09a2.4,2.4,0,0,1-1.74-1.55c-.32-1.34,1.15-2.89,1.16-2.91l.15-.15-.13-.16a2.89,2.89,0,0,1-.6-2.78,2,2,0,0,1,1.94-.92h.12a19.88,19.88,0,0,0,3.6-.31,9.88,9.88,0,0,1,3.85-.08c2.2.58,4.21,1.25,4.23,1.26h.12c.35,0,2.07.06,2.49,1.33A7.79,7.79,0,0,1,72.57,122.35Z"></path><path fill="#00162c" d="M62.52,116.51a2.94,2.94,0,0,0-1.61-1.58.22.22,0,0,0-.28.16.23.23,0,0,0,.16.29,2.68,2.68,0,0,1,1.36,1.45l.06.11h.13s2.81.31,3.69,4c-.18.16-.83.53-2.33-.2-2.07-1-6.44-2.5-6.48-2.51a.24.24,0,0,0-.3.14.24.24,0,0,0,.15.3s4.39,1.5,6.43,2.49a4.12,4.12,0,0,0,1.76.49,1.42,1.42,0,0,0,1.23-.52l.05-.08,0-.1C65.7,117.31,63.13,116.62,62.52,116.51Z"></path><path fill="#d2d9d7" d="M47.24,101.6a1.06,1.06,0,0,0-1.5.14l-.08.1a1.06,1.06,0,0,0,.14,1.5l32.07,26.53a.48.48,0,0,0,.67-.07l.83-1a.46.46,0,0,0-.06-.66Z"></path><path fill="#000100" d="M47.39,101.42a1.34,1.34,0,0,0-1.83.17l-.08.1a1.29,1.29,0,0,0,.17,1.83l32.07,26.53a.75.75,0,0,0,.45.16.69.69,0,0,0,.55-.26l.83-1a.68.68,0,0,0,.16-.51.65.65,0,0,0-.25-.48Zm31.8,27.23-.83,1a.21.21,0,0,1-.34,0L46,103.16a.82.82,0,0,1-.3-.56.84.84,0,0,1,.19-.61l.08-.1a.83.83,0,0,1,.64-.3.8.8,0,0,1,.53.19l32.07,26.53a.26.26,0,0,1,.09.16A.21.21,0,0,1,79.19,128.65Z"></path><rect width="2.26" height="5.27" x="52.9" y="106.04" fill="#002938" transform="rotate(-50.41 54.015 108.667)"></rect><path fill="#000100" d="M52.86,106a.21.21,0,0,0-.17,0,.21.21,0,0,0-.16.08l-1.44,1.74a.24.24,0,0,0,0,.33l4.06,3.36a.25.25,0,0,0,.15,0h0a.26.26,0,0,0,.16-.09L57,109.64a.23.23,0,0,0,0-.33Zm2.44,5-3.7-3.06,1.14-1.38,3.7,3.06Z"></path><rect width="2.26" height="3.4" x="58.31" y="111.45" fill="#002938" rx=".86" transform="rotate(-50.4 59.436 113.145)"></rect><path fill="#000100" d="M59.66,111.57a1.13,1.13,0,0,0-1.54.14l-.34.42a1.06,1.06,0,0,0-.25.8,1.13,1.13,0,0,0,.39.74l1.3,1.07a1.11,1.11,0,0,0,.7.25,1.1,1.1,0,0,0,.84-.39l.34-.42a1.06,1.06,0,0,0,.25-.8,1.13,1.13,0,0,0-.39-.74Zm1.08,2.31-.34.42a.65.65,0,0,1-.88.08l-1.3-1.07a.6.6,0,0,1-.22-.43.57.57,0,0,1,.14-.45l.34-.42a.62.62,0,0,1,.48-.22.58.58,0,0,1,.4.14l1.3,1.07A.63.63,0,0,1,60.74,113.88Z"></path><path fill="#00162c" d="M65.83,121.13a.23.23,0,0,0-.26.21.23.23,0,0,0,.2.26c1.32.15,2.59,1.49,2.55,2.15,0,.08,0,.31-.57.31s-1.09.07-1.82.15a18.63,18.63,0,0,1-3.6.19,19.12,19.12,0,0,1-4.42-1.35.24.24,0,0,0-.31.13.23.23,0,0,0,.12.3,19.92,19.92,0,0,0,4.56,1.38,7.15,7.15,0,0,0,.82,0,28.12,28.12,0,0,0,2.88-.22c.72-.08,1.34-.15,1.77-.15.9,0,1-.53,1-.75C68.84,122.83,67.32,121.3,65.83,121.13Z"></path><path fill="#00162c" d="M67.84,124.08a.24.24,0,0,0-.31.12.24.24,0,0,0,.13.31c.19.08.49.27.54.43s0,.06,0,.12a7.09,7.09,0,0,1-3.67,2c-1.88.42-5.07-.5-5.1-.51a.25.25,0,0,0-.29.16.22.22,0,0,0,.16.29,16.72,16.72,0,0,0,4,.64,5.81,5.81,0,0,0,1.29-.13,7.48,7.48,0,0,0,4-2.23.57.57,0,0,0,.08-.52C68.51,124.37,67.91,124.11,67.84,124.08Z"></path><path fill="url(#c)" d="M67.59,116.88a7.91,7.91,0,0,1-1.8-.15c-2.13-.62-3.22,2.66,1.21,4a2.73,2.73,0,0,0,2.27-.29,5.33,5.33,0,0,0,2.83.33l-1.83-5.21S67.88,116.26,67.59,116.88Z"></path><path fill="#000100" d="M69.37,120.23l-.12-.07-.12.09a2.53,2.53,0,0,1-2.06.26c-2.34-.71-3.12-2-2.85-2.87a1.12,1.12,0,0,1,1.5-.68,7.83,7.83,0,0,0,1.87.15h.15l.06-.13a6.3,6.3,0,0,1,2.53-1.2l-.13-.44a7.32,7.32,0,0,0-2.74,1.31,7.32,7.32,0,0,1-1.6-.14,1.59,1.59,0,0,0-2.09,1c-.33,1.1.52,2.66,3.16,3.46a3.29,3.29,0,0,0,.88.13,3,3,0,0,0,1.48-.39,5.76,5.76,0,0,0,2.84.3l-.06-.46A5.21,5.21,0,0,1,69.37,120.23Z"></path><path fill="#00162c" d="M67.59 116.65a.23.23 0 100 .46c.75 0 .9.47.91.5a.23.23 0 00.23.16h.06a.24.24 0 00.16-.29A1.28 1.28 0 0067.59 116.65zM69.42 118.8a.23.23 0 00-.08.32.83.83 0 01-.22 1.1.22.22 0 000 .32.24.24 0 00.18.09.28.28 0 00.15 0 1.3 1.3 0 00.33-1.71A.23.23 0 0069.42 118.8z"></path><path fill="url(#d)" d="M114.38,41.07c-4.77,1-.81,6.5-.81,6.5s1.62.91,2.38-2.84S114.38,41.07,114.38,41.07Z"></path><path fill="#000100" d="M114.39,40.84h-.06A2.92,2.92,0,0,0,112,42.51c-.82,2.05,1.31,5.07,1.4,5.19l.07.07a1.27,1.27,0,0,0,.55.13c.7,0,1.65-.54,2.18-3.13a3.83,3.83,0,0,0-.38-3.25A1.88,1.88,0,0,0,114.39,40.84Zm1.34,3.84c-.64,3.09-1.77,2.79-2,2.7-.27-.39-2-3-1.31-4.7a2.46,2.46,0,0,1,2-1.37,1.41,1.41,0,0,1,1,.51A3.53,3.53,0,0,1,115.73,44.68Z"></path><path fill="url(#e)" d="M88.38,45.2s-2.13,1,.28,4,3.42,1.43,3.42,1.43S93.05,43.85,88.38,45.2Z"></path><path fill="#000100" d="M89.52,44.79a4.3,4.3,0,0,0-1.24.2,1.86,1.86,0,0,0-1,1.23c-.2.87.18,1.91,1.15,3.1s2,1.91,2.76,1.91a1.25,1.25,0,0,0,1-.51l0-.09c0-.14.47-3.43-.91-5A2.38,2.38,0,0,0,89.52,44.79Zm2.34,5.71a.81.81,0,0,1-.62.27c-.45,0-1.23-.31-2.4-1.75a3.47,3.47,0,0,1-1.06-2.69,1.45,1.45,0,0,1,.67-.91h0a2.35,2.35,0,0,1,2.62.5C92.2,47.24,91.91,50.05,91.86,50.5Z"></path><path fill="url(#f)" d="M111,32.11c-1.47-2.61-11.77-3.57-15.72-1.28s-7.15,9.41-5.84,14.74c1.53,6.21,4.27,10.74,7.85,12.36,4.24,1.92,5.2,3,8.14,2.55,4.2-.73,4.61-2.9,6.54-5.2,2.8-3.33,2.31-9.34,1.38-12.33C112.51,40.2,112.48,34.72,111,32.11Z"></path><path fill="#000100" d="M112.83 38.71c-.35-2.51-.71-5.1-1.61-6.72s-5.43-2.69-9.31-2.69a14.17 14.17 0 00-6.73 1.32c-3.82 2.21-7.32 9.39-6 15 1.59 6.46 4.43 10.91 8 12.53 1 .46 1.87.88 2.6 1.25 1.77.89 2.84 1.43 4.35 1.43a8.19 8.19 0 001.33-.12c3.33-.58 4.35-2.05 5.54-3.75.35-.5.7-1 1.14-1.53 2.83-3.37 2.38-9.49 1.42-12.55A29.54 29.54 0 01112.83 38.71zm-1 16.42c-.45.54-.81 1.06-1.17 1.57-1.17 1.68-2.09 3-5.23 3.55-2.13.36-3.21-.17-5.39-1.27-.73-.37-1.57-.79-2.61-1.26-3.43-1.55-6.17-5.89-7.72-12.21-1.33-5.42 2-12.36 5.72-14.48a14 14 0 016.5-1.26c4.29 0 8.12 1.06 8.9 2.45s1.22 4.09 1.56 6.55a28.15 28.15 0 00.78 4.25C114.07 46 114.53 51.9 111.81 55.13zM99.15 33.22l0-.06z"></path><path fill="#000100" d="M93.26,26.49S82.38,26.17,85,41c3.15,17.86,6-5.32,9.08-9.2,0,0,1.71,8.5,11.33,8.15a23.12,23.12,0,0,1-6.26-6.77l0-.06,0,.06c.31.53,3.12,4.77,13.34,6.64,0,0,1.16,5.41,3.56,2.19s.51-11.94-1.4-14.83C107.92,17,97.48,21.4,93.26,26.49Z"></path><path fill="#000100" d="M104.39,20.78a15.49,15.49,0,0,0-11.24,5.48,9,9,0,0,0-6.51,3c-2.17,2.58-2.8,6.55-1.87,11.79,1.08,6.09,2,6.87,2.74,6.87h0c1.29,0,2.3-3.09,3.81-8.18A38.69,38.69,0,0,1,94,32.38a10.87,10.87,0,0,0,10.86,7.86h.57l.7,0-.58-.4A25.58,25.58,0,0,1,101,35.5c1.88,1.52,5.33,3.45,11.32,4.56.17.72.87,3.25,2.29,3.25a2.25,2.25,0,0,0,1.65-1.12c2.44-3.26.56-12.13-1.39-15.1C112.14,23,108.52,20.78,104.39,20.78Zm11.48,21.13c-.46.62-.89.93-1.28.93-1,0-1.69-2.19-1.87-3l0-.15-.16,0c-10.63-1.94-13.18-6.53-13.2-6.58l-.42.22a22.23,22.23,0,0,0,5.81,6.5,10.3,10.3,0,0,1-10.41-8l-.1-.48-.31.38c-1.05,1.31-2.05,4.68-3,8-1,3.5-2.34,7.85-3.37,7.85h0c-.42,0-1.28-.85-2.28-6.49-.9-5.1-.31-8.94,1.77-11.41a8.56,8.56,0,0,1,6.25-2.87h.12l.07-.09a15.19,15.19,0,0,1,11-5.39c4,0,7.45,2.11,10.07,6.09C116.35,30.23,118.2,38.79,115.87,41.91Z"></path><path fill="#000100" d="M107.27 40.83a7.21 7.21 0 01-2.63-.09l-.11.45a7.51 7.51 0 002.83.1 2.33 2.33 0 012 .89l.37-.29A2.79 2.79 0 00107.27 40.83zM107.37 43a.81.81 0 101 .46A.82.82 0 00107.37 43z"></path><path fill="#000100" d="M107.29 42.82a1 1 0 00.37 2 1.22 1.22 0 00.38-.07 1 1 0 00.57-.55 1 1 0 000-.8A1.06 1.06 0 00107.29 42.82zm.9 1.21a.56.56 0 01-.32.3.6.6 0 01-.75-.33.58.58 0 01.33-.74.52.52 0 01.21 0 .59.59 0 01.54.37A.61.61 0 01108.19 44zM94.05 41.12a6 6 0 00-1.8 2.14l.42.2a5.62 5.62 0 011.65-2 1.9 1.9 0 012.1-.19l.25-.4A2.38 2.38 0 0094.05 41.12zM95.46 45a.81.81 0 10.81.81A.8.8 0 0095.46 45z"></path><path fill="#000100" d="M95.46 44.78a1 1 0 000 2.09h0a1 1 0 000-2.09zm0 1.62v0a.58.58 0 11.58-.57A.58.58 0 0195.46 46.4zM105.45 51.75a1.46 1.46 0 01.22 1.51 1.62 1.62 0 01-1.65 1v.46a2.1 2.1 0 002.08-1.24 1.93 1.93 0 00-.32-2zM100.63 50.41c-.41-.42-.22-1.28-.22-1.28L100 49a2.09 2.09 0 00.32 1.71 1.37 1.37 0 001 .39 2.56 2.56 0 00.47 0l-.08-.46A1.17 1.17 0 01100.63 50.41z"></path><path fill="url(#g)" d="M147.86,48a34.53,34.53,0,0,0-3.71-1.7c-1.55-.5-2.13.28-3.44.49s-1.84,1.21-1.39,1.69,1.94.46,1.94.46-1.9.81-3,1.37a4.9,4.9,0,0,0-1.79,1.59,11.08,11.08,0,0,0-.35,1.23s-2.53,3.75-1.4,4.75,2.33-1.73,2.33-1.73c.77.11,1.48-.76,1.48-.76.89,2.11-.1,2.6-3.76,5.61s-.49,3.33-.81,5.77-1,8.06-1,8.06c4.56,7.32,10.7,5.58,10.7,5.58s-3.58-11.59-.47-16.39,7.17-4.16,6.29-8.35S148.81,48.4,147.86,48Z"></path><path fill="#000100" d="M149.1,51.44c-.27-2.09-.43-3.35-1.15-3.64-.34-.14-.74-.35-1.15-.57a15.65,15.65,0,0,0-2.58-1.15,3.46,3.46,0,0,0-1-.17,3.67,3.67,0,0,0-1.43.34,6,6,0,0,1-1.1.32A2.06,2.06,0,0,0,139,47.75a.86.86,0,0,0,.16.9,2.05,2.05,0,0,0,1.15.47c-.64.28-1.5.68-2.11,1a5,5,0,0,0-1.89,1.68,9.55,9.55,0,0,0-.36,1.25c-.36.53-2.55,3.94-1.34,5a1.08,1.08,0,0,0,.73.31c1,0,1.68-1.45,1.91-2a2,2,0,0,0,1.24-.59c.52,1.48-.16,2-2.79,4.16l-1,.85c-2.49,2.05-2,3-1.39,4a2.89,2.89,0,0,1,.5,1.89c-.33,2.42-1,8-1,8.06v.08l0,.07c3.19,5.11,7.16,5.88,9.25,5.88a6.73,6.73,0,0,0,1.72-.19l.23-.07-.07-.23c0-.11-3.52-11.54-.5-16.19a13.62,13.62,0,0,1,4-3.89c1.69-1.2,2.91-2.07,2.37-4.64C149.44,54.05,149.25,52.6,149.1,51.44Zm-2,8.45a13.93,13.93,0,0,0-4.07,4c-2.92,4.51-.14,14.61.37,16.35a7.45,7.45,0,0,1-1.36.12c-2,0-5.75-.73-8.81-5.58.08-.71.67-5.72,1-8a3.23,3.23,0,0,0-.55-2.17c-.53-1-.92-1.65,1.28-3.45.37-.31.71-.59,1-.84,2.82-2.29,3.67-3,2.79-5.05l-.15-.35-.24.3s-.63.77-1.27.68l-.18,0-.07.17c-.19.47-.88,1.82-1.54,1.82a.61.61,0,0,1-.41-.18c-.72-.63.5-3.06,1.43-4.45l0-.07a9.75,9.75,0,0,1,.34-1.19,4.66,4.66,0,0,1,1.7-1.48c1-.55,2.92-1.36,2.94-1.37l1-.44h-1.15a2.88,2.88,0,0,1-1.72-.39.41.41,0,0,1-.06-.43,1.58,1.58,0,0,1,1.32-.87,5.38,5.38,0,0,0,1.19-.35,3.47,3.47,0,0,1,1.26-.3,2.9,2.9,0,0,1,.88.15,13.88,13.88,0,0,1,2.5,1.12c.43.22.83.43,1.19.58s.65,1.55.87,3.27c.15,1.17.34,2.63.67,4.23C149.79,58,148.79,58.71,147.13,59.89Z"></path><path fill="#00162c" d="M146.06 50.13l.05-.21-.21-.06a6.79 6.79 0 01-2.44-1.52l-.09-.08-.12 0s-1.56.37-2.2.47a.23.23 0 00-.19.27.24.24 0 00.27.19c.56-.09 1.73-.36 2.11-.44a7.51 7.51 0 002.33 1.47 3 3 0 00.21 1.91.24.24 0 00.2.11.24.24 0 00.12 0 .23.23 0 00.08-.32A2.72 2.72 0 01146.06 50.13zM141.23 53.53a5.3 5.3 0 00-2.77-1.66h-.07A8.38 8.38 0 00136 52.94a.24.24 0 00-.07.33.24.24 0 00.32.07 7.88 7.88 0 012.14-1h.05a5 5 0 012.43 1.52 12.08 12.08 0 011.52 2.07.26.26 0 00.21.11.2.2 0 00.11 0 .24.24 0 00.09-.32A13.54 13.54 0 00141.23 53.53z"></path><path fill="#00162c" d="M142.2 48.57a.25.25 0 00-.32.11A.24.24 0 00142 49a15.34 15.34 0 014.48 4.19.24.24 0 00.19.1.2.2 0 00.13 0 .24.24 0 00.06-.33A15.5 15.5 0 00142.2 48.57zM141.19 50.52c-1.83-.64-4.8 1.91-4.92 2a.24.24 0 000 .33.25.25 0 00.33 0c.8-.69 3.16-2.38 4.47-1.93 1.65.58 3.85 3 3.87 3a.25.25 0 00.18.08.22.22 0 00.15-.06.24.24 0 000-.33C145.17 53.57 143 51.14 141.19 50.52z"></path><path fill="#00685a" d="M132.53,69s-3.61,3.81-2.14,6.58c0,0-9.32,9.13-3.19,17.43s-12.5,37.18,3.93,37.18,21.82,2.12,23.29-9.78S147,76.19,147,76.19,142.3,77.14,132.53,69Z"></path><path fill="#000100" d="M147,76a2.77,2.77,0,0,1-.46,0c-1.22,0-5.84-.52-13.84-7.22a.23.23,0,0,0-.32,0c-.15.16-3.58,3.83-2.25,6.7C129,76.61,121.22,85.26,127,93.1c2.47,3.35.75,10.37-.91,17.16-1.72,7-3.5,14.32-.72,17.87,1.19,1.51,3.06,2.24,5.74,2.24,2.37,0,4.53,0,6.44.09,1.56,0,3,.06,4.36.06,8,0,11.59-1,12.73-10.13,1.46-11.81-7.32-43.94-7.41-44.26A.24.24,0,0,0,147,76Zm7.21,44.37c-1,8.38-3.82,9.72-12.26,9.72-1.32,0-2.79,0-4.35-.06-1.91,0-4.08-.09-6.45-.09s-4.28-.67-5.37-2.06c-2.64-3.37-.89-10.54.8-17.47s3.43-14,.83-17.54c-5.94-8,3.07-17,3.17-17.13a.24.24,0,0,0,0-.28c-1.21-2.27,1.31-5.4,2-6.15,7.78,6.49,12.35,7.19,14,7.19h.33C147.58,79.15,155.58,109.09,154.19,120.33Z"></path><path d="M130.22 74.88c3.79 13.62 10.12 7.73 10.12 7.73A23.51 23.51 0 01130.22 74.88zM127 92.48c2 4.54 1.35 7.51 1.35 7.51 5.07 7.3 10.37-3.43 10.85-6.63C133.57 100.21 127 92.48 127 92.48z" style="mix-blend-mode:multiply" fill="#5b7895" opacity=".55"></path><path fill="#00162c" d="M72.17 112.12c-.57-.4-1.06-.76-1.42-1.06-2.1-1.78-9.75-.58-10.08-.53l.08.46c.07 0 7.76-1.22 9.7.42.37.32.87.68 1.44 1.09 2.5 1.8 6.28 4.53 5.54 8.1l.46.1C78.69 116.82 74.76 114 72.17 112.12zM61.24 106.22l-.08.46a52.09 52.09 0 007.42.74 8.94 8.94 0 002.58-.28L71 106.7C68.55 107.48 61.31 106.23 61.24 106.22z"></path><rect width="54.65" height="24.61" x="75.07" y="103.96" fill="#fff" rx="3.47"></rect><path fill="#0e0e27" d="M126.25,103.73H78.54a3.7,3.7,0,0,0-3.7,3.7V125.1a3.71,3.71,0,0,0,3.7,3.71h47.71a3.71,3.71,0,0,0,3.7-3.71V107.43A3.7,3.7,0,0,0,126.25,103.73Zm3.24,21.37a3.24,3.24,0,0,1-3.24,3.24H78.54a3.24,3.24,0,0,1-3.24-3.24V107.43a3.25,3.25,0,0,1,3.24-3.24h47.71a3.25,3.25,0,0,1,3.24,3.24Z"></path><rect width="54.65" height="24.61" x="75.07" y="105.27" fill="#000100" rx="3.47"></rect><path fill="#000100" d="M126.25,105H78.54a3.71,3.71,0,0,0-3.7,3.71v17.67a3.7,3.7,0,0,0,3.7,3.7h47.71a3.7,3.7,0,0,0,3.7-3.7V108.74A3.71,3.71,0,0,0,126.25,105Zm3.24,21.38a3.24,3.24,0,0,1-3.24,3.24H78.54a3.24,3.24,0,0,1-3.24-3.24V108.74a3.24,3.24,0,0,1,3.24-3.24h47.71a3.24,3.24,0,0,1,3.24,3.24Z"></path><rect width="10.04" height="3.8" x="118.12" y="106.81" fill="#d2d9d7" rx="1.79"></rect><path fill="#000100" d="M126.37,106.58h-6.46a2,2,0,0,0-2,2v.22a2,2,0,0,0,2,2h6.46a2,2,0,0,0,2-2v-.22A2,2,0,0,0,126.37,106.58Zm1.56,2.24a1.56,1.56,0,0,1-1.56,1.56h-6.46a1.55,1.55,0,0,1-1.55-1.56v-.22a1.55,1.55,0,0,1,1.55-1.56h6.46a1.56,1.56,0,0,1,1.56,1.56Z"></path><path fill="#00685a" d="M126.13,107.72a1,1,0,1,0,1,1A1,1,0,0,0,126.13,107.72Z"></path><path fill="#000100" d="M126.13,107.49a1.2,1.2,0,1,0,1.2,1.19A1.19,1.19,0,0,0,126.13,107.49Zm0,1.92a.73.73,0,1,1,.73-.73A.73.73,0,0,1,126.13,109.41Z"></path><path fill="#00685a" d="M123.4,107.72a1,1,0,1,0,1,1A1,1,0,0,0,123.4,107.72Z"></path><path fill="#000100" d="M123.4,107.49a1.2,1.2,0,0,0,0,2.39,1.2,1.2,0,1,0,0-2.39Zm0,1.92a.73.73,0,1,1,.73-.73A.73.73,0,0,1,123.4,109.41Z"></path><path fill="#fff" d="M120.33,108.21a.48.48,0,0,0-.48.47.49.49,0,0,0,.48.48.48.48,0,0,0,.47-.48A.47.47,0,0,0,120.33,108.21Z"></path><path fill="#0e0e27" d="M120.33,108a.7.7,0,0,0-.71.7.71.71,0,0,0,.71.71.7.7,0,0,0,.7-.71A.7.7,0,0,0,120.33,108Zm0,.94a.24.24,0,1,1,.24-.24A.24.24,0,0,1,120.33,108.92Z"></path><path fill="#fff" d="M122.93,111.64a.65.65,0,0,0-.66.66v12.8a3.46,3.46,0,0,1-3.46,3.46h-31a3.46,3.46,0,0,1-3.46-3.46V112.3a.66.66,0,0,0-1.32,0v12.8a4.79,4.79,0,0,0,4.78,4.78h31a4.79,4.79,0,0,0,4.78-4.78V112.3A.65.65,0,0,0,122.93,111.64Z"></path><path fill="#0e0e27" d="M122.93,111.4a.89.89,0,0,0-.89.9v12.8a3.23,3.23,0,0,1-3.23,3.22h-31a3.22,3.22,0,0,1-3.22-3.22V112.3a.9.9,0,1,0-1.79,0v12.8a5,5,0,0,0,5,5h31a5,5,0,0,0,5-5V112.3A.9.9,0,0,0,122.93,111.4Zm.43,13.7a4.55,4.55,0,0,1-4.55,4.55h-31a4.55,4.55,0,0,1-4.55-4.55V112.3a.43.43,0,1,1,.86,0v12.8a3.69,3.69,0,0,0,3.69,3.69h31a3.69,3.69,0,0,0,3.69-3.69V112.3a.43.43,0,0,1,.86,0Z"></path><path fill="#002938" d="M76,57.56l-18.23-.1A3.41,3.41,0,0,0,54.38,61v9.58a3.48,3.48,0,0,0,3.35,3.55l5,0L66,77.55a1.21,1.21,0,0,0,1.76,0l3.22-3.39,5,0a3.42,3.42,0,0,0,3.34-3.51V61.11A3.47,3.47,0,0,0,76,57.56Z"></path><path fill="#000100" d="M76,57.33,57.7,57.22A3.66,3.66,0,0,0,54.14,61v9.58a3.7,3.7,0,0,0,3.58,3.78l4.92,0,3.15,3.35a1.49,1.49,0,0,0,1.06.46,1.44,1.44,0,0,0,1-.45L71,74.41l4.93,0h0a3.67,3.67,0,0,0,3.56-3.75V61.11A3.71,3.71,0,0,0,76,57.33Zm3.11,13.36A3.2,3.2,0,0,1,76,74l-5,0a.23.23,0,0,0-.17.07l-3.22,3.38a1,1,0,0,1-1.42,0L62.91,74a.21.21,0,0,0-.16-.08l-5,0a3.23,3.23,0,0,1-3.11-3.31V61a3.2,3.2,0,0,1,3.11-3.28l18.23.1a3.24,3.24,0,0,1,3.11,3.32Z"></path><path fill="#fff" d="M67.12 62.42a2.51 2.51 0 00-3 .43 2.53 2.53 0 00-3.08-.54A2.83 2.83 0 0059.94 66C60.6 67.4 64.12 70 64.12 70s3.51-2.47 4.17-3.84A2.86 2.86 0 0067.12 62.42zM73.59 62.71a.52.52 0 00-.61.11L71.4 64.41a.63.63 0 000 .85.55.55 0 00.81 0l.61-.62V69a.57.57 0 101.14 0V63.26A.6.6 0 0073.59 62.71z"></path><path fill="#ff4700" d="M77,31.22,56.6,31.11A3.84,3.84,0,0,0,52.86,35V45.78a3.89,3.89,0,0,0,3.74,4l5.64,0,3.61,3.83a1.33,1.33,0,0,0,2,0l3.61-3.79,5.61,0a3.84,3.84,0,0,0,3.75-3.93V35.2A3.9,3.9,0,0,0,77,31.22Z"></path><path fill="#000100" d="M77,31l-20.45-.11a3.83,3.83,0,0,0-2.8,1.22A4.26,4.26,0,0,0,52.62,35V45.78a4.12,4.12,0,0,0,4,4.21l5.53,0,3.55,3.76a1.58,1.58,0,0,0,1.16.51,1.56,1.56,0,0,0,1.14-.5l3.54-3.72,5.53,0a3.85,3.85,0,0,0,2.81-1.22A4.29,4.29,0,0,0,81,45.94V35.2A4.11,4.11,0,0,0,77,31Zm2.49,17.57A3.42,3.42,0,0,1,77,49.64l-5.62,0a.21.21,0,0,0-.17.07l-3.61,3.79a1.12,1.12,0,0,1-1.62,0l-3.61-3.83a.23.23,0,0,0-.17-.07l-5.64,0a3.65,3.65,0,0,1-3.51-3.74V35a3.75,3.75,0,0,1,1-2.61,3.37,3.37,0,0,1,2.48-1.09L77,31.46a3.65,3.65,0,0,1,3.51,3.74V45.94A3.84,3.84,0,0,1,79.52,48.56Z"></path><path fill="#fff" d="M67.91 40.21a4.53 4.53 0 00-4.38-4.65 4.47 4.47 0 00-4.38 4.6 4.53 4.53 0 004.38 4.65A4.19 4.19 0 0066.07 44h3.05l-1.65-1.75A4.82 4.82 0 0067.91 40.21zM74.09 36.31a.63.63 0 00-.69.13l-1.76 1.78a.71.71 0 000 1 .62.62 0 00.9 0l.69-.69v4.82a.66.66 0 00.63.68.65.65 0 00.64-.67V36.93A.67.67 0 0074.09 36.31z"></path><path fill="#002938" d="M74.44,83.4l-15.3.06a2.89,2.89,0,0,0-2.78,3l.07,8a2.9,2.9,0,0,0,2.83,3l4.22,0,2.73,2.85a1,1,0,0,0,1.47,0l2.68-2.86,4.2,0a2.86,2.86,0,0,0,2.78-3l-.07-8.05A2.91,2.91,0,0,0,74.44,83.4Z"></path><path fill="#000100" d="M74.44,83.17l-15.3.06a3,3,0,0,0-2.09.89,3.28,3.28,0,0,0-.92,2.32l.06,8a3.15,3.15,0,0,0,3.07,3.18h4.12L66,100.42a1.24,1.24,0,0,0,.9.39,1.22,1.22,0,0,0,.91-.4l2.61-2.79h4.1a3,3,0,0,0,2.09-.89,3.31,3.31,0,0,0,.93-2.32l-.07-8.05A3.15,3.15,0,0,0,74.44,83.17Zm1.88,13.22a2.48,2.48,0,0,1-1.76.75h-4.2a.21.21,0,0,0-.17.08l-2.68,2.87a.8.8,0,0,1-1.14,0l-2.72-2.85a.28.28,0,0,0-.17-.07h0l-4.23,0a2.67,2.67,0,0,1-2.59-2.72l-.07-8a2.82,2.82,0,0,1,.8-2,2.45,2.45,0,0,1,1.75-.76l15.31,0A2.67,2.67,0,0,1,77,86.36l.07,8A2.8,2.8,0,0,1,76.32,96.39Z"></path><path fill="#fff" d="M64.71 87.07a1.84 1.84 0 101.75 1.83A1.79 1.79 0 0064.71 87.07zM64.76 92.33c-1.29 0-2.33.1-2.32 1.45h4.65C67.08 92.41 66 92.32 64.76 92.33zM71.37 87.38a.46.46 0 00-.52.11l-1.31 1.4a.54.54 0 000 .72.46.46 0 00.67 0l.51-.53 0 3.69a.5.5 0 00.48.5.49.49 0 00.47-.51l0-4.9A.51.51 0 0071.37 87.38z"></path></g></svg>