<svg xmlns="http://www.w3.org/2000/svg" viewBox="0 0 200 150" id="marketing-target"><g data-name="Layer 1"><polygon fill="#000100" points="44.17 25.98 122.93 25.98 124.25 23.48 43.55 22.86 44.17 25.98"></polygon><path fill="#000100" d="M124.25,23.25l-80.7-.62a.33.33,0,0,0-.18.08.29.29,0,0,0,0,.2L43.94,26a.23.23,0,0,0,.23.18h78.76a.24.24,0,0,0,.2-.12l1.32-2.5a.24.24,0,0,0,0-.23A.23.23,0,0,0,124.25,23.25Zm-1.46,2.49H44.36l-.52-2.65,80,.61Z"></path><polygon fill="#002938" points="44.72 129.63 48.27 129.63 54.83 42.06 51.27 42.06 44.72 129.63"></polygon><path fill="#000100" d="M54.83,41.83H51.27A.23.23,0,0,0,51,42l-6.55,87.57a.2.2,0,0,0,.06.18.21.21,0,0,0,.17.08h3.55a.24.24,0,0,0,.24-.22l6.55-87.57A.2.2,0,0,0,55,41.9.21.21,0,0,0,54.83,41.83ZM48.06,129.4H45l6.52-87.11h3.09Z"></path><polygon fill="#002938" points="92.53 129.63 96.08 129.63 102.09 47.52 98.53 47.52 92.53 129.63"></polygon><path fill="#000100" d="M102.09,47.28H98.53a.24.24,0,0,0-.23.22l-6,82.12a.23.23,0,0,0,.07.17.21.21,0,0,0,.17.08h3.55a.24.24,0,0,0,.24-.22l6-82.12a.25.25,0,0,0-.06-.17A.25.25,0,0,0,102.09,47.28ZM95.87,129.4H92.78l6-81.65h3.09Z"></path><polygon fill="#00685a" points="69.85 108.84 74.1 129.6 77.66 129.6 73.4 108.84 69.85 108.84"></polygon><path fill="#000100" d="M73.4,108.6H69.85a.24.24,0,0,0-.18.09.2.2,0,0,0,0,.19l4.25,20.76a.24.24,0,0,0,.23.19h3.56a.25.25,0,0,0,.18-.08.24.24,0,0,0,0-.2l-4.25-20.76A.24.24,0,0,0,73.4,108.6Zm.89,20.76-4.16-20.29h3.08l4.16,20.29Z"></path><polygon fill="#00685a" points="129.39 108.84 133.65 129.6 137.2 129.6 132.95 108.84 129.39 108.84"></polygon><path fill="#000100" d="M133,108.6h-3.56a.24.24,0,0,0-.18.09.26.26,0,0,0-.05.19l4.26,20.76a.23.23,0,0,0,.23.19h3.55a.23.23,0,0,0,.18-.08.24.24,0,0,0,.05-.2l-4.26-20.76A.22.22,0,0,0,133,108.6Zm.89,20.76-4.16-20.29h3.08l4.16,20.29Z"></path><polygon fill="#00685a" points="45.87 23.05 64.23 115.46 136.55 115.46 138.94 112.77 121.18 23.4 45.87 23.05"></polygon><path fill="#000100" d="M121.18,23.17l-75.31-.35a.19.19,0,0,0-.18.08.21.21,0,0,0,0,.2L64,115.5a.24.24,0,0,0,.23.19h72.32a.25.25,0,0,0,.18-.08l2.39-2.68a.21.21,0,0,0,0-.2L121.41,23.36A.24.24,0,0,0,121.18,23.17Zm15.27,92.05h-72L46.15,23.28l74.84.36,17.7,89.06Z"></path><polygon fill="#d2d9d7" points="49.07 24.47 66.62 112.77 138.94 112.77 121.4 24.47 49.07 24.47"></polygon><path fill="#000100" d="M121.4,24.24H49.07a.23.23,0,0,0-.18.09.25.25,0,0,0,0,.19l17.55,88.3a.24.24,0,0,0,.23.19H139a.24.24,0,0,0,.18-.09.21.21,0,0,0,0-.19l-17.54-88.3A.24.24,0,0,0,121.4,24.24Zm-54.59,88.3L49.36,24.71h71.85l17.45,87.83Z"></path><polygon fill="#00685a" points="44.72 20.37 45.34 23.48 124.25 23.48 123.63 20.37 44.72 20.37"></polygon><path fill="#000100" d="M123.63,20.13H44.72a.21.21,0,0,0-.18.09.19.19,0,0,0,0,.19l.62,3.12a.23.23,0,0,0,.23.19h78.91a.23.23,0,0,0,.18-.09.25.25,0,0,0,0-.19l-.62-3.12A.24.24,0,0,0,123.63,20.13Zm-78.1,3.12L45,20.6h78.44l.52,2.65Z"></path><polygon fill="#002938" points="43.55 22.86 44.17 25.98 45.34 23.48 44.72 20.37 43.55 22.86"></polygon><path fill="#000100" d="M44.74,20.14a.24.24,0,0,0-.24.13l-1.16,2.49a.26.26,0,0,0,0,.15L43.94,26a.22.22,0,0,0,.2.18h0a.23.23,0,0,0,.21-.13l1.17-2.5a.22.22,0,0,0,0-.14l-.62-3.12A.22.22,0,0,0,44.74,20.14Zm-.48,5.09-.47-2.34.84-1.78.46,2.34Z"></path><path fill="#fff" d="M125.84 64a.22.22 0 00-.18.27l5.45 27.67a.24.24 0 00.23.19h0a.25.25 0 00.19-.28l-5.45-27.67A.23.23 0 00125.84 64zM109.47 64a.22.22 0 00-.18.27l5.45 27.67a.24.24 0 00.23.19h0a.25.25 0 00.19-.28l-5.46-27.67A.22.22 0 00109.47 64zM93.1 64a.23.23 0 00-.19.27l5.46 27.67a.24.24 0 00.23.19h0a.25.25 0 00.19-.28L93.37 64.16A.22.22 0 0093.1 64zM76.73 64a.23.23 0 00-.19.27L82 91.92a.24.24 0 00.23.19h0a.23.23 0 00.18-.28L77 64.16A.22.22 0 0076.73 64zM60.36 64a.23.23 0 00-.19.27l5.45 27.67a.24.24 0 00.23.19h.05a.24.24 0 00.18-.28L60.63 64.16A.22.22 0 0060.36 64z"></path><path fill="#fff" d="M127.3 69.26H61.82a.23.23 0 00-.23.24.23.23 0 00.23.23H127.3a.23.23 0 00.24-.23A.24.24 0 00127.3 69.26zM125.82 63.63H60.33a.23.23 0 100 .46h65.49a.23.23 0 100-.46zM131.41 91.7H65.92a.23.23 0 000 .46h65.49a.23.23 0 000-.46zM128.06 74.36H62.58a.24.24 0 00-.24.24.23.23 0 00.24.23h65.48a.23.23 0 00.23-.23A.23.23 0 00128.06 74.36zM129 79.48H63.55a.23.23 0 100 .46H129a.23.23 0 100-.46zM130.35 84.59H64.87a.23.23 0 00-.23.23.23.23 0 00.23.24h65.48a.24.24 0 00.24-.24A.23.23 0 00130.35 84.59z"></path><path fill="#ff4700" d="M118.78,69.55,99.87,67.24a.61.61,0,0,0-.56.22L87,82.55l-6.21-4.36a.62.62,0,0,0-.76,0L66.87,89.42l.81,1L80.5,79.48l6.29,4.42a.62.62,0,0,0,.84-.11l12.43-15.28,18.81,2.31a.64.64,0,0,0,.45-.11L124,67.27l-.73-1Z"></path><polygon fill="#fff" points="71.42 104.14 71.76 105.84 84.07 105.85 83.73 104.15 71.42 104.14"></polygon><path fill="#0e0e27" d="M83.73,103.92H71.42a.24.24,0,0,0-.23.28l.34,1.7a.24.24,0,0,0,.23.19H84.07a.23.23,0,0,0,.18-.08.2.2,0,0,0,0-.19l-.34-1.7A.24.24,0,0,0,83.73,103.92ZM72,105.61l-.25-1.23H83.54l.25,1.24Z"></path><polygon fill="#fff" points="85.61 104.15 85.96 105.85 90.39 105.85 90.05 104.15 85.61 104.15"></polygon><path fill="#0e0e27" d="M90,103.92H85.61a.25.25,0,0,0-.18.08.29.29,0,0,0-.05.2l.35,1.7a.23.23,0,0,0,.23.19h4.43a.21.21,0,0,0,.18-.09.25.25,0,0,0,.05-.19l-.35-1.7A.23.23,0,0,0,90,103.92Zm-3.89,1.7-.25-1.23h3.95l.25,1.23Z"></path><polygon fill="#fff" points="91.93 104.16 92.27 105.86 95.28 105.86 94.94 104.16 91.93 104.16"></polygon><path fill="#0e0e27" d="M94.94,103.92h-3a.21.21,0,0,0-.18.09.19.19,0,0,0,0,.19l.34,1.7a.24.24,0,0,0,.23.19h3a.24.24,0,0,0,.23-.28l-.34-1.7A.24.24,0,0,0,94.94,103.92Zm-2.48,1.7-.25-1.23h2.54l.25,1.23Z"></path><polygon fill="#fff" points="70.63 100.26 70.98 101.96 77.69 101.96 77.34 100.26 70.63 100.26"></polygon><path fill="#0e0e27" d="M77.34,100H70.63a.25.25,0,0,0-.18.08.29.29,0,0,0,0,.2l.35,1.7a.23.23,0,0,0,.23.18h6.7a.25.25,0,0,0,.19-.09.21.21,0,0,0,0-.19l-.34-1.7A.24.24,0,0,0,77.34,100Zm-6.17,1.7-.25-1.24h6.23l.25,1.23Z"></path><polygon fill="#fff" points="79.22 100.27 79.56 101.97 87.79 101.97 87.44 100.27 79.22 100.27"></polygon><path fill="#0e0e27" d="M87.44,100H79.22a.23.23,0,0,0-.18.09.25.25,0,0,0-.05.19l.35,1.7a.23.23,0,0,0,.23.19h8.22a.25.25,0,0,0,.18-.08.29.29,0,0,0,0-.2l-.35-1.7A.24.24,0,0,0,87.44,100Zm-7.68,1.7-.25-1.23h7.74l.25,1.23Z"></path><polygon fill="#fff" points="89.32 100.27 89.67 101.97 92.68 101.97 92.34 100.27 89.32 100.27"></polygon><path fill="#0e0e27" d="M92.34,100h-3a.25.25,0,0,0-.18.08.24.24,0,0,0,0,.2l.34,1.7a.24.24,0,0,0,.23.18h3a.23.23,0,0,0,.18-.08.22.22,0,0,0,0-.19l-.34-1.71A.23.23,0,0,0,92.34,100Zm-2.48,1.7-.25-1.24h2.54l.25,1.24Z"></path><polygon fill="#fff" points="93.98 100.27 94.33 101.97 97.34 101.97 96.99 100.27 93.98 100.27"></polygon><path fill="#0e0e27" d="M97,100H94a.23.23,0,0,0-.18.08.29.29,0,0,0,0,.2l.35,1.7a.23.23,0,0,0,.23.19h3a.23.23,0,0,0,.18-.09.25.25,0,0,0,0-.19l-.35-1.7A.24.24,0,0,0,97,100Zm-2.47,1.7-.25-1.23H96.8l.25,1.23Z"></path><polygon fill="#fff" points="69.85 96.38 70.19 98.08 75.05 98.08 74.7 96.38 69.85 96.38"></polygon><path fill="#0e0e27" d="M74.7,96.15H69.85a.21.21,0,0,0-.18.09.19.19,0,0,0,0,.19l.34,1.7a.24.24,0,0,0,.23.19h4.86a.25.25,0,0,0,.18-.08.24.24,0,0,0,0-.2l-.34-1.7A.23.23,0,0,0,74.7,96.15Zm-4.32,1.69-.25-1.23h4.38l.25,1.24Z"></path><polygon fill="#fff" points="76.58 96.38 76.92 98.08 78.58 98.08 78.24 96.38 76.58 96.38"></polygon><path fill="#0e0e27" d="M78.24,96.15H76.58a.25.25,0,0,0-.18.08.29.29,0,0,0-.05.2l.35,1.7a.23.23,0,0,0,.22.18h1.67a.25.25,0,0,0,.18-.08.24.24,0,0,0,0-.2l-.34-1.7A.24.24,0,0,0,78.24,96.15Zm-1.12,1.7-.25-1.24h1.18l.25,1.24Z"></path><polygon fill="#fff" points="80.12 96.38 80.47 98.08 83.48 98.08 83.13 96.38 80.12 96.38"></polygon><path fill="#0e0e27" d="M83.13,96.15h-3a.23.23,0,0,0-.18.08.29.29,0,0,0,0,.2l.35,1.7a.22.22,0,0,0,.22.19h3a.26.26,0,0,0,.18-.09.25.25,0,0,0,0-.19l-.35-1.7A.23.23,0,0,0,83.13,96.15Zm-2.47,1.7-.25-1.24h2.53l.25,1.23Z"></path><path fill="#fff" d="M79.87,27.85A6.11,6.11,0,0,0,73.63,35a8.54,8.54,0,0,0,8.14,7.24A6.11,6.11,0,0,0,88,35.1,8.57,8.57,0,0,0,79.87,27.85Z"></path><path fill="#0e0e27" d="M79.82,27.62a6.4,6.4,0,0,0-4.93,2.15A6.48,6.48,0,0,0,73.4,35a8.78,8.78,0,0,0,8.37,7.44h.06a6.42,6.42,0,0,0,4.92-2.14,6.54,6.54,0,0,0,1.5-5.25A8.81,8.81,0,0,0,79.82,27.62ZM86.4,40a6,6,0,0,1-4.57,2v.24L81.77,42a8.3,8.3,0,0,1-7.91-7,5.87,5.87,0,0,1,6-6.87h0a8.31,8.31,0,0,1,7.91,7A6,6,0,0,1,86.4,40Z"></path><path fill="#000100" d="M81.24,31c-.58-1.46-5-2.22-4.1.82.37,1.25,0,2.63.57,3l6.15,0c.25,0,.53-1,0-2.13C83,30.6,81.24,31,81.24,31Z"></path><path fill="#000100" d="M81.38,30.77a3.35,3.35,0,0,0-2.72-1.25,1.67,1.67,0,0,0-1.74,2.39,7.18,7.18,0,0,1,.2,1.56c0,.7,0,1.3.45,1.59l.06,0,6.23,0h0a.4.4,0,0,0,.34-.2,2.67,2.67,0,0,0-.08-2.25A2.66,2.66,0,0,0,81.38,30.77Zm2.43,3.92-6,0a2.19,2.19,0,0,1-.22-1.19,6.7,6.7,0,0,0-.21-1.67,1.47,1.47,0,0,1,.08-1.33A1.45,1.45,0,0,1,78.66,30,2.72,2.72,0,0,1,81,31.12l.07.18.2,0a1.41,1.41,0,0,1,.31,0,2.25,2.25,0,0,1,2.08,1.65A2.24,2.24,0,0,1,83.81,34.69Z"></path><path fill="#fff" d="M77,40.55a8.14,8.14,0,0,0,4.79,1.68,6.31,6.31,0,0,0,4.36-1.61A8.16,8.16,0,0,0,81.34,39,6.33,6.33,0,0,0,77,40.55Z"></path><path fill="#0e0e27" d="M81.28,38.71a6.58,6.58,0,0,0-4.46,1.67.27.27,0,0,0-.08.19.25.25,0,0,0,.1.17,8.36,8.36,0,0,0,4.93,1.72h.06a6.6,6.6,0,0,0,4.46-1.66.27.27,0,0,0,.08-.19.23.23,0,0,0-.1-.17A8.52,8.52,0,0,0,81.28,38.71ZM81.83,42v.24L81.77,42a7.93,7.93,0,0,1-4.42-1.45,6.19,6.19,0,0,1,4-1.36h0a7.94,7.94,0,0,1,4.42,1.46A6.14,6.14,0,0,1,81.83,42Z"></path><path fill="#fff" d="M82.17,37.69a1.2,1.2,0,0,0-1.13-1,.85.85,0,0,0-.87,1l.19,1.44a1.18,1.18,0,0,0,1.13,1,.84.84,0,0,0,.87-1Z"></path><path fill="#0e0e27" d="M82.4,37.66A1.43,1.43,0,0,0,81,36.45a1.09,1.09,0,0,0-.83.36,1.13,1.13,0,0,0-.26.89l.19,1.44a1.44,1.44,0,0,0,1.36,1.21h0a1.06,1.06,0,0,0,.83-.37,1.11,1.11,0,0,0,.26-.88Zm-.42,2a.6.6,0,0,1-.48.21v0a.93.93,0,0,1-.89-.8l-.19-1.44a.63.63,0,0,1,.14-.52.65.65,0,0,1,.49-.2.93.93,0,0,1,.89.8l.2,1.44A.64.64,0,0,1,82,39.67Z"></path><path fill="#fff" d="M80.3,31.09c-1.66,0-2.8,1.58-2.54,3.57a3.42,3.42,0,0,0,3.42,3.12,2.48,2.48,0,0,0,2.61-3.08C83.52,32.72,82,31.1,80.3,31.09Z"></path><path fill="#0e0e27" d="M80.28,30.85a2.61,2.61,0,0,0-2,.91,3.69,3.69,0,0,0-.77,2.93A3.65,3.65,0,0,0,81.18,38h0a2.86,2.86,0,0,0,2.2-.9A3,3,0,0,0,84,34.67,4.23,4.23,0,0,0,80.28,30.85Zm2.78,6a2.4,2.4,0,0,1-1.85.74v.23l0-.23A3.2,3.2,0,0,1,78,34.63a3.26,3.26,0,0,1,.66-2.57,2.15,2.15,0,0,1,1.65-.74c1.55,0,3,1.54,3.25,3.42A2.52,2.52,0,0,1,83.06,36.81Z"></path><path fill="#000100" d="M77.68,32.37c2,1.07,3.14-1.2,3.14-1.2C79.89,30,75.66,31.29,77.68,32.37Z"></path><path fill="#000100" d="M79.47,30.48c-1.09,0-2.38.45-2.54,1.12-.07.26,0,.63.64,1a2.52,2.52,0,0,0,1.17.32A2.84,2.84,0,0,0,81,31.27l.07-.13L81,31A2,2,0,0,0,79.47,30.48Zm-.73,1.94a2.1,2.1,0,0,1-.95-.26c-.14-.07-.46-.26-.41-.44.08-.34,1.09-.77,2.09-.77a1.74,1.74,0,0,1,1,.26A2.28,2.28,0,0,1,78.74,32.42Z"></path><path fill="#fff" d="M72.41,46.26a6.11,6.11,0,0,0-6.25,7.13,8.55,8.55,0,0,0,8.15,7.24,6.1,6.1,0,0,0,6.24-7.13A8.54,8.54,0,0,0,72.41,46.26Z"></path><path fill="#0e0e27" d="M72.35,46a6.46,6.46,0,0,0-4.93,2.14,6.56,6.56,0,0,0-1.49,5.25,8.8,8.8,0,0,0,8.37,7.45h.06a6.44,6.44,0,0,0,4.93-2.15,6.52,6.52,0,0,0,1.49-5.25A8.8,8.8,0,0,0,72.35,46Zm6.59,12.39a6,6,0,0,1-4.58,2v.23l0-.23a8.3,8.3,0,0,1-7.91-7,5.88,5.88,0,0,1,6-6.87h0a8.32,8.32,0,0,1,7.91,7A6.13,6.13,0,0,1,78.94,58.42Z"></path><path fill="#000100" d="M73.78,49.44c-.58-1.46-5-2.23-4.1.81.37,1.25,0,2.63.56,3l6.16,0c.24,0,.53-1,0-2.13C75.53,49,73.78,49.44,73.78,49.44Z"></path><path fill="#000100" d="M73.91,49.18a3.35,3.35,0,0,0-2.72-1.26,1.9,1.9,0,0,0-1.58.65,1.94,1.94,0,0,0-.16,1.75,6.13,6.13,0,0,1,.2,1.56c0,.69,0,1.3.46,1.59l.06,0,6.22.05h0a.41.41,0,0,0,.33-.21,3.15,3.15,0,0,0-2.82-4.17Zm2.44,3.91-6,0a2.33,2.33,0,0,1-.21-1.19,6.81,6.81,0,0,0-.22-1.68A1.47,1.47,0,0,1,70,48.85a1.44,1.44,0,0,1,1.2-.46,2.75,2.75,0,0,1,2.37,1.13l.08.19.19-.05a1.41,1.41,0,0,1,.31,0,2.27,2.27,0,0,1,2.09,1.66A2.3,2.3,0,0,1,76.35,53.09Z"></path><path fill="#fff" d="M69.51,59a8.16,8.16,0,0,0,4.8,1.67A6.3,6.3,0,0,0,78.67,59a8.17,8.17,0,0,0-4.8-1.68A6.31,6.31,0,0,0,69.51,59Z"></path><path fill="#0e0e27" d="M73.82,57.12a6.52,6.52,0,0,0-4.46,1.67.21.21,0,0,0-.08.18.26.26,0,0,0,.09.18,8.54,8.54,0,0,0,4.93,1.72h.06a6.63,6.63,0,0,0,4.47-1.67A.21.21,0,0,0,78.9,59a.24.24,0,0,0-.09-.18A8.44,8.44,0,0,0,73.82,57.12Zm.54,3.28v.23l0-.23a7.89,7.89,0,0,1-4.42-1.46,6.22,6.22,0,0,1,4-1.35h0A7.9,7.9,0,0,1,78.29,59,6.13,6.13,0,0,1,74.36,60.4Z"></path><path fill="#fff" d="M74.7,56.09a1.18,1.18,0,0,0-1.13-1,.84.84,0,0,0-.86,1l.19,1.44a1.19,1.19,0,0,0,1.13,1,.85.85,0,0,0,.86-1Z"></path><path fill="#0e0e27" d="M74.93,56.06a1.42,1.42,0,0,0-1.36-1.21,1.1,1.1,0,0,0-.84.37,1.08,1.08,0,0,0-.25.89l.19,1.44A1.4,1.4,0,0,0,74,58.75h0a1.1,1.1,0,0,0,.83-.36,1.09,1.09,0,0,0,.25-.89Zm-.41,2a.65.65,0,0,1-.48.21v0a1,1,0,0,1-.9-.8L72.94,56a.65.65,0,0,1,.14-.51.62.62,0,0,1,.49-.21.94.94,0,0,1,.9.8l.19,1.44A.63.63,0,0,1,74.52,58.08Z"></path><path fill="#fff" d="M72.84,49.49c-1.67,0-2.8,1.59-2.54,3.57a3.42,3.42,0,0,0,3.42,3.13,2.48,2.48,0,0,0,2.6-3.08A4,4,0,0,0,72.84,49.49Z"></path><path fill="#0e0e27" d="M72.82,49.26a2.6,2.6,0,0,0-2,.9,3.69,3.69,0,0,0-.77,2.93,3.64,3.64,0,0,0,3.65,3.33h0a2.82,2.82,0,0,0,2.19-.9,3,3,0,0,0,.61-2.44C76.28,51,74.61,49.27,72.82,49.26Zm2.77,6a2.41,2.41,0,0,1-1.84.74v.23l0-.23A3.2,3.2,0,0,1,70.53,53a3.24,3.24,0,0,1,.66-2.56,2.11,2.11,0,0,1,1.64-.74c1.55,0,3,1.54,3.26,3.41A2.58,2.58,0,0,1,75.59,55.22Z"></path><path fill="#000100" d="M70.22,50.77c2,1.07,3.13-1.2,3.13-1.2C72.42,48.42,68.2,49.7,70.22,50.77Z"></path><path fill="#000100" d="M72,48.88c-1.1,0-2.38.45-2.55,1.13-.06.25,0,.62.65,1a2.44,2.44,0,0,0,1.17.31,2.87,2.87,0,0,0,2.28-1.61l.07-.14-.1-.11A2,2,0,0,0,72,48.88Zm-.73,1.94a1.92,1.92,0,0,1-1-.26c-.14-.07-.46-.26-.41-.44.08-.34,1.08-.77,2.09-.77a1.76,1.76,0,0,1,1,.26A2.28,2.28,0,0,1,71.28,50.82Z"></path><path fill="#fff" d="M109.63,46.26a6.11,6.11,0,0,0-6.25,7.13,8.55,8.55,0,0,0,8.15,7.24,6.1,6.1,0,0,0,6.24-7.13A8.54,8.54,0,0,0,109.63,46.26Z"></path><path fill="#0e0e27" d="M109.57,46a6.42,6.42,0,0,0-4.92,2.14,6.53,6.53,0,0,0-1.5,5.25,8.8,8.8,0,0,0,8.38,7.45h0a6.34,6.34,0,0,0,6.42-7.4A8.79,8.79,0,0,0,109.57,46Zm6.59,12.38a6,6,0,0,1-4.58,2v.23l0-.23a8.3,8.3,0,0,1-7.91-7,5.88,5.88,0,0,1,6-6.87h0a8.32,8.32,0,0,1,7.91,7A6.07,6.07,0,0,1,116.16,58.41Z"></path><path fill="#000100" d="M111,49.44c-.58-1.46-5-2.23-4.1.81.37,1.25,0,2.63.56,3l6.16,0c.24,0,.53-1,0-2.13C112.75,49,111,49.44,111,49.44Z"></path><path fill="#000100" d="M111.13,49.18a3.35,3.35,0,0,0-2.72-1.26,1.66,1.66,0,0,0-1.73,2.4,6.58,6.58,0,0,1,.19,1.56c0,.69,0,1.3.46,1.59l.06,0,6.23.05h0a.43.43,0,0,0,.34-.21,2.69,2.69,0,0,0-.08-2.24A2.66,2.66,0,0,0,111.13,49.18Zm2.44,3.91-6,0a2.33,2.33,0,0,1-.21-1.19,6.81,6.81,0,0,0-.22-1.68,1.47,1.47,0,0,1,.09-1.33,1.44,1.44,0,0,1,1.2-.46,2.75,2.75,0,0,1,2.37,1.13l.08.19.19-.05a1.52,1.52,0,0,1,.31,0,2.27,2.27,0,0,1,2.09,1.66A2.3,2.3,0,0,1,113.57,53.09Z"></path><path fill="#fff" d="M106.73,59a8.16,8.16,0,0,0,4.8,1.67,6.3,6.3,0,0,0,4.36-1.6,8.17,8.17,0,0,0-4.8-1.68A6.31,6.31,0,0,0,106.73,59Z"></path><path fill="#0e0e27" d="M111,57.12a6.54,6.54,0,0,0-4.46,1.67.21.21,0,0,0-.08.18.26.26,0,0,0,.09.18,8.54,8.54,0,0,0,4.93,1.72h.06a6.63,6.63,0,0,0,4.47-1.67.21.21,0,0,0,.07-.18.21.21,0,0,0-.09-.18A8.44,8.44,0,0,0,111,57.12Zm.54,3.28v.23l0-.23a7.89,7.89,0,0,1-4.42-1.46,6.22,6.22,0,0,1,4-1.35h0A7.9,7.9,0,0,1,115.51,59,6.13,6.13,0,0,1,111.58,60.4Z"></path><path fill="#fff" d="M111.92,56.09a1.18,1.18,0,0,0-1.13-1,.84.84,0,0,0-.86,1l.19,1.44a1.19,1.19,0,0,0,1.13,1,.84.84,0,0,0,.86-1Z"></path><path fill="#0e0e27" d="M112.16,56.06a1.44,1.44,0,0,0-1.37-1.21,1.1,1.1,0,0,0-.84.37,1.11,1.11,0,0,0-.25.89l.19,1.44a1.42,1.42,0,0,0,1.36,1.2h0a1.11,1.11,0,0,0,.84-.36,1.09,1.09,0,0,0,.25-.89Zm-.42,2a.65.65,0,0,1-.48.21v0a1,1,0,0,1-.9-.8L110.16,56a.69.69,0,0,1,.14-.51.62.62,0,0,1,.49-.21,1,1,0,0,1,.9.8l.19,1.44A.63.63,0,0,1,111.74,58.08Z"></path><path fill="#fff" d="M110.06,49.49c-1.67,0-2.8,1.59-2.54,3.57a3.42,3.42,0,0,0,3.42,3.13,2.48,2.48,0,0,0,2.6-3.08A4,4,0,0,0,110.06,49.49Z"></path><path fill="#0e0e27" d="M110,49.26a2.6,2.6,0,0,0-2,.9,3.69,3.69,0,0,0-.77,2.93,3.64,3.64,0,0,0,3.65,3.33h0a2.86,2.86,0,0,0,2.2-.9,3,3,0,0,0,.6-2.44C113.5,51,111.83,49.27,110,49.26Zm2.77,6A2.4,2.4,0,0,1,111,56v.23l0-.23A3.2,3.2,0,0,1,107.75,53a3.24,3.24,0,0,1,.66-2.56,2.11,2.11,0,0,1,1.64-.74c1.55,0,3,1.54,3.26,3.41A2.58,2.58,0,0,1,112.81,55.22Z"></path><path fill="#000100" d="M107.44,50.77c2,1.07,3.13-1.2,3.13-1.2C109.64,48.42,105.42,49.7,107.44,50.77Z"></path><path fill="#000100" d="M109.23,48.88c-1.1,0-2.38.45-2.55,1.13-.06.25,0,.62.65,1a2.47,2.47,0,0,0,1.17.31,2.87,2.87,0,0,0,2.28-1.61l.07-.14-.1-.11A2,2,0,0,0,109.23,48.88Zm-.73,1.94a1.92,1.92,0,0,1-1-.26c-.14-.07-.46-.26-.41-.44.08-.34,1.08-.77,2.09-.77a1.84,1.84,0,0,1,1,.26A2.28,2.28,0,0,1,108.5,50.82Z"></path><path fill="#fff" d="M61.3,27.94a6.07,6.07,0,0,0-6.15,7.14,8.49,8.49,0,0,0,8.14,7.15,6.07,6.07,0,0,0,6.15-7.15A8.48,8.48,0,0,0,61.3,27.94Z"></path><path fill="#0e0e27" d="M61.3,27.7a6.38,6.38,0,0,0-4.92,2.15,6.49,6.49,0,0,0-1.46,5.26,8.73,8.73,0,0,0,8.37,7.35,6.38,6.38,0,0,0,4.92-2.15,6.49,6.49,0,0,0,1.46-5.26A8.74,8.74,0,0,0,61.3,27.7ZM67.86,40a6,6,0,0,1-4.57,2,8.25,8.25,0,0,1-7.91-6.94,6,6,0,0,1,1.35-4.89,5.92,5.92,0,0,1,4.57-2,8.27,8.27,0,0,1,7.91,6.94A6.06,6.06,0,0,1,67.86,40Z"></path><path fill="#000100" d="M61.57,29.87c-2.56,0-4.29,2.48-3.86,5.54a5.67,5.67,0,0,0,1.38,3.07h7.36A4.47,4.47,0,0,0,67,35.41C66.55,32.35,64.13,29.87,61.57,29.87Z"></path><path fill="#000100" d="M61.57,29.64a3.88,3.88,0,0,0-3,1.35,5.59,5.59,0,0,0-1.14,4.45,6,6,0,0,0,1.45,3.2l.07.08h7.59l.06-.11a4.76,4.76,0,0,0,.57-3.23C66.76,32.21,64.23,29.64,61.57,29.64Zm4.75,8.61H59.2a5.38,5.38,0,0,1-1.26-2.87,5.12,5.12,0,0,1,1-4.08,3.42,3.42,0,0,1,2.61-1.19c2.44,0,4.76,2.39,5.17,5.33A4.35,4.35,0,0,1,66.32,38.25Z"></path><path fill="#fff" d="M58.52,40.6a8.08,8.08,0,0,0,4.77,1.63,6.27,6.27,0,0,0,4.32-1.63A8.08,8.08,0,0,0,62.84,39,6.23,6.23,0,0,0,58.52,40.6Z"></path><path fill="#0e0e27" d="M62.84,38.73a6.48,6.48,0,0,0-4.48,1.7.2.2,0,0,0-.07.18.23.23,0,0,0,.09.18,8.36,8.36,0,0,0,4.91,1.67,6.56,6.56,0,0,0,4.48-1.69.27.27,0,0,0,.08-.19.23.23,0,0,0-.1-.17A8.39,8.39,0,0,0,62.84,38.73ZM63.29,42a7.92,7.92,0,0,1-4.4-1.41,6.1,6.1,0,0,1,4-1.38,7.85,7.85,0,0,1,4.4,1.42A6.14,6.14,0,0,1,63.29,42Z"></path><path fill="#fff" d="M63.65,37.7a1.19,1.19,0,0,0-1.13-1,.84.84,0,0,0-.85,1l.2,1.44a1.19,1.19,0,0,0,1.13,1,.84.84,0,0,0,.85-1Z"></path><path fill="#0e0e27" d="M63.88,37.67a1.41,1.41,0,0,0-1.36-1.19,1.08,1.08,0,0,0-1.08,1.26l.2,1.43A1.41,1.41,0,0,0,63,40.36a1.06,1.06,0,0,0,.83-.37,1.08,1.08,0,0,0,.25-.89Zm-.4,2a.64.64,0,0,1-.48.2.94.94,0,0,1-.9-.79l-.2-1.43a.63.63,0,0,1,.14-.52.64.64,0,0,1,.48-.2.93.93,0,0,1,.9.79l.2,1.43A.63.63,0,0,1,63.48,39.69Z"></path><path fill="#fff" d="M61.75,31.15c-1.66,0-2.44,1.6-2.16,3.57s1.43,3.09,3.08,3.09,2.5-1.11,2.23-3.09S63.4,31.15,61.75,31.15Z"></path><path fill="#0e0e27" d="M61.75,30.92a2.21,2.21,0,0,0-1.72.75,3.91,3.91,0,0,0-.67,3.09c.29,2.05,1.53,3.28,3.31,3.28a2.44,2.44,0,0,0,1.92-.76,3.16,3.16,0,0,0,.54-2.59C64.82,32.47,63.43,30.92,61.75,30.92Zm2.49,6a2,2,0,0,1-1.57.61c-1.55,0-2.59-1.06-2.85-2.89A3.44,3.44,0,0,1,60.38,32a1.72,1.72,0,0,1,1.37-.6c1.44,0,2.64,1.39,2.92,3.38A2.79,2.79,0,0,1,64.24,37Z"></path><path fill="#000100" d="M61.75,31.15a2.41,2.41,0,0,0-2.21,1.46h4.81A3.35,3.35,0,0,0,61.75,31.15Z"></path><path fill="#000100" d="M61.75,30.92a2.66,2.66,0,0,0-2.42,1.59l-.16.33h5.65l-.28-.37A3.57,3.57,0,0,0,61.75,30.92Zm-1.81,1.45a2.13,2.13,0,0,1,1.81-1,3,3,0,0,1,2.1,1Z"></path><path fill="#fff" d="M97.78,27.94a6.07,6.07,0,0,0-6.15,7.14,8.5,8.5,0,0,0,8.15,7.15,6.07,6.07,0,0,0,6.14-7.15A8.48,8.48,0,0,0,97.78,27.94Z"></path><path fill="#0e0e27" d="M97.78,27.7a6.36,6.36,0,0,0-4.91,2.15,6.46,6.46,0,0,0-1.47,5.26,8.74,8.74,0,0,0,8.38,7.35,6.36,6.36,0,0,0,4.91-2.15,6.5,6.5,0,0,0,1.47-5.26A8.76,8.76,0,0,0,97.78,27.7ZM104.34,40a5.93,5.93,0,0,1-4.56,2,8.27,8.27,0,0,1-7.92-6.94,6.09,6.09,0,0,1,1.36-4.89,5.89,5.89,0,0,1,4.56-2,8.25,8.25,0,0,1,7.91,6.94A6.06,6.06,0,0,1,104.34,40Z"></path><path fill="#000100" d="M98.05,29.87c-2.56,0-4.29,2.48-3.86,5.54a5.68,5.68,0,0,0,1.39,3.07h7.35a4.47,4.47,0,0,0,.53-3.07C103,32.35,100.61,29.87,98.05,29.87Z"></path><path fill="#000100" d="M98.05,29.64a3.86,3.86,0,0,0-3,1.35A5.55,5.55,0,0,0,94,35.44a5.93,5.93,0,0,0,1.44,3.2l.07.08h7.59l.07-.11a4.83,4.83,0,0,0,.56-3.23C103.25,32.21,100.72,29.64,98.05,29.64Zm4.75,8.61H95.68a5.46,5.46,0,0,1-1.26-2.87,5.13,5.13,0,0,1,1-4.08,3.4,3.4,0,0,1,2.6-1.19c2.45,0,4.77,2.39,5.18,5.33A4.42,4.42,0,0,1,102.8,38.25Z"></path><path fill="#fff" d="M95,40.6a8.09,8.09,0,0,0,4.78,1.63,6.27,6.27,0,0,0,4.32-1.63A8.11,8.11,0,0,0,99.32,39,6.27,6.27,0,0,0,95,40.6Z"></path><path fill="#0e0e27" d="M99.32,38.73a6.52,6.52,0,0,0-4.48,1.7.23.23,0,0,0-.07.18.26.26,0,0,0,.09.18,8.39,8.39,0,0,0,4.92,1.67,6.56,6.56,0,0,0,4.48-1.69.23.23,0,0,0,.07-.19.22.22,0,0,0-.09-.17A8.42,8.42,0,0,0,99.32,38.73ZM99.78,42a7.87,7.87,0,0,1-4.4-1.41,6.1,6.1,0,0,1,3.94-1.38,7.83,7.83,0,0,1,4.4,1.42A6.09,6.09,0,0,1,99.78,42Z"></path><path fill="#fff" d="M100.13,37.7a1.17,1.17,0,0,0-1.12-1,.84.84,0,0,0-.85,1l.2,1.44a1.17,1.17,0,0,0,1.12,1,.85.85,0,0,0,.86-1Z"></path><path fill="#0e0e27" d="M100.37,37.67A1.42,1.42,0,0,0,99,36.48a1.1,1.1,0,0,0-.84.37,1.15,1.15,0,0,0-.25.89l.2,1.43a1.43,1.43,0,0,0,1.36,1.19,1.08,1.08,0,0,0,.84-.37,1.15,1.15,0,0,0,.25-.89Zm-.41,2a.61.61,0,0,1-.48.2.93.93,0,0,1-.89-.79l-.2-1.43a.63.63,0,0,1,.14-.52A.61.61,0,0,1,99,37a1,1,0,0,1,.89.79l.2,1.43A.63.63,0,0,1,100,39.69Z"></path><path fill="#fff" d="M98.23,31.15c-1.65,0-2.43,1.6-2.15,3.57s1.43,3.09,3.08,3.09,2.5-1.11,2.22-3.09S99.88,31.15,98.23,31.15Z"></path><path fill="#0e0e27" d="M98.23,30.92a2.23,2.23,0,0,0-1.72.75,4,4,0,0,0-.67,3.09c.29,2.05,1.53,3.28,3.32,3.28a2.42,2.42,0,0,0,1.91-.76,3.16,3.16,0,0,0,.54-2.59C101.3,32.47,99.91,30.92,98.23,30.92Zm2.49,6a2,2,0,0,1-1.56.61c-1.56,0-2.6-1.06-2.85-2.89A3.4,3.4,0,0,1,96.87,32a1.7,1.7,0,0,1,1.36-.6c1.44,0,2.65,1.39,2.92,3.38A2.71,2.71,0,0,1,100.72,37Z"></path><path fill="#000100" d="M98.23,31.15A2.4,2.4,0,0,0,96,32.61h4.81A3.37,3.37,0,0,0,98.23,31.15Z"></path><path fill="#000100" d="M98.23,30.92a2.63,2.63,0,0,0-2.41,1.59l-.16.33h5.65l-.28-.37A3.59,3.59,0,0,0,98.23,30.92Zm-1.8,1.45a2.12,2.12,0,0,1,1.8-1,3,3,0,0,1,2.1,1Z"></path><path fill="#fff" d="M91.24,46.3a6.07,6.07,0,0,0-6.15,7.15,8.49,8.49,0,0,0,8.14,7.14,6.07,6.07,0,0,0,6.15-7.14A8.49,8.49,0,0,0,91.24,46.3Z"></path><path fill="#0e0e27" d="M91.24,46.07a6.38,6.38,0,0,0-4.92,2.15,6.49,6.49,0,0,0-1.46,5.26,8.74,8.74,0,0,0,8.37,7.35,6.42,6.42,0,0,0,4.92-2.15,6.53,6.53,0,0,0,1.46-5.27A8.73,8.73,0,0,0,91.24,46.07Zm6.56,12.3a6,6,0,0,1-4.57,2,8.27,8.27,0,0,1-7.91-7,6,6,0,0,1,1.35-4.89,6,6,0,0,1,4.57-2,8.26,8.26,0,0,1,7.91,6.95A6,6,0,0,1,97.8,58.37Z"></path><path fill="#000100" d="M91.51,48.24c-2.56,0-4.29,2.48-3.86,5.53A5.67,5.67,0,0,0,89,56.85h7.36a4.49,4.49,0,0,0,.52-3.08C96.49,50.72,94.07,48.24,91.51,48.24Z"></path><path fill="#000100" d="M91.51,48a3.89,3.89,0,0,0-3,1.36,5.53,5.53,0,0,0-1.13,4.44A5.9,5.9,0,0,0,88.86,57l.07.08h7.59l.07-.11a4.8,4.8,0,0,0,.56-3.23C96.7,50.58,94.17,48,91.51,48Zm4.75,8.61H89.14a5.42,5.42,0,0,1-1.26-2.87,5.1,5.1,0,0,1,1-4.08,3.41,3.41,0,0,1,2.6-1.19c2.44,0,4.76,2.39,5.17,5.34A4.32,4.32,0,0,1,96.26,56.61Z"></path><path fill="#fff" d="M88.46,59a8.08,8.08,0,0,0,4.77,1.63A6.23,6.23,0,0,0,97.55,59a8.08,8.08,0,0,0-4.77-1.63A6.23,6.23,0,0,0,88.46,59Z"></path><path fill="#0e0e27" d="M92.78,57.1a6.52,6.52,0,0,0-4.48,1.69.23.23,0,0,0-.07.19.21.21,0,0,0,.09.17,8.37,8.37,0,0,0,4.91,1.68,6.5,6.5,0,0,0,4.48-1.7.23.23,0,0,0,.08-.18.27.27,0,0,0-.1-.18A8.36,8.36,0,0,0,92.78,57.1Zm.45,3.26a7.85,7.85,0,0,1-4.4-1.42,6.12,6.12,0,0,1,4-1.37A7.92,7.92,0,0,1,97.18,59,6.14,6.14,0,0,1,93.23,60.36Z"></path><path fill="#fff" d="M93.59,56.07a1.18,1.18,0,0,0-1.13-1,.85.85,0,0,0-.85,1l.2,1.43a1.18,1.18,0,0,0,1.13,1,.84.84,0,0,0,.85-1Z"></path><path fill="#0e0e27" d="M93.82,56a1.42,1.42,0,0,0-1.36-1.2,1.11,1.11,0,0,0-.83.37,1.09,1.09,0,0,0-.25.89l.2,1.43a1.41,1.41,0,0,0,1.36,1.19A1.06,1.06,0,0,0,94,57.47Zm-.4,2a.65.65,0,0,1-.48.21,1,1,0,0,1-.9-.79L91.84,56a.7.7,0,0,1,.14-.52.65.65,0,0,1,.48-.21.94.94,0,0,1,.9.79l.2,1.43A.62.62,0,0,1,93.42,58.05Z"></path><path fill="#fff" d="M91.69,49.52c-1.66,0-2.44,1.6-2.16,3.57s1.43,3.08,3.09,3.08,2.49-1.11,2.22-3.08S93.34,49.52,91.69,49.52Z"></path><path fill="#0e0e27" d="M91.69,49.28A2.19,2.19,0,0,0,90,50a3.88,3.88,0,0,0-.67,3.08c.29,2.06,1.53,3.29,3.32,3.29a2.47,2.47,0,0,0,1.91-.76,3.17,3.17,0,0,0,.54-2.59C94.76,50.83,93.37,49.28,91.69,49.28Zm2.49,6.06a2,2,0,0,1-1.56.6c-1.56,0-2.6-1-2.86-2.88a3.46,3.46,0,0,1,.56-2.72,1.76,1.76,0,0,1,1.37-.59c1.44,0,2.64,1.39,2.92,3.37A2.81,2.81,0,0,1,94.18,55.34Z"></path><path fill="#000100" d="M91.69,49.52A2.43,2.43,0,0,0,89.48,51H94.3A3.4,3.4,0,0,0,91.69,49.52Z"></path><path fill="#000100" d="M91.69,49.28a2.67,2.67,0,0,0-2.42,1.59l-.16.33h5.66l-.29-.37A3.58,3.58,0,0,0,91.69,49.28Zm-1.81,1.46a2.11,2.11,0,0,1,1.81-1,3,3,0,0,1,2.1,1Z"></path><path fill="#ff4700" d="M99.8,66.33a1.52,1.52,0,1,0,1.52,1.52A1.52,1.52,0,0,0,99.8,66.33Z"></path><path fill="#000100" d="M99.8,66.1a1.76,1.76,0,1,0,1.75,1.75A1.76,1.76,0,0,0,99.8,66.1Zm0,3a1.29,1.29,0,1,1,1.28-1.29A1.29,1.29,0,0,1,99.8,69.14Z"></path><path fill="#ff4700" d="M119,68.38a1.52,1.52,0,1,0,1.51,1.52A1.52,1.52,0,0,0,119,68.38Z"></path><path fill="#000100" d="M119,68.15a1.75,1.75,0,1,0,1.75,1.75A1.75,1.75,0,0,0,119,68.15Zm0,3a1.29,1.29,0,1,1,1.28-1.29A1.29,1.29,0,0,1,119,71.19Z"></path><path fill="#ff4700" d="M87.34,81.6a1.52,1.52,0,1,0,1.52,1.52A1.52,1.52,0,0,0,87.34,81.6Z"></path><path fill="#000100" d="M87.34,81.37a1.76,1.76,0,1,0,1.75,1.75A1.75,1.75,0,0,0,87.34,81.37Zm0,3a1.29,1.29,0,1,1,1.29-1.29A1.29,1.29,0,0,1,87.34,84.41Z"></path><path fill="#ff4700" d="M80.47,77.27A1.52,1.52,0,1,0,82,78.79,1.52,1.52,0,0,0,80.47,77.27Z"></path><path fill="#000100" d="M80.47,77a1.75,1.75,0,1,0,1.75,1.75A1.75,1.75,0,0,0,80.47,77Zm0,3a1.29,1.29,0,1,1,1.29-1.29A1.29,1.29,0,0,1,80.47,80.08Z"></path><path fill="#5b7895" d="M113.6,71.65C96.71,72.8,85.87,87.3,89.38,104a33.34,33.34,0,0,0,3.2,8.8s-1.69,1.73-2.68,2.87h59.58a28.11,28.11,0,0,0,1.06-15.84C147,83.13,130.49,70.5,113.6,71.65Z" opacity=".55"></path><path fill="#00685a" d="M118.78,66.13C101.89,67.28,91.05,81.77,94.56,98.5s20,29.36,36.94,28.21,27.74-15.65,24.23-32.38S135.68,65,118.78,66.13Z"></path><path fill="#000100" d="M120.93,65.82c-.72,0-1.45,0-2.16.07A26.67,26.67,0,0,0,98.92,76.22c-4.68,6.19-6.31,14.12-4.59,22.33,3.35,16,18.74,28.47,35,28.47.72,0,1.44,0,2.16-.08a26.63,26.63,0,0,0,19.85-10.32c4.68-6.19,6.31-14.12,4.59-22.33C152.6,78.32,137.22,65.82,120.93,65.82ZM151,116.33a26.2,26.2,0,0,1-19.51,10.15c-.71,0-1.42.07-2.13.07-16.08,0-31.27-12.34-34.57-28.1-1.7-8.07-.1-15.87,4.5-22A26.2,26.2,0,0,1,118.8,66.36c.7,0,1.42-.07,2.13-.07,16.08,0,31.26,12.34,34.57,28.09C157.19,102.46,155.59,110.26,151,116.33Z"></path><path fill="#fff" d="M120.1,66.19c-16.33,1.11-26.81,15.13-23.42,31.3s19.38,28.38,35.71,27.26,26.81-15.12,23.42-31.29S136.42,65.08,120.1,66.19Z"></path><path fill="#0e0e27" d="M122.17,65.89c-.7,0-1.4,0-2.09.07a25.75,25.75,0,0,0-19.19,10,26.25,26.25,0,0,0-4.44,21.59c3.24,15.44,18.12,27.53,33.86,27.53.7,0,1.4,0,2.1-.07a25.78,25.78,0,0,0,19.19-10c4.53-6,6.1-13.65,4.44-21.59C152.8,78,137.92,65.89,122.17,65.89Zm29.06,48.83a25.33,25.33,0,0,1-18.86,9.8c-.68,0-1.37.07-2.06.07-15.53,0-30.21-11.93-33.4-27.15-1.64-7.81-.1-15.34,4.35-21.21a25.28,25.28,0,0,1,18.85-9.81c.68,0,1.38-.07,2.06-.07,15.54,0,30.21,11.93,33.41,27.15A25.82,25.82,0,0,1,151.23,114.72Z"></path><path fill="#002938" d="M121.19,71.4c-13.42.91-22,12.43-19.25,25.73s15.93,23.33,29.36,22.42,22-12.44,19.25-25.74S134.61,70.48,121.19,71.4Z"></path><path fill="#000100" d="M122.9,71.11c-.58,0-1.16,0-1.73,0a21.26,21.26,0,0,0-15.81,8.23,21.65,21.65,0,0,0-3.65,17.79c2.67,12.7,14.91,22.66,27.88,22.66.57,0,1.15,0,1.72-.06a21.21,21.21,0,0,0,15.81-8.23,21.64,21.64,0,0,0,3.66-17.78C148.11,81.06,135.86,71.11,122.9,71.11Zm23.85,40.16a20.76,20.76,0,0,1-15.47,8c-.56,0-1.13.06-1.69.06-12.75,0-24.8-9.79-27.42-22.29a21.15,21.15,0,0,1,3.57-17.41,20.77,20.77,0,0,1,15.47-8c.55,0,1.12-.06,1.69-.06,12.75,0,24.8,9.79,27.42,22.29A21.15,21.15,0,0,1,146.75,111.27Z"></path><path fill="#00685a" d="M121.75,74.07c-11.93.81-19.59,11.06-17.11,22.87s14.16,20.75,26.1,19.93S150.33,105.82,147.85,94,133.68,73.26,121.75,74.07Z"></path><path fill="#000100" d="M123.27,73.79c-.51,0-1,0-1.53,0a18.87,18.87,0,0,0-14.08,7.32A19.26,19.26,0,0,0,104.41,97c2.37,11.31,13.27,20.17,24.81,20.17.51,0,1,0,1.53,0a18.93,18.93,0,0,0,14.08-7.33A19.29,19.29,0,0,0,148.08,94C145.7,82.64,134.81,73.79,123.27,73.79Zm21.18,35.71a18.44,18.44,0,0,1-13.73,7.14c-.5,0-1,0-1.5,0-11.33,0-22-8.69-24.35-19.79A18.81,18.81,0,0,1,108,81.44a18.49,18.49,0,0,1,13.74-7.14c.49,0,1,0,1.5,0,11.32,0,22,8.7,24.35,19.8A18.77,18.77,0,0,1,144.45,109.5Z"></path><path fill="#fff" d="M122.32,74.27c-11.56.79-19,10.71-16.58,22.16s13.73,20.09,25.29,19.31S150,105,147.61,93.58,133.88,73.48,122.32,74.27Z"></path><path fill="#0e0e27" d="M123.79,74c-.49,0-1,0-1.48.05a18.28,18.28,0,0,0-13.64,7.1,18.67,18.67,0,0,0-3.16,15.34c2.3,11,12.87,19.54,24,19.54.49,0,1,0,1.48,0a18.28,18.28,0,0,0,13.64-7.1,18.67,18.67,0,0,0,3.16-15.34C145.54,82.57,135,74,123.79,74Zm20.52,34.6A17.81,17.81,0,0,1,131,115.5c-.48,0-1,0-1.45,0-11,0-21.33-8.42-23.59-19.17a18.23,18.23,0,0,1,3.07-15,17.81,17.81,0,0,1,13.3-6.91c.48,0,1-.05,1.45-.05,11,0,21.33,8.42,23.59,19.17A18.24,18.24,0,0,1,144.31,108.59Z"></path><path fill="#002938" d="M123.16,80.77c-8.2.55-13.47,7.59-11.77,15.71a17.69,17.69,0,0,0,17.94,13.7c8.2-.56,13.47-7.6,11.76-15.72A17.68,17.68,0,0,0,123.16,80.77Z"></path><path fill="#000100" d="M123.14,80.53a13.06,13.06,0,0,0-9.72,5.06,13.27,13.27,0,0,0-2.25,10.94,18,18,0,0,0,17.12,13.92c.35,0,.7,0,1.06,0a13,13,0,0,0,9.72-5.06,13.27,13.27,0,0,0,2.25-10.94C139.61,86.26,131.48,80,123.14,80.53Zm15.56,24.54a12.62,12.62,0,0,1-9.39,4.88c-8.09.54-16-5.58-17.69-13.51a12.9,12.9,0,0,1,2.17-10.57A12.57,12.57,0,0,1,123.17,81c.34,0,.69,0,1,0a17.55,17.55,0,0,1,16.66,13.55A12.83,12.83,0,0,1,138.7,105.07Z"></path><path fill="#fff" d="M123.81,83.88a10,10,0,0,0-9.27,12.39,13.94,13.94,0,0,0,14.14,10.79,10,10,0,0,0,9.26-12.39A13.93,13.93,0,0,0,123.81,83.88Z"></path><path fill="#0e0e27" d="M123.79,83.65a10.33,10.33,0,0,0-7.7,4,10.55,10.55,0,0,0-1.78,8.66,14.27,14.27,0,0,0,13.54,11q.42,0,.84,0a10.34,10.34,0,0,0,7.7-4,10.52,10.52,0,0,0,1.78-8.66A14.22,14.22,0,0,0,123.79,83.65ZM136,103a9.89,9.89,0,0,1-7.36,3.83,13.75,13.75,0,0,1-13.89-10.61,10,10,0,0,1,1.7-8.28,9.89,9.89,0,0,1,7.36-3.83l.8,0a13.77,13.77,0,0,1,13.08,10.63A10,10,0,0,1,136,103Z"></path><path fill="#002938" d="M125.38,91.38a3.51,3.51,0,0,0-3.26,4.37,4.9,4.9,0,0,0,5,3.81,3.52,3.52,0,0,0,3.27-4.37A4.92,4.92,0,0,0,125.38,91.38Z"></path><path fill="#000100" d="M125.37,91.15a3.81,3.81,0,0,0-2.83,1.47,3.88,3.88,0,0,0-.65,3.18,5.17,5.17,0,0,0,4.92,4h.31a3.79,3.79,0,0,0,2.82-1.47,3.88,3.88,0,0,0,.66-3.18A5.16,5.16,0,0,0,125.37,91.15Zm4.2,6.89a3.35,3.35,0,0,1-2.48,1.29,4.71,4.71,0,0,1-4.75-3.62,3.41,3.41,0,0,1,.58-2.8,3.28,3.28,0,0,1,2.48-1.29h.27a4.7,4.7,0,0,1,4.47,3.63A3.38,3.38,0,0,1,129.57,98Z"></path><polygon fill="#d2d9d7" points="127.1 91.5 124.82 51.17 123.34 51.34 125.62 91.66 123 89.31 123.16 92.21 126.78 95.31 129.61 91.77 129.44 88.87 127.1 91.5"></polygon><path fill="#000100" d="M129.52,88.65a.23.23,0,0,0-.25.07l-2,2.2-2.25-39.76A.21.21,0,0,0,125,51a.25.25,0,0,0-.18-.06l-1.48.16a.25.25,0,0,0-.21.25l2.25,39.76-2.2-2a.25.25,0,0,0-.26,0,.25.25,0,0,0-.13.23l.17,2.9a.21.21,0,0,0,.08.16l3.62,3.09a.22.22,0,0,0,.15.06h0a.24.24,0,0,0,.16-.09l2.83-3.53a.24.24,0,0,0,.05-.16l-.17-2.9A.22.22,0,0,0,129.52,88.65ZM126.75,95l-3.36-2.87-.13-2.24,2.2,2a.23.23,0,0,0,.26,0,.22.22,0,0,0,.13-.23l-2.27-40.1,1-.11,2.27,40.08a.23.23,0,0,0,.15.21.23.23,0,0,0,.25-.07l2-2.2.13,2.25Z"></path><path fill="#ff4700" d="M128.17,41.72a3.07,3.07,0,0,0-4.29.76l-.28.4-.33-.38a3.08,3.08,0,1,0-4.65,4l5.52,6.32L128.93,46A3.08,3.08,0,0,0,128.17,41.72Z"></path><path fill="#000100" d="M128.3,41.52a3.28,3.28,0,0,0-1.89-.59,3.32,3.32,0,0,0-2.72,1.41l-.11.16-.14-.15a3.31,3.31,0,0,0-5,4.35L124,53a.23.23,0,0,0,.18.08h0a.25.25,0,0,0,.18-.1l4.79-6.87a3.31,3.31,0,0,0-.82-4.62Zm.44,4.35-4.63,6.62-5.31-6.1a2.85,2.85,0,0,1,.27-4,2.8,2.8,0,0,1,1.87-.7,2.84,2.84,0,0,1,2.15,1l.33.38a.21.21,0,0,0,.19.08.22.22,0,0,0,.18-.1l.28-.4a2.85,2.85,0,0,1,2.34-1.22,2.88,2.88,0,0,1,2.8,2.35A2.87,2.87,0,0,1,128.74,45.87Z"></path><polygon fill="#d2d9d7" points="142.13 55.82 126.4 93.02 125.08 89.75 123.95 92.43 125.84 96.8 129.93 94.88 131.06 92.2 127.8 93.52 143.53 56.33 142.13 55.82"></polygon><path fill="#000100" d="M143.61,56.11l-1.4-.51a.23.23,0,0,0-.29.13L126.41,92.4l-1.11-2.73a.24.24,0,0,0-.22-.15h0a.26.26,0,0,0-.22.14l-1.13,2.68a.28.28,0,0,0,0,.18l1.89,4.38a.25.25,0,0,0,.13.12l.09,0,.1,0L130,95.09a.34.34,0,0,0,.12-.12l1.13-2.68a.25.25,0,0,0-.05-.25A.25.25,0,0,0,131,92l-2.73,1.11,15.51-36.67a.31.31,0,0,0,0-.19A.24.24,0,0,0,143.61,56.11Zm-16,37.32a.25.25,0,0,0,0,.26.25.25,0,0,0,.26,0l2.74-1.11-.88,2.07L126,96.49l-1.76-4.06.88-2.07,1.1,2.74a.21.21,0,0,0,.22.15.25.25,0,0,0,.22-.14l15.64-37,1,.35Z"></path><path fill="#ffbc3a" d="M150.86,52.64c-1.33-.76-2.09-1.14-2.1-1.14h0a24.22,24.22,0,0,1,1.62-3.22c1.63-3.09-.81-3.57-1-3.59l-.74,1.42a3.9,3.9,0,0,1-2,1.85l-3.78,1.16a.8.8,0,0,0-.48.4l-3.6,6.81a.81.81,0,0,0,.34,1.08l7.36,3.93a2.45,2.45,0,0,0,3.43-1.07l2.08-3.94A2.76,2.76,0,0,0,150.86,52.64Z"></path><path fill="#000100" d="M151,52.44c-.95-.54-1.62-.9-1.93-1.06.13-.28.49-1,1.53-3a3,3,0,0,0,.36-2.9,2.19,2.19,0,0,0-1.58-1,.17.17,0,0,0-.14,0c-.07,0-.07,0-.83,1.52a3.68,3.68,0,0,1-1.86,1.73l-3.78,1.16a1.07,1.07,0,0,0-.63.51l-3.59,6.81a1,1,0,0,0-.08.79,1.1,1.1,0,0,0,.51.61l7.36,3.92a2.91,2.91,0,0,0,1.37.35,2.67,2.67,0,0,0,2.38-1.51l2.08-3.94A3,3,0,0,0,151,52.44Zm.75,3.79-2.08,3.94a2.16,2.16,0,0,1-2,1.25,2.48,2.48,0,0,1-1.15-.29l-7.36-3.92a.55.55,0,0,1-.28-.34.54.54,0,0,1,0-.43l3.59-6.81a.63.63,0,0,1,.35-.29l3.8-1.16a4.1,4.1,0,0,0,2.12-2l.66-1.27a1.7,1.7,0,0,1,1.07.76,2.67,2.67,0,0,1-.36,2.47c-1.71,3.23-1.68,3.28-1.62,3.42a.38.38,0,0,0,.11.11c.2.1.92.47,2.09,1.13A2.54,2.54,0,0,1,151.73,56.23Z"></path><rect width="9.23" height="3.51" x="133.63" y="50.14" fill="#ffbc3a" rx=".87" transform="rotate(-62.15 138.237 51.9)"></rect><path fill="#000100" d="M141.29,48l-1.56-.82a1.14,1.14,0,0,0-1.5.46l-3.5,6.62a1.12,1.12,0,0,0,.47,1.5l1.56.82a1.17,1.17,0,0,0,.51.13,1.13,1.13,0,0,0,1-.59l3.49-6.62a1.07,1.07,0,0,0,.08-.84A1.11,1.11,0,0,0,141.29,48Zm.05,1.28-3.5,6.62a.64.64,0,0,1-.57.34.59.59,0,0,1-.29-.07l-1.56-.83a.62.62,0,0,1-.27-.86l3.5-6.62a.63.63,0,0,1,.56-.34.6.6,0,0,1,.3.07l1.56.83a.63.63,0,0,1,.31.37A.64.64,0,0,1,141.34,49.3Z"></path><g style="mix-blend-mode:multiply" opacity=".55"><path fill="#5b7895" d="M125.7,92.44l-.54-1.85-1.88-1.18-13-21L99.72,64.05,103.86,62A2.44,2.44,0,0,0,105,58.56l-2-4a2.78,2.78,0,0,0-3.64-1.26c-1.39.65-2.14,1.06-2.15,1.06a29.4,29.4,0,0,1-1.69-3.17C93.9,48.1,92.1,49.81,92,50l.73,1.43a3.84,3.84,0,0,1,.36,2.7L91.8,57.88a.79.79,0,0,0,0,.62l3.48,6.87a.81.81,0,0,0,1.08.35l2-1,10.4,4.16,14.6,23.54L98.5,76.85,83.66,74.11l-2.41-6.7a3.08,3.08,0,0,0-5.8,2.09l.16.46-.5.06a3.08,3.08,0,0,0,.63,6.13l7.19-.74,14.9,2.78L122.2,93.43l-1.3-.31.59.95-2.15.5,2.46,1.54,1.41-.36,3.89.82.79-4.45-1.54-2.47Z"></path><rect width="3.51" height="9.23" x="89.68" y="58.59" fill="#5b7895" rx=".87" transform="rotate(-26.91 91.419 63.212)"></rect></g></g></svg>