<svg xmlns="http://www.w3.org/2000/svg" viewBox="0 0 200 150" id="online-data-filter-funnel"><defs><linearGradient id="a" x1="63.28" x2="64.11" y1="74.23" y2="74.23" gradientUnits="userSpaceOnUse"><stop offset="0" stop-color="#009baf"></stop><stop offset="1" stop-color="#00ebe9"></stop></linearGradient></defs><g data-name="Layer 1"><path fill="#d2d9d7" d="M45.69,77.54a55.3,55.3,0,0,0,48.53,54.88V22.66A55.3,55.3,0,0,0,45.69,77.54Z"></path><polygon points="75.23 100.5 75.23 90.18 75.26 90.15 75.23 90.15 75.23 90.06 76.84 90.06 76.84 86.87 47.1 83.29 43.51 86.87 43.51 90.06 45.13 90.06 45.13 90.15 45.09 90.15 45.09 93.03 45.13 93.03 45.13 100.5 48.7 100.5 44.09 123.39 45.86 123.39 51.98 100.5 69.09 100.5 75.21 123.39 76.98 123.39 72.37 100.5 75.23 100.5" style="mix-blend-mode:multiply" fill="#5b7895" opacity=".55"></polygon><path fill="#5b7895" d="M66.07,72.15a3.11,3.11,0,0,1,.23.28,12.58,12.58,0,0,0,7.08,4.28s-1.24-.19-3.34-4.45c-1.38-2.78-2.94-3.62-4.33-3.61a7,7,0,0,0-1.37-3.21c-2.09-2.64-2.35-6.77.47-8.9a7.34,7.34,0,0,0-4.69,8c.07.61.12,1.22.16,1.85a1.59,1.59,0,0,0-1.51-.17,4.85,4.85,0,0,0-2-2.79c-2.16-1.82-5.21-4.81-5.21-4.81,2.08,4.07,2,5.92,2.43,8.92h0a6.35,6.35,0,0,0-2.76-.13c-4.19.5-5.18,3-5.32,3.4a2,2,0,0,1,.75-.79h0a9.21,9.21,0,0,1,4.19-.66c2.68.1,2.48,2.36,4.64,4.47A10.72,10.72,0,0,0,58,75.69H54.11v1.54h1.45l2,7.82h5.84l2-7.82h1.45V75.69H64.44a15.43,15.43,0,0,0,1.08-3A4.7,4.7,0,0,1,66.07,72.15Z" opacity=".55"></path><path fill="#00685a" d="M69.34,51.5a8.17,8.17,0,0,0-5.23,8.93,71.24,71.24,0,0,1-.36,15.36H67.2s6.14-8.22,1.61-14.38S69.34,51.5,69.34,51.5Z"></path><path fill="#000100" d="M69.48,51.69a.23.23,0,0,0,.06-.3.23.23,0,0,0-.28-.11,8.45,8.45,0,0,0-5.38,9.18,71.46,71.46,0,0,1-.36,15.3.24.24,0,0,0,0,.18.25.25,0,0,0,.18.08H67.2a.21.21,0,0,0,.18-.09c.06-.09,6.2-8.43,1.62-14.66C64.67,55.38,69.28,51.83,69.48,51.69Zm-2.4,23.86H64a70.33,70.33,0,0,0,.33-15.14,7.8,7.8,0,0,1,3.91-8.15c-1.24,1.53-2.92,4.81.37,9.29C72.74,67.15,67.73,74.63,67.08,75.55Z"></path><path fill="#00685a" d="M68.86,51.93c-1.1.9-4.31,4.18-.86,9.6,4.1,6.45-2.58,14.24-2.58,14.24l-1.65-.11a.59.59,0,0,0,0,.13H67.2s6.14-8.22,1.61-14.38C65.18,56.47,67.71,53.08,68.86,51.93Z"></path><path fill="#000100" d="M69,52.09a.23.23,0,0,0-.31-.34c-1.11.91-4.46,4.31-.9,9.91,3.72,5.86-1.78,13-2.49,13.87l-1.54-.11a.23.23,0,0,0-.25.21v.13a.24.24,0,0,0,0,.18.25.25,0,0,0,.18.08H67.2a.21.21,0,0,0,.18-.09c.06-.09,6.2-8.43,1.62-14.66C65.51,56.52,67.85,53.27,69,52.09ZM67.08,75.55H65.89c1.25-1.63,6-8.43,2.31-14.14a8.47,8.47,0,0,1-1.51-4.66,8.9,8.9,0,0,0,1.93,4.8C72.74,67.15,67.73,74.63,67.08,75.55Z"></path><path fill="#00685a" d="M62.72,68.13c.32-6.14.07-6.9-2.34-8.93s-5.79-5.36-5.79-5.36c2.31,4.53,2.26,6.59,2.7,9.93.33,2.59,4.25,7.76,6,9.95A13,13,0,0,1,62.72,68.13Z"></path><path fill="#000100" d="M63,68.15c.32-6.16.1-7-2.42-9.13s-5.74-5.32-5.78-5.35a.23.23,0,0,0-.3,0,.23.23,0,0,0-.07.29,21,21,0,0,1,2.51,8.53c0,.43.1.87.16,1.33.35,2.66,4.35,7.92,6.05,10.06a.23.23,0,0,0,.18.09.24.24,0,0,0,.12,0,.24.24,0,0,0,.1-.29C63.16,72.84,62.79,71.26,63,68.15Zm-5.43-4.41c-.06-.46-.11-.9-.16-1.32a21,21,0,0,0-2-7.49c1.19,1.14,3.25,3.09,4.85,4.45,2.31,1.94,2.58,2.55,2.25,8.74a18.2,18.2,0,0,0,.22,4.47C60.81,70.14,57.81,66,57.52,63.74Z"></path><path fill="#fff" d="M57.9,59.06c2.69,3.16,3.31,8.71,3.31,8.76l.62-.06c0-.24-.64-5.8-3.46-9.11Z"></path><path fill="url(#a)" d="M64.11,74.74l-.83-1C63.68,74.62,64.11,74.74,64.11,74.74Z"></path><path fill="#00685a" d="M61.55,65.28a10.84,10.84,0,0,0,1.35,8.53h2.52a11,11,0,0,1,1-5.15,2.2,2.2,0,0,1,.15-.26c-.35-.16-.75-.33-1.19-.49C60.68,66.13,62.75,60.17,61.55,65.28Z"></path><path fill="#000100" d="M66.62,68.19c-.37-.17-.77-.34-1.2-.5a4.93,4.93,0,0,1-3.13-4.24c0-.23-.06-.43-.28-.43s-.23.11-.35.68c-.07.32-.17.81-.34,1.52A11,11,0,0,0,62.71,74a.23.23,0,0,0,.19.09h2.52a.24.24,0,0,0,.23-.23,10.67,10.67,0,0,1,.93-5,1.59,1.59,0,0,1,.13-.22.24.24,0,0,0,0-.2A.27.27,0,0,0,66.62,68.19Zm-.46.36a11,11,0,0,0-1,5H63a10.8,10.8,0,0,1-1.25-8.24c.09-.38.16-.7.22-1a5.14,5.14,0,0,0,3.26,3.76l.93.39Z"></path><path fill="#00685a" d="M68.07,66.56c-2.55,1.28-1.81,6.78-1.81,6.78l2.4.86a6,6,0,0,1,1.2-4.46c1.63-2,2.71-1.21,2.71-1.21S70.63,65.28,68.07,66.56Z"></path><path fill="#000100" d="M69.28,66a3,3,0,0,0-1.31.32c-2.68,1.34-2,6.79-2,7a.26.26,0,0,0,.16.19l2.4.86h.08a.27.27,0,0,0,.15-.05.27.27,0,0,0,.08-.22A5.76,5.76,0,0,1,70,69.89c1.45-1.74,2.39-1.17,2.39-1.17a.23.23,0,0,0,.3,0,.24.24,0,0,0,0-.29C72.71,68.32,71.32,66,69.28,66ZM72,68.16a3.19,3.19,0,0,0-2.32,1.43,6,6,0,0,0-1.29,4.26l-1.92-.68c-.09-.85-.45-5.32,1.71-6.4a2.46,2.46,0,0,1,1.1-.28A3.88,3.88,0,0,1,72,68.16Z"></path><path fill="#00685a" d="M55.82,64a9.58,9.58,0,0,0-6.69,2.57,10.31,10.31,0,0,1,4.66-.73c3,.11,2.77,2.62,5.17,5a9.33,9.33,0,0,0,4.4,2.69s-3.18-4.57-5.51-7.67C57.44,65.25,57.84,64,55.82,64Z"></path><path fill="#000100" d="M58,65.66a1.56,1.56,0,0,1-.18-.48c-.16-.61-.38-1.45-2-1.45A9.73,9.73,0,0,0,49,66.37a.23.23,0,0,0,0,.3.23.23,0,0,0,.29.07A10.28,10.28,0,0,1,53.78,66c1.76.06,2.32,1,3.1,2.32a11.54,11.54,0,0,0,1.92,2.59,9.53,9.53,0,0,0,4.52,2.76h0a.23.23,0,0,0,.2-.11.23.23,0,0,0,0-.26S60.35,68.73,58,65.66Zm1.08,5a11.44,11.44,0,0,1-1.84-2.5c-.79-1.33-1.47-2.47-3.48-2.55h-.54a12.21,12.21,0,0,0-3,.35,9.74,9.74,0,0,1,5.55-1.7c1.3,0,1.44.53,1.59,1.1a1.88,1.88,0,0,0,.26.64c1.82,2.43,4.2,5.81,5.12,7.11A10.49,10.49,0,0,1,59.12,70.61Z"></path><path fill="#faf8fb" d="M48.3,67.41a.17.17,0,0,0,0,.07A.17.17,0,0,1,48.3,67.41Z"></path><path fill="#00685a" d="M59.3,66.71c-.8-1.07,0-3.69-5.08-3.08-4.67.56-5.77,3.3-5.92,3.78.12-.31.86-1.55,5.37-2.56,5.17-1.16,2.43,1.5,4.77,3.18a19.09,19.09,0,0,1,4.24,4.82s1.33,2.2,1,.37S60.1,67.78,59.3,66.71Z"></path><path fill="#000100" d="M60.25,67.52c-.33-.4-.6-.73-.76-1a2.85,2.85,0,0,1-.36-.86c-.29-1-.7-2.41-3.52-2.41a10.62,10.62,0,0,0-1.42.1c-4.77.57-5.93,3.38-6.11,3.93a.23.23,0,1,0,.44.16c.08-.23.75-1.41,5.2-2.41a9.27,9.27,0,0,1,2-.28c1.1,0,1.19.43,1.35,1.21a3.16,3.16,0,0,0,1.27,2.21A19,19,0,0,1,62.49,73c.48.8.86,1.2,1.13,1.2h0a.33.33,0,0,0,.25-.11c.13-.15.14-.4.06-.89C63.68,71.67,61.53,69.07,60.25,67.52Zm2.64,5.21a19.38,19.38,0,0,0-4.32-4.89,2.73,2.73,0,0,1-1.08-1.92c-.16-.78-.33-1.59-1.81-1.59a10.27,10.27,0,0,0-2.07.29,15.13,15.13,0,0,0-4.28,1.5,7.36,7.36,0,0,1,4.92-2.26,11.33,11.33,0,0,1,1.36-.09c2.47,0,2.78,1,3.08,2.07a3.07,3.07,0,0,0,.42,1c.17.23.45.56.78,1,1.25,1.52,3.35,4.05,3.58,5.44a1.77,1.77,0,0,1,0,.34A5.89,5.89,0,0,1,62.89,72.73Z"></path><path fill="#00685a" d="M75.15,69c-2.34-4.74-5.17-4.43-7.05-3.4-2.67,1.47-2.23,7.61-2.23,7.61l.39.12s.06-1.19.26-3.23,1.21-5,4.48-.92A13.94,13.94,0,0,0,78.88,74S77.49,73.74,75.15,69Z"></path><path fill="#000100" d="M78.92,73.72s-1.34-.34-3.56-4.82c-1.36-2.76-3-4.16-5-4.16a4.94,4.94,0,0,0-2.37.67c-2.77,1.52-2.37,7.57-2.35,7.83a.24.24,0,0,0,.16.2l.38.13a.25.25,0,0,0,.21,0,.24.24,0,0,0,.1-.18s.06-1.21.27-3.23c.06-.64.35-2.73,1.49-2.73.46,0,1.27.33,2.57,1.94a14,14,0,0,0,8,4.84h0A.22.22,0,0,0,79.1,74,.23.23,0,0,0,78.92,73.72ZM71.18,69c-1.15-1.42-2.11-2.11-2.93-2.11-1.49,0-1.87,2.2-2,3.15s-.17,1.82-.21,2.37c0-1.65.17-5.55,2.14-6.63a4.48,4.48,0,0,1,2.14-.61c1.77,0,3.31,1.31,4.58,3.9a17.27,17.27,0,0,0,2.78,4.31A14,14,0,0,1,71.18,69Z"></path><path fill="#fff" d="M75,69.91a13.58,13.58,0,0,0-1.69-2.64,4.2,4.2,0,0,0-2.68-1.79,1.62,1.62,0,0,0-1.17.31l.41.47a1,1,0,0,1,.71-.16c.47,0,1.24.34,2.25,1.57a12.69,12.69,0,0,1,1.62,2.53,6.32,6.32,0,0,0,2.57,3l.34-.52A5.75,5.75,0,0,1,75,69.91Z"></path><path fill="#00685a" d="M69,63.11a2,2,0,0,0-2.06-.21,2.46,2.46,0,0,1-2.22-.2c-2.46-1.48-2.65.56-2.65.56l.07.55h0a5.08,5.08,0,0,0,3.22,4.09c.44.16,4.31,1.83,4.31,1.83C69.12,67.63,70.47,64.21,69,63.11Z"></path><path fill="#000100" d="M69.1,62.92a2.24,2.24,0,0,0-2.28-.23,2.25,2.25,0,0,1-2-.19,3.35,3.35,0,0,0-1.64-.57,1.38,1.38,0,0,0-1.36,1.35l.06.55a0,0,0,0,1,0,0,5.24,5.24,0,0,0,3.37,4.26c.43.17,4.26,1.82,4.3,1.83a.15.15,0,0,0,.09,0,.25.25,0,0,0,.15,0,.24.24,0,0,0,.08-.24,9.26,9.26,0,0,1,0-2.84C70,65.2,70.12,63.66,69.1,62.92Zm.28,3.88a12.19,12.19,0,0,0,0,2.55c-1-.43-3.56-1.53-3.91-1.66a4.8,4.8,0,0,1-3.08-3.87v0l-.07-.49s.09-.88.9-.88a3,3,0,0,1,1.4.5,2.73,2.73,0,0,0,2.43.22,1.77,1.77,0,0,1,1.83.18C69.63,63.88,69.51,65.3,69.38,66.8Z"></path><polygon fill="#fff" points="61.29 83.24 67.8 83.24 70.5 72.82 58.59 72.82 61.29 83.24"></polygon><path fill="#000100" d="M70.51,72.59H58.59a.25.25,0,0,0-.19.09.28.28,0,0,0,0,.2L61.07,83.3a.23.23,0,0,0,.22.17H67.8A.24.24,0,0,0,68,83.3l2.7-10.42a.24.24,0,0,0,0-.2A.21.21,0,0,0,70.51,72.59ZM67.62,83H61.47l-2.58-9.94H70.2Z"></path><rect width="14.24" height="1.71" x="57.43" y="72.82" fill="#fff"></rect><path fill="#000100" d="M71.67,72.59H57.43a.24.24,0,0,0-.24.23v1.72a.24.24,0,0,0,.24.23H71.67a.23.23,0,0,0,.23-.23V72.82A.23.23,0,0,0,71.67,72.59Zm-.24,1.71H57.66V73.06H71.43Z"></path><path fill="#fff" d="M66.12,63.75a14.51,14.51,0,0,1,2.64,5.12l.6-.18a14.88,14.88,0,0,0-2.78-5.36Z"></path><polygon fill="#ffbc3a" points="46.97 123.29 48.52 123.29 55.62 96.69 52.33 96.69 46.97 123.29"></polygon><path fill="#000100" d="M55.62,96.45H52.33a.24.24,0,0,0-.23.19l-5.36,26.6a.29.29,0,0,0,0,.2.25.25,0,0,0,.18.08h1.55a.23.23,0,0,0,.22-.17l7.11-26.6a.23.23,0,0,0,0-.2A.26.26,0,0,0,55.62,96.45Zm-7.28,26.61H47.26l5.26-26.14h2.8Z"></path><polygon fill="#ffbc3a" points="72.62 96.69 79.72 123.29 81.27 123.29 75.91 96.69 72.62 96.69"></polygon><path fill="#000100" d="M75.91,96.45H72.62a.26.26,0,0,0-.19.1.23.23,0,0,0,0,.2l7.11,26.6a.23.23,0,0,0,.22.17h1.55a.25.25,0,0,0,.18-.08.29.29,0,0,0,0-.2l-5.36-26.6A.24.24,0,0,0,75.91,96.45Zm4,26.61-7-26.14h2.8L81,123.06Z"></path><rect width="30.1" height="10.44" x="48.72" y="86.47" fill="#ffbc3a"></rect><path fill="#000100" d="M78.82,86.24H48.72a.23.23,0,0,0-.24.23V96.91a.24.24,0,0,0,.24.24h30.1a.24.24,0,0,0,.23-.24V86.47A.23.23,0,0,0,78.82,86.24Zm-.24,10.44H49v-10H78.58Z"></path><rect width="27.01" height="7.55" x="50.26" y="87.92" fill="#ffbc3a"></rect><path fill="#000100" d="M77.27,87.68h-27a.23.23,0,0,0-.23.24v7.54a.23.23,0,0,0,.23.24h27a.24.24,0,0,0,.24-.24V87.92A.24.24,0,0,0,77.27,87.68ZM77,95.23H50.49V88.15H77Z"></path><polygon points="48.68 89.44 75.47 89.44 78.85 86.56 48.68 86.56 48.68 89.44" style="mix-blend-mode:multiply" fill="#5b7895" opacity=".55"></polygon><rect width="33.33" height="3.18" x="47.1" y="83.29" fill="#ffbc3a"></rect><path fill="#000100" d="M80.43,83.05H47.1a.23.23,0,0,0-.23.24v3.18a.23.23,0,0,0,.23.23H80.43a.23.23,0,0,0,.24-.23V83.29A.24.24,0,0,0,80.43,83.05Zm-.23,3.19H47.33V83.52H80.2Z"></path><path d="M63.48,91.23a1.06,1.06,0,1,0,1.06,1A1.05,1.05,0,0,0,63.48,91.23Z" style="mix-blend-mode:multiply" fill="#5b7895" opacity=".55"></path><path fill="#ffbc3a" d="M64,90.67a1.06,1.06,0,1,0,1.06,1.06A1.06,1.06,0,0,0,64,90.67Z"></path><path fill="#000100" d="M64,90.44a1.29,1.29,0,1,0,1.29,1.29A1.29,1.29,0,0,0,64,90.44Zm0,2.12a.83.83,0,1,1,.82-.83A.83.83,0,0,1,64,92.56Z"></path><rect width="110.43" height="4.55" x="45.65" y="106.36" fill="#fff"></rect><path fill="#000100" d="M156.08,106.13H45.65a.23.23,0,0,0-.23.23v4.55a.23.23,0,0,0,.23.23H156.08a.23.23,0,0,0,.23-.23v-4.55A.23.23,0,0,0,156.08,106.13Zm-.24,4.54h-110v-4.08h110Z"></path><rect width="103.97" height="21.55" x="45.65" y="110.96" fill="#000100"></rect><path fill="#000100" d="M45.42,132.75H149.86v-22H45.42Zm.46-21.55H149.39v21.08H45.88Z"></path><rect width="60.52" height="21.55" x="89.11" y="110.96" fill="#00685a"></rect><path fill="#000100" d="M149.62,110.73H89.11a.23.23,0,0,0-.24.23v21.55a.24.24,0,0,0,.24.24h60.51a.24.24,0,0,0,.24-.24V111A.23.23,0,0,0,149.62,110.73Zm-.23,21.55h-60V111.2h60Z"></path><rect width="6.22" height="21.55" x="143.4" y="110.96" fill="#fff"></rect><path fill="#000100" d="M149.62,110.73H143.4a.23.23,0,0,0-.23.23v21.55a.23.23,0,0,0,.23.24h6.22a.24.24,0,0,0,.24-.24V111A.23.23,0,0,0,149.62,110.73Zm-.23,21.55h-5.75V111.2h5.75Z"></path><polygon points="89.11 110.96 89.11 132.51 118.14 132.51 143.6 117.46 149.65 117.46 149.62 110.96 89.11 110.96" style="mix-blend-mode:multiply" fill="#5b7895"></polygon><path fill="#d2d9d7" d="M131.52,105h-10a3.54,3.54,0,0,1-3-5.35l2-3.4a6.56,6.56,0,0,1,5.58-3.15h1.48a.68.68,0,0,0,.67-.68.67.67,0,0,0-.67-.67H96.93a7.89,7.89,0,0,0-6.73,3.81l-2,3.4a4.87,4.87,0,0,0,4.17,7.38h39.18a.67.67,0,1,0,0-1.34Z"></path><path fill="#000100" d="M131.52,104.71h-10a3.3,3.3,0,0,1-2.83-5l2-3.4a6.32,6.32,0,0,1,5.38-3h1.48a.91.91,0,0,0,0-1.81H96.93A8.13,8.13,0,0,0,90,95.39l-2,3.4a5.1,5.1,0,0,0,4.37,7.73h39.18a.91.91,0,0,0,0-1.81Zm0,1.35H92.34a4.64,4.64,0,0,1-4-7l2-3.4a7.65,7.65,0,0,1,6.53-3.69h30.62a.44.44,0,0,1,0,.87h-1.48a6.79,6.79,0,0,0-5.78,3.27l-2,3.4a3.77,3.77,0,0,0,3.23,5.7h10a.44.44,0,0,1,0,.88Z"></path><path fill="#5b7895" d="M127.55,91.7H96.93a7.89,7.89,0,0,0-6.73,3.81l-2,3.4a4.81,4.81,0,0,0-.69,2.2H118a3.48,3.48,0,0,1,.48-1.51l2-3.4a6.56,6.56,0,0,1,5.58-3.15h1.48a.68.68,0,0,0,.67-.68A.67.67,0,0,0,127.55,91.7Z"></path><path d="M102,105H92a3.54,3.54,0,0,1-3-5.35l2-3.4a6.56,6.56,0,0,1,5.58-3.15h1.47a.69.69,0,0,0,.68-.68.68.68,0,0,0-.68-.67H96.58a7.89,7.89,0,0,0-6.73,3.81l-2,3.4A4.87,4.87,0,0,0,92,106.29h10a.67.67,0,0,0,0-1.34Z"></path><path d="M102,104.71H92a3.3,3.3,0,0,1-2.83-5l2-3.4a6.32,6.32,0,0,1,5.38-3h1.47a.91.91,0,1,0,0-1.81H96.58a8.12,8.12,0,0,0-6.93,3.92l-2,3.4A5.11,5.11,0,0,0,92,106.52h10a.91.91,0,0,0,0-1.81Zm0,1.35H92a4.64,4.64,0,0,1-4-7l2-3.4a7.65,7.65,0,0,1,6.53-3.69h1.47a.44.44,0,1,1,0,.87H96.58a6.79,6.79,0,0,0-5.78,3.27l-2,3.4a3.76,3.76,0,0,0,3.23,5.7h10a.44.44,0,0,1,0,.88Z"></path><rect width="82.26" height="59.79" x="72.51" y="33.26" rx="2.38"></rect><path d="M152.4,33H74.89a2.61,2.61,0,0,0-2.61,2.61v55a2.61,2.61,0,0,0,2.61,2.61H152.4A2.61,2.61,0,0,0,155,90.68v-55A2.61,2.61,0,0,0,152.4,33Zm2.14,57.65a2.14,2.14,0,0,1-2.14,2.14H74.89a2.14,2.14,0,0,1-2.14-2.14v-55a2.14,2.14,0,0,1,2.14-2.14H152.4a2.14,2.14,0,0,1,2.14,2.14Z"></path><rect width="82.26" height="59.79" x="74" y="33.26" fill="#d2d9d7" rx="2.38"></rect><path fill="#000100" d="M153.88,33H76.37a2.61,2.61,0,0,0-2.61,2.61v55a2.61,2.61,0,0,0,2.61,2.61h77.51a2.61,2.61,0,0,0,2.61-2.61v-55A2.61,2.61,0,0,0,153.88,33ZM156,90.68a2.14,2.14,0,0,1-2.14,2.14H76.37a2.14,2.14,0,0,1-2.14-2.14v-55a2.14,2.14,0,0,1,2.14-2.14h77.51A2.14,2.14,0,0,1,156,35.64Z"></path><rect width="78.04" height="51.79" x="76.11" y="35.01" fill="#fff"></rect><path fill="#0e0e27" d="M154.14,34.77h-78a.24.24,0,0,0-.24.24V86.79a.24.24,0,0,0,.24.24h78a.24.24,0,0,0,.24-.24V35A.24.24,0,0,0,154.14,34.77Zm-.23,51.79H76.34V35.24h77.57Z"></path><g style="mix-blend-mode:multiply"><path fill="#5b7895" d="M94 37.7a6.13 6.13 0 005.94-4.6H88A6.13 6.13 0 0094 37.7zM83.27 36.28a4.26 4.26 0 104.26 4.26A4.26 4.26 0 0083.27 36.28zM132.12 48.34A8.17 8.17 0 00124 40.17a8.08 8.08 0 00-3.48.79 8.21 8.21 0 00.59-3.06 8.3 8.3 0 00-1.54-4.8H106.08a8.25 8.25 0 0010.28 12.25 8.23 8.23 0 00-.56 3c0 .26 0 .53 0 .79H104.45a7.08 7.08 0 10-13.22 0H84.15v2.24h2.31L98.82 64.3l4.84 22.49h14.53L123 64.3l12.37-12.93h2.3V49.13h-5.61C132.1 48.87 132.12 48.6 132.12 48.34z"></path></g><path fill="#fff" d="M120.49,22.24a9.34,9.34,0,1,0,9.34,9.34A9.34,9.34,0,0,0,120.49,22.24Z"></path><path fill="#000100" d="M120.49,22a9.57,9.57,0,1,0,9.57,9.57A9.58,9.58,0,0,0,120.49,22Zm0,18.67a9.1,9.1,0,1,1,9.1-9.1A9.11,9.11,0,0,1,120.49,40.68Z"></path><path fill="#ffbc3a" d="M123.86,30c-1,0-1.52,0-1.52,0h0a14,14,0,0,1,0-2.28c0-2.21-1.51-1.76-1.65-1.71v1a2.49,2.49,0,0,1-.58,1.63L118.3,30.4a.5.5,0,0,0-.16.36v4.89a.5.5,0,0,0,.51.5l5.29,0a1.57,1.57,0,0,0,1.62-1.61V31.75A1.75,1.75,0,0,0,123.86,30Z"></path><path fill="#000100" d="M123.86,29.76c-.57,0-1,0-1.25,0h-.06c0-.24,0-.79,0-2A2.26,2.26,0,0,0,122,26a1.26,1.26,0,0,0-.92-.37,1.33,1.33,0,0,0-.54.1.31.31,0,0,0-.11.09c0,.07,0,.07,0,1.14a2.17,2.17,0,0,1-.51,1.46l-1.78,1.77a.75.75,0,0,0-.22.53v4.89a.75.75,0,0,0,.77.74l5.26,0h0a1.79,1.79,0,0,0,1.85-1.84V31.75A2,2,0,0,0,123.86,29.76Zm1.45,4.82A1.32,1.32,0,0,1,123.93,36v0l-5.29,0a.27.27,0,0,1-.27-.27V30.76a.3.3,0,0,1,.08-.2l1.8-1.78a2.69,2.69,0,0,0,.63-1.78s0-.55,0-.84l.22,0a.81.81,0,0,1,.59.23,1.84,1.84,0,0,1,.37,1.32c0,2.34,0,2.36.11,2.45a.47.47,0,0,0,.17.07h.27l1.24,0a1.52,1.52,0,0,1,1.47,1.52Z"></path><rect width="5.86" height="2.23" x="113.62" y="32.19" fill="#ffbc3a" rx=".55" transform="rotate(-89.9 116.556 33.302)"></rect><path fill="#000100" d="M117.12,30.14H116a.79.79,0,0,0-.79.79v4.75a.78.78,0,0,0,.79.78h1.12a.8.8,0,0,0,.79-.79V30.93A.8.8,0,0,0,117.12,30.14Zm.31,5.54a.32.32,0,0,1-.32.32v0H116a.32.32,0,0,1-.32-.32V30.93a.31.31,0,0,1,.32-.32h1.12a.32.32,0,0,1,.32.32Z"></path><circle cx="133.09" cy="43.36" r="9.22" fill="#fff"></circle><path fill="#000100" d="M133.09,33.91a9.45,9.45,0,1,0,9.45,9.45A9.46,9.46,0,0,0,133.09,33.91Zm0,18.44a9,9,0,1,1,9-9A9,9,0,0,1,133.09,52.35Z"></path><path fill="#fff" d="M103.59,33.41a8,8,0,1,0,8,8A8,8,0,0,0,103.59,33.41Z"></path><path fill="#000100" d="M103.59,33.17a8.23,8.23,0,1,0,8.23,8.23A8.25,8.25,0,0,0,103.59,33.17Zm0,16a7.77,7.77,0,1,1,7.76-7.77A7.78,7.78,0,0,1,103.59,49.17Z"></path><path fill="#fff" d="M99.23,17.49a6.93,6.93,0,1,0,6.93,6.93A6.93,6.93,0,0,0,99.23,17.49Z"></path><path fill="#000100" d="M99.23,17.25a7.17,7.17,0,1,0,7.16,7.17A7.18,7.18,0,0,0,99.23,17.25Zm0,13.87a6.7,6.7,0,1,1,6.7-6.7A6.71,6.71,0,0,1,99.23,31.12Z"></path><path fill="#fff" d="M87.14,29.75A4.81,4.81,0,1,0,92,34.56,4.81,4.81,0,0,0,87.14,29.75Z"></path><path fill="#000100" d="M87.14,29.51a5.05,5.05,0,1,0,5,5.05A5.06,5.06,0,0,0,87.14,29.51Zm0,9.63a4.58,4.58,0,1,1,4.58-4.58A4.58,4.58,0,0,1,87.14,39.14Z"></path><path fill="#ff4700" d="M135.89,41.12a4,4,0,0,1-.56,5.58l2,2.47a7.16,7.16,0,0,0,1-10.08Z"></path><path fill="#000100" d="M138.39,38.85a.28.28,0,0,0-.18.06l-2.47,2a.24.24,0,0,0,0,.33,3.72,3.72,0,0,1-.52,5.24.25.25,0,0,0,0,.33l2,2.48a.24.24,0,0,0,.18.09.2.2,0,0,0,.15-.06,7.4,7.4,0,0,0,1-10.41A.24.24,0,0,0,138.39,38.85Zm1.33,5.46a6.89,6.89,0,0,1-2.33,4.53l-1.73-2.12a4.21,4.21,0,0,0,.55-5.57l2.12-1.73A6.91,6.91,0,0,1,139.72,44.31Z"></path><path fill="#d2d9d7" d="M129.14,46.65l-1.24,1a6.36,6.36,0,0,0,8.95.89l-1-1.24A4.76,4.76,0,0,1,129.14,46.65Z"></path><path fill="#000100" d="M136,47.17a.24.24,0,0,0-.16-.09.26.26,0,0,0-.17.05,4.52,4.52,0,0,1-6.37-.63.24.24,0,0,0-.33,0l-1.24,1a.21.21,0,0,0-.08.16.22.22,0,0,0,0,.17,6.55,6.55,0,0,0,4.45,2.39l.66,0a6.49,6.49,0,0,0,4.17-1.5.24.24,0,0,0,0-.33Zm-3.8,2.56a6,6,0,0,1-4-2l.88-.71a5,5,0,0,0,6.7.66l.71.88A6,6,0,0,1,132.22,49.73Z"></path><path fill="#ffbc3a" d="M133.5,36.76a6.89,6.89,0,0,0-5.05,1.53l1.69,2.07a4.22,4.22,0,0,1,6,.59l2.07-1.69A6.9,6.9,0,0,0,133.5,36.76Z"></path><path fill="#000100" d="M133.52,36.53a7,7,0,0,0-5.22,1.58.26.26,0,0,0-.09.16.27.27,0,0,0,.06.17L130,40.51a.27.27,0,0,0,.16.08.22.22,0,0,0,.17-.05,4,4,0,0,1,5.62.56.25.25,0,0,0,.18.08.27.27,0,0,0,.15,0l2.06-1.69a.24.24,0,0,0,0-.33A7.12,7.12,0,0,0,133.52,36.53Zm2.6,4.09a4.48,4.48,0,0,0-5.94-.59l-1.4-1.7a6.66,6.66,0,0,1,9,.9Z"></path><path fill="#002938" d="M126.22,43a6.61,6.61,0,0,0,1.47,4.85l1.65-1.35a4.5,4.5,0,0,1,.63-6.33l-1.35-1.65A6.6,6.6,0,0,0,126.22,43Z"></path><path fill="#000100" d="M128.8,38.35a.24.24,0,0,0-.33,0,6.87,6.87,0,0,0-1,9.66.26.26,0,0,0,.16.09h0a.22.22,0,0,0,.15-.06l1.65-1.35a.24.24,0,0,0,0-.33,4.27,4.27,0,0,1,.6-6,.19.19,0,0,0,.08-.16.22.22,0,0,0,0-.17Zm-.69,4.81a4.73,4.73,0,0,0,.91,3.28l-1.29,1.06a6.38,6.38,0,0,1,.86-8.67l1,1.29A4.73,4.73,0,0,0,128.11,43.16Z"></path><path fill="#ff4700" d="M107.4,37.52a2.53,2.53,0,0,0-3.55.43l-.25.31-.25-.32a2.53,2.53,0,0,0-4,3.1l4.26,4.81,4.22-4.77A2.54,2.54,0,0,0,107.4,37.52Z"></path><path fill="#000100" d="M107.55,37.34a2.77,2.77,0,0,0-3.88.46l-.07.08-.07-.09a2.77,2.77,0,0,0-3.88-.49,2.78,2.78,0,0,0-.48,3.89L103.44,46a.21.21,0,0,0,.17.08.25.25,0,0,0,.18-.08L108,41.22A2.77,2.77,0,0,0,107.55,37.34Zm.1,3.58-4,4.58-4.08-4.6a2.3,2.3,0,0,1,1.82-3.71,2.27,2.27,0,0,1,1.81.89l.26.33a.24.24,0,0,0,.18.09h0a.24.24,0,0,0,.18-.09l.25-.32a2.3,2.3,0,0,1,3.62,2.83Z"></path><path fill="#fff" d="M99.16,18.64A5.78,5.78,0,1,0,105,24.35,5.78,5.78,0,0,0,99.16,18.64Z"></path><path fill="#0e0e27" d="M99.23,18.41h-.08a6,6,0,0,0,.08,12h.07a6,6,0,0,0-.07-12ZM99.3,30h-.07a5.54,5.54,0,0,1-.07-11.08h.07A5.54,5.54,0,0,1,99.3,30Z"></path><path fill="#000100" d="M100,21.18c-.33-1.17-3.8-1.71-3.37.72.18,1-.24,2.12.16,2.44l4.94-.07c.2,0,.52-.78.24-1.71A1.65,1.65,0,0,0,100,21.18Z"></path><path fill="#000100" d="M100.28,20.91h-.18a2.45,2.45,0,0,0-2-1,1.78,1.78,0,0,0-1.41.56,1.66,1.66,0,0,0-.29,1.42,5.24,5.24,0,0,1,0,1.25c0,.58-.09,1.08.24,1.33l.06.05,5-.06a.4.4,0,0,0,.32-.19,2.27,2.27,0,0,0,.15-1.83A1.94,1.94,0,0,0,100.28,20.91ZM101.63,24l-4.78.06a2.39,2.39,0,0,1,0-.88,5.64,5.64,0,0,0,0-1.36,1.2,1.2,0,0,1,.19-1,1.3,1.3,0,0,1,1-.39c.77,0,1.55.38,1.68.81l.06.22.22-.05a1.13,1.13,0,0,1,.27,0c.48,0,1.11.22,1.42,1.24A1.88,1.88,0,0,1,101.63,24Z"></path><path fill="#fff" d="M95.61,28.92a5.76,5.76,0,0,0,7.35-.09,5.79,5.79,0,0,0-7.35.09Z"></path><path fill="#0e0e27" d="M99.34,27.33h-.08a6,6,0,0,0-3.8,1.42.23.23,0,0,0-.08.18.25.25,0,0,0,.08.18,6.07,6.07,0,0,0,3.77,1.32h.07A6.06,6.06,0,0,0,103.11,29a.25.25,0,0,0,.08-.18.21.21,0,0,0-.09-.18A6,6,0,0,0,99.34,27.33Zm0,2.63h-.07a5.61,5.61,0,0,1-3.24-1,5.6,5.6,0,0,1,3.28-1.13h.07a5.54,5.54,0,0,1,3.24,1.05A5.55,5.55,0,0,1,99.3,30Z"></path><path fill="#fff" d="M99.24,25.74a.79.79,0,0,0-.78.81v1.16a.8.8,0,0,0,1.6,0l0-1.16A.79.79,0,0,0,99.24,25.74Z"></path><path fill="#0e0e27" d="M99.24,25.51a1,1,0,0,0-.73.31,1.05,1.05,0,0,0-.29.73l0,1.16a1,1,0,0,0,1,1h0a1,1,0,0,0,.73-.31,1,1,0,0,0,.29-.74V26.53A1,1,0,0,0,99.24,25.51Zm.44,2.58a.56.56,0,0,1-.4.17v0a.57.57,0,0,1-.57-.56V26.55a.56.56,0,0,1,.16-.41.59.59,0,0,1,.41-.17.57.57,0,0,1,.56.56l0,1.16A.59.59,0,0,1,99.68,28.09Z"></path><path fill="#fff" d="M99.19,21.24a2.69,2.69,0,0,0-2.38,2.92,2.42,2.42,0,1,0,4.83-.06A2.7,2.7,0,0,0,99.19,21.24Z"></path><path fill="#0e0e27" d="M99.18,21a2.46,2.46,0,0,0-1.87.95,3.4,3.4,0,0,0-.74,2.2,2.55,2.55,0,0,0,2.65,2.7h0a2.65,2.65,0,0,0,1.86-.74,2.7,2.7,0,0,0,.76-2A2.94,2.94,0,0,0,99.18,21Zm1.61,4.78a2.2,2.2,0,0,1-1.54.6l0,.23v-.23A2.09,2.09,0,0,1,97,24.16a3,3,0,0,1,.63-1.9,2,2,0,0,1,1.54-.78,2.46,2.46,0,0,1,2.2,2.62A2.27,2.27,0,0,1,100.79,25.79Z"></path><path fill="#000100" d="M97,22.31c1.52.84,2.64-1,2.64-1C99,20.38,95.44,21.48,97,22.31Z"></path><path fill="#000100" d="M98.62 20.72c-.83 0-2.09.38-2.25 1-.05.17 0 .5.48.79a1.91 1.91 0 00.91.24 2.81 2.81 0 002-1.34l.07-.13-.08-.12A1.34 1.34 0 0098.62 20.72zm-.86 1.58a1.5 1.5 0 01-.69-.19c-.06 0-.28-.16-.25-.26.07-.26.91-.66 1.8-.66a1.31 1.31 0 01.67.14A2.15 2.15 0 0197.76 22.3zM90.09 32.6h0a.1.1 0 00-.08-.05H84.28a.1.1 0 00-.08.05h0s0 0 0 0v3.52a.49.49 0 00.11.28h0a.43.43 0 00.34.16h5a.41.41 0 00.42-.41V32.61S90.09 32.61 90.09 32.6zm-.37.14L87.1 35l-2.55-2.23zm-5.34 3.39V32.86l1.92 1.67-1.89 1.65S84.38 36.15 84.38 36.13zm5.3.25h-5a.25.25 0 01-.11 0l1.92-1.68.59.52.06 0 .07 0 .62-.53 1.91 1.73zm.22-.21s0 .06 0 .09l-1.92-1.74 2-1.67z"></path><path fill="#000100" d="M90.3,32.5l0-.08,0,0a.32.32,0,0,0-.22-.1H84.28a.32.32,0,0,0-.22.1l-.06,0,0,.08h0l0,0,0,3.59a.71.71,0,0,0,.12.37l.1.13h0a.68.68,0,0,0,.46.19h5a.64.64,0,0,0,.5-.24h.09l0,0a.61.61,0,0,0,.11-.36V32.66l0,0h0l0-.07,0,0ZM89.09,33l-2,1.69L85.17,33Zm-4.47,2.72V33.37l1.32,1.16Zm.47.47L86.45,35l.43.38a.35.35,0,0,0,.44,0l.46-.4,1.32,1.19Zm4.57-.4L88.3,34.52l1.36-1.16Z"></path><rect width="60.46" height="2.53" x="88.14" y="44.26" fill="#00685a"></rect><path fill="#000100" d="M148.6,44H88.14a.24.24,0,0,0-.24.24v2.52a.24.24,0,0,0,.24.24H148.6a.24.24,0,0,0,.24-.24V44.26A.24.24,0,0,0,148.6,44Zm-.23,2.53h-60V44.49h60Z"></path><polygon fill="#00685a" points="104.7 61.39 132.04 61.39 146.01 46.77 90.73 46.77 104.7 61.39"></polygon><path fill="#000100" d="M146,46.54H90.73a.23.23,0,0,0-.22.14.24.24,0,0,0,0,.25l14,14.62a.25.25,0,0,0,.17.08H132a.21.21,0,0,0,.16-.08l14-14.62a.22.22,0,0,0,0-.25A.23.23,0,0,0,146,46.54ZM131.94,61.16H104.8L91.27,47h54.2Z"></path><polygon fill="#00685a" points="110.17 86.79 126.57 86.79 132.04 61.39 104.7 61.39 110.17 86.79"></polygon><path fill="#000100" d="M132,61.16H104.7a.23.23,0,0,0-.18.09.21.21,0,0,0,0,.19l5.46,25.4a.24.24,0,0,0,.23.19h16.4a.24.24,0,0,0,.23-.19l5.46-25.4a.21.21,0,0,0,0-.19A.23.23,0,0,0,132,61.16Zm-5.66,25.4h-16L105,61.63h26.76Z"></path><polygon fill="#5b7895" points="107.52 46.78 102.53 46.78 102.53 44.26 88.14 44.26 88.14 46.78 90.74 46.78 104.7 61.39 110.17 86.79 114.29 86.79 112.39 61.39 107.52 46.78"></polygon></g></svg>